{"glyphs":{"0":{"ha":764,"x_min":36,"x_max":728,"o":"m 728 447 q 704 252 728 338 q 634 106 680 165 q 523 16 589 47 q 372 -16 457 -16 q 237 10 299 -16 q 131 91 176 36 q 61 233 86 146 q 36 439 36 319 q 60 634 36 548 q 130 780 84 720 q 241 870 175 839 q 392 901 308 901 q 527 876 465 901 q 633 795 589 850 q 703 654 677 740 q 728 447 728 568 m 203 444 q 203 419 203 431 q 204 395 203 407 l 536 635 q 474 734 513 702 q 382 766 435 766 q 311 747 344 766 q 255 688 279 728 q 217 587 231 648 q 203 444 203 527 m 561 441 q 560 465 561 453 q 559 488 559 477 l 229 249 q 290 151 251 183 q 382 119 330 119 q 453 139 420 119 q 510 198 486 159 q 547 299 534 238 q 561 441 561 359 z "},"1":{"ha":764,"x_min":78,"x_max":693,"o":"m 103 0 l 103 147 l 329 147 l 329 717 l 132 608 l 78 743 l 359 892 l 498 892 l 498 147 l 693 147 l 693 0 l 103 0 z "},"2":{"ha":764,"x_min":83,"x_max":689,"o":"m 87 0 l 87 122 l 297 332 q 392 433 356 391 q 447 510 427 476 q 472 572 466 543 q 478 631 478 600 q 470 679 478 656 q 446 718 462 701 q 407 744 431 734 q 353 754 383 754 q 256 731 300 754 q 171 671 211 709 l 83 783 q 213 869 141 837 q 370 901 286 901 q 488 885 435 901 q 578 836 541 868 q 636 754 616 803 q 657 642 657 705 q 643 543 657 589 q 602 454 629 497 q 535 367 574 410 q 444 275 495 323 l 315 153 l 689 153 l 689 0 l 87 0 z "},"3":{"ha":764,"x_min":94,"x_max":692,"o":"m 692 271 q 667 152 692 205 q 592 63 643 100 q 465 6 542 26 q 285 -14 389 -14 q 236 -13 262 -14 q 186 -10 211 -12 q 137 -6 161 -8 q 94 0 113 -3 l 94 144 q 190 131 137 136 q 301 125 243 125 q 398 135 357 125 q 465 162 439 144 q 504 207 492 180 q 517 267 517 233 q 504 319 517 296 q 465 360 491 343 q 397 386 438 376 q 300 395 356 395 l 201 395 l 201 521 l 292 521 q 379 531 345 521 q 435 559 414 542 q 465 601 456 577 q 473 652 473 625 q 438 734 473 706 q 329 762 403 762 q 224 752 276 762 q 118 725 173 742 l 118 864 q 176 881 149 874 q 232 892 204 888 q 288 899 260 897 q 347 901 317 901 q 476 886 420 901 q 569 841 531 870 q 625 771 606 812 q 644 679 644 730 q 607 548 644 598 q 504 472 570 498 q 581 449 547 465 q 641 406 616 432 q 679 346 665 380 q 692 271 692 312 z "},"4":{"ha":764,"x_min":26,"x_max":734,"o":"m 600 180 l 600 0 l 439 0 l 439 180 l 26 180 l 26 322 l 372 886 l 600 886 l 600 326 l 734 326 l 734 180 l 600 180 m 441 726 l 189 326 l 441 326 l 441 726 z "},"5":{"ha":764,"x_min":106,"x_max":682,"o":"m 682 283 q 652 157 682 212 q 570 64 623 102 q 445 6 517 26 q 289 -14 373 -14 q 244 -12 268 -14 q 196 -9 220 -11 q 149 -4 172 -7 q 106 3 125 -1 l 106 147 q 195 132 144 138 q 297 126 245 126 q 452 165 399 126 q 505 273 505 204 q 456 380 505 345 q 296 415 406 415 l 122 415 l 122 886 l 633 886 l 633 730 l 277 730 l 277 550 l 340 550 q 470 538 408 550 q 579 495 532 526 q 654 414 626 465 q 682 283 682 362 z "},"6":{"ha":764,"x_min":66,"x_max":711,"o":"m 711 281 q 687 159 711 214 q 620 65 663 104 q 517 5 576 26 q 386 -16 457 -16 q 149 82 231 -16 q 66 380 66 180 q 75 520 66 454 q 105 642 84 586 q 160 743 125 698 q 248 820 195 789 q 371 869 300 852 q 536 886 442 886 l 637 886 l 637 746 l 519 746 q 397 731 446 746 q 316 688 347 716 q 269 621 285 661 q 249 530 254 581 l 248 514 q 328 542 283 531 q 422 553 373 553 q 549 534 494 553 q 639 480 603 515 q 693 395 675 445 q 711 281 711 345 m 539 273 q 531 331 539 304 q 506 375 523 357 q 461 405 488 394 q 397 415 435 415 q 354 411 376 415 q 313 401 333 408 q 275 388 293 395 q 243 372 257 380 q 252 257 243 304 q 281 180 262 210 q 329 137 300 150 q 396 123 358 123 q 455 134 429 123 q 500 165 481 145 q 529 213 519 185 q 539 273 539 240 z "},"7":{"ha":764,"x_min":72,"x_max":688,"o":"m 332 0 l 144 0 l 497 726 l 72 726 l 72 886 l 688 886 l 688 742 l 332 0 z "},"8":{"ha":764,"x_min":69,"x_max":694,"o":"m 529 469 q 592 429 562 451 q 645 378 623 407 q 681 313 668 349 q 694 231 694 277 q 670 124 694 170 q 603 47 646 78 q 502 0 559 16 q 376 -16 444 -16 q 244 0 302 -16 q 148 45 187 16 q 89 116 109 75 q 69 208 69 157 q 82 289 69 254 q 119 354 96 325 q 172 406 142 383 q 236 449 202 429 q 179 488 205 467 q 132 535 152 509 q 99 594 111 562 q 87 668 87 627 q 106 759 87 716 q 162 833 125 801 q 255 883 199 865 q 386 901 311 901 q 509 887 455 901 q 601 845 564 872 q 657 780 637 818 q 676 697 676 743 q 665 621 676 655 q 633 560 653 587 q 587 510 614 532 q 529 469 559 488 m 399 533 q 445 562 423 547 q 481 595 466 577 q 507 635 497 614 q 516 684 516 657 q 481 751 516 728 q 382 774 447 774 q 283 750 318 774 q 249 679 249 726 q 260 633 249 653 q 292 595 272 612 q 340 563 313 578 q 399 533 368 548 m 364 383 q 314 353 338 369 q 274 317 291 336 q 246 274 256 297 q 236 221 236 250 q 276 142 236 170 q 382 115 316 115 q 438 121 412 115 q 485 140 465 127 q 516 173 505 153 q 528 221 528 193 q 515 272 528 250 q 479 314 502 295 q 427 350 457 333 q 364 383 397 367 z "},"9":{"ha":764,"x_min":49,"x_max":693,"o":"m 693 496 q 675 314 693 391 q 626 181 658 236 q 549 91 593 126 q 449 35 504 56 q 333 7 395 15 q 204 0 271 0 l 102 0 l 102 142 l 222 142 q 355 156 302 142 q 441 196 408 170 q 490 263 474 223 q 511 355 506 303 l 513 372 q 431 345 477 355 q 338 334 385 334 q 220 349 273 334 q 129 396 168 363 q 70 480 91 429 q 49 606 49 532 q 73 727 49 672 q 140 820 97 781 q 242 880 183 859 q 372 901 302 901 q 500 882 441 901 q 602 815 559 862 q 669 690 645 768 q 693 496 693 612 m 364 762 q 305 751 332 762 q 260 721 279 741 q 231 674 241 701 q 221 612 221 646 q 259 506 221 541 q 364 471 297 471 q 403 474 382 471 q 445 484 424 477 q 484 497 465 490 q 517 514 503 505 q 509 621 517 574 q 483 698 501 667 q 436 746 465 730 q 364 762 407 762 z "},"\u0000":{"ha":764,"x_min":0,"x_max":0,"o":""},"\r":{"ha":0,"x_min":0,"x_max":0,"o":""}," ":{"ha":764,"x_min":0,"x_max":0,"o":""},"A":{"ha":764,"x_min":3,"x_max":761,"o":"m 576 0 l 528 175 l 218 175 l 168 0 l 3 0 l 265 886 l 498 886 l 761 0 l 576 0 m 375 724 l 258 311 l 490 311 l 375 724 z "},"B":{"ha":764,"x_min":87,"x_max":711,"o":"m 87 0 l 87 886 l 374 886 q 601 833 525 886 q 676 673 676 781 q 668 609 676 640 q 644 551 661 577 q 604 504 628 524 q 546 472 579 484 q 609 451 579 467 q 662 409 640 435 q 698 349 685 384 q 711 272 711 315 q 621 68 711 136 q 358 0 530 0 l 87 0 m 503 644 q 494 690 503 669 q 468 724 486 710 q 422 746 450 739 q 354 754 394 754 l 253 754 l 253 519 l 354 519 q 423 529 395 519 q 469 556 451 539 q 495 596 487 574 q 503 644 503 618 m 370 136 q 440 146 410 136 q 490 175 470 157 q 521 217 511 193 q 532 269 532 241 q 489 359 532 327 q 357 392 446 392 l 253 392 l 253 136 l 370 136 z "},"C":{"ha":764,"x_min":56,"x_max":681,"o":"m 681 35 q 567 -1 622 11 q 452 -12 511 -12 q 282 16 356 -12 q 158 100 209 44 q 82 238 108 155 q 56 429 56 320 q 84 628 56 541 q 165 775 113 715 q 294 867 218 836 q 464 899 370 899 q 521 897 494 899 q 574 892 548 896 q 626 882 600 888 q 681 867 652 876 l 681 701 q 571 740 623 728 q 476 751 519 751 q 368 729 413 751 q 295 665 323 706 q 252 567 266 624 q 239 443 239 511 q 253 314 239 371 q 296 218 267 258 q 370 158 325 179 q 478 138 416 138 q 527 142 500 138 q 579 154 553 146 q 632 171 606 161 q 681 191 659 180 l 681 35 z "},"D":{"ha":764,"x_min":58,"x_max":728,"o":"m 728 454 q 702 267 728 351 q 623 124 677 183 q 485 32 569 64 q 283 0 401 0 l 58 0 l 58 886 l 321 886 q 499 861 422 886 q 626 783 575 836 q 702 648 677 730 q 728 454 728 567 m 549 444 q 537 572 549 515 q 498 667 526 628 q 425 726 471 706 q 310 747 378 747 l 225 747 l 225 140 l 298 140 q 485 213 421 140 q 549 444 549 286 z "},"E":{"ha":764,"x_min":125,"x_max":659,"o":"m 125 0 l 125 886 l 659 886 l 659 745 l 294 745 l 294 525 l 642 525 l 642 387 l 294 387 l 294 141 l 659 141 l 659 0 l 125 0 z "},"F":{"ha":764,"x_min":125,"x_max":648,"o":"m 294 745 l 294 500 l 629 500 l 629 363 l 294 363 l 294 0 l 125 0 l 125 886 l 648 886 l 648 745 l 294 745 z "},"G":{"ha":764,"x_min":32,"x_max":701,"o":"m 386 375 l 386 513 l 701 513 l 701 40 q 574 -2 640 12 q 429 -16 507 -16 q 263 13 337 -16 q 138 98 190 41 q 59 237 87 154 q 32 431 32 321 q 61 629 32 541 q 145 777 90 716 q 280 869 200 838 q 464 901 361 901 q 583 891 525 901 q 699 863 641 880 l 699 698 q 588 737 648 722 q 465 752 527 752 q 355 730 403 752 q 275 669 307 709 q 226 570 243 629 q 210 439 210 512 q 222 312 210 368 q 264 215 235 255 q 338 155 293 176 q 449 134 384 134 q 476 135 465 134 q 498 138 488 136 q 517 142 508 140 q 536 149 526 145 l 536 375 l 386 375 z "},"H":{"ha":764,"x_min":64,"x_max":699,"o":"m 532 0 l 532 386 l 231 386 l 231 0 l 64 0 l 64 886 l 231 886 l 231 530 l 532 530 l 532 886 l 699 886 l 699 0 l 532 0 z "},"I":{"ha":764,"x_min":102,"x_max":662,"o":"m 102 750 l 102 886 l 662 886 l 662 750 l 467 750 l 467 138 l 662 138 l 662 0 l 102 0 l 102 138 l 297 138 l 297 750 l 102 750 z "},"J":{"ha":764,"x_min":117,"x_max":614,"o":"m 614 265 q 594 151 614 203 q 536 63 574 100 q 442 6 498 26 q 311 -14 386 -14 q 205 -1 256 -14 q 117 32 155 12 l 117 193 q 156 167 134 179 q 205 145 179 155 q 258 131 231 136 q 311 126 285 126 q 358 134 334 126 q 401 161 382 142 q 432 211 420 180 q 444 288 444 242 l 444 749 l 123 749 l 123 886 l 614 886 l 614 265 z "},"K":{"ha":764,"x_min":87,"x_max":739,"o":"m 524 0 l 257 429 l 257 0 l 87 0 l 87 886 l 257 886 l 257 483 l 522 886 l 724 886 l 422 464 l 739 0 l 524 0 z "},"L":{"ha":764,"x_min":134,"x_max":677,"o":"m 134 0 l 134 886 l 303 886 l 303 143 l 677 143 l 677 0 l 134 0 z "},"M":{"ha":764,"x_min":31,"x_max":733,"o":"m 586 0 l 570 501 l 564 701 l 521 566 l 422 264 l 318 264 l 229 566 l 192 701 l 187 505 l 172 0 l 31 0 l 74 886 l 262 886 l 340 635 l 378 493 l 415 627 l 497 886 l 689 886 l 733 0 l 586 0 z "},"N":{"ha":764,"x_min":64,"x_max":705,"o":"m 502 0 l 264 529 l 216 643 l 216 275 l 216 0 l 64 0 l 64 886 l 269 886 l 511 354 l 553 250 l 553 642 l 553 886 l 705 886 l 705 0 l 502 0 z "},"O":{"ha":764,"x_min":25,"x_max":739,"o":"m 739 447 q 710 239 739 326 q 633 95 682 151 q 518 12 584 39 q 376 -16 452 -16 q 113 101 201 -16 q 25 439 25 217 q 53 647 25 559 q 131 791 81 734 q 246 874 180 847 q 387 901 312 901 q 650 785 562 901 q 739 447 739 669 m 562 439 q 520 673 562 596 q 382 751 478 751 q 300 731 334 751 q 244 672 266 711 q 212 577 222 633 q 201 447 201 520 q 244 212 201 290 q 382 135 286 135 q 464 155 430 135 q 520 214 498 175 q 552 309 542 252 q 562 439 562 366 z "},"P":{"ha":764,"x_min":92,"x_max":707,"o":"m 707 604 q 684 476 707 535 q 615 375 661 418 q 502 309 570 332 q 345 285 434 285 l 260 285 l 260 0 l 92 0 l 92 886 l 351 886 q 504 868 437 886 q 615 813 570 849 q 683 725 660 777 q 707 604 707 672 m 532 593 q 520 657 532 628 q 487 706 509 686 q 429 737 464 726 q 347 748 395 748 l 260 748 l 260 423 l 353 423 q 429 435 396 423 q 485 469 463 447 q 520 523 508 492 q 532 593 532 554 z "},"Q":{"ha":764,"x_min":25,"x_max":768,"o":"m 296 -7 q 92 130 159 18 q 25 435 25 241 q 53 643 25 555 q 131 788 81 730 q 246 873 180 845 q 387 901 312 901 q 650 786 562 901 q 739 453 739 671 q 718 269 739 349 q 658 132 696 189 q 568 41 620 75 q 454 -7 515 6 q 472 -60 460 -39 q 502 -94 485 -81 q 540 -111 519 -106 q 582 -115 560 -115 q 640 -103 611 -115 q 692 -69 669 -91 l 768 -183 q 675 -238 726 -219 q 574 -257 625 -257 q 459 -242 510 -257 q 373 -196 409 -227 q 318 -118 338 -165 q 296 -7 298 -71 m 562 439 q 521 673 562 596 q 385 751 479 751 q 302 731 336 751 q 245 672 267 711 q 212 576 222 633 q 201 447 201 519 q 244 213 201 291 q 382 135 286 135 q 464 155 430 135 q 520 214 498 175 q 552 309 542 252 q 562 439 562 366 z "},"R":{"ha":764,"x_min":87,"x_max":730,"o":"m 534 0 l 410 285 q 360 346 392 326 q 286 367 329 367 l 254 367 l 254 0 l 87 0 l 87 886 l 346 886 q 479 874 419 886 q 581 832 538 861 q 645 756 623 803 q 668 642 668 709 q 654 555 668 593 q 614 489 640 517 q 552 445 588 462 q 475 421 517 428 q 534 384 507 414 q 589 297 562 354 l 730 0 l 534 0 m 493 625 q 452 719 493 690 q 328 747 410 747 l 254 747 l 254 497 l 322 497 q 392 505 361 497 q 446 530 424 513 q 481 570 469 546 q 493 625 493 594 z "},"S":{"ha":764,"x_min":66,"x_max":692,"o":"m 692 268 q 665 142 692 195 q 590 53 638 88 q 475 1 542 18 q 330 -16 409 -16 q 195 -7 260 -16 q 66 20 130 1 l 66 184 q 132 164 98 174 q 200 148 165 155 q 268 136 234 140 q 334 132 302 132 q 414 140 381 132 q 469 163 448 149 q 499 197 490 177 q 509 240 509 216 q 490 295 509 273 q 441 334 471 317 q 371 364 410 351 q 292 393 332 378 q 213 429 252 409 q 143 477 174 448 q 94 547 113 507 q 75 644 75 587 q 94 743 75 696 q 154 825 113 790 q 258 881 195 860 q 412 901 322 901 q 468 899 439 901 q 525 893 496 897 q 579 884 553 889 q 627 873 605 879 l 627 721 q 579 736 605 729 q 526 748 553 743 q 471 755 498 753 q 418 758 443 758 q 343 751 374 758 q 293 731 313 744 q 264 701 273 719 q 256 660 256 682 q 274 612 256 632 q 324 576 293 592 q 394 546 355 560 q 474 516 433 532 q 554 480 515 500 q 624 431 593 460 q 673 362 654 401 q 692 268 692 322 z "},"T":{"ha":764,"x_min":54,"x_max":710,"o":"m 467 747 l 467 0 l 296 0 l 296 747 l 54 747 l 54 886 l 710 886 l 710 747 l 467 747 z "},"U":{"ha":764,"x_min":59,"x_max":705,"o":"m 705 326 q 682 177 705 241 q 617 71 659 113 q 513 6 574 28 q 376 -16 452 -16 q 230 6 291 -16 q 131 68 169 28 q 76 168 93 109 q 59 298 59 226 l 59 886 l 226 886 l 226 309 q 234 229 226 264 q 261 171 241 195 q 309 134 280 146 q 382 122 338 122 q 452 133 424 122 q 500 166 481 143 q 528 227 519 190 q 538 315 538 263 l 538 886 l 705 886 l 705 326 z "},"V":{"ha":764,"x_min":0,"x_max":764,"o":"m 492 0 l 271 0 l 0 886 l 189 886 l 339 353 l 387 178 l 437 363 l 586 886 l 764 886 l 492 0 z "},"W":{"ha":764,"x_min":22,"x_max":742,"o":"m 692 0 l 496 0 l 408 273 l 376 385 l 346 271 l 260 0 l 72 0 l 22 886 l 170 886 l 191 318 l 196 163 l 236 301 l 334 616 l 439 616 l 542 282 l 575 164 l 578 302 l 600 886 l 742 886 l 692 0 z "},"X":{"ha":764,"x_min":5,"x_max":758,"o":"m 546 0 l 375 326 l 207 0 l 5 0 l 261 454 l 22 886 l 218 886 l 379 578 l 534 886 l 730 886 l 493 454 l 758 0 l 546 0 z "},"Y":{"ha":764,"x_min":7,"x_max":755,"o":"m 465 314 l 465 0 l 295 0 l 295 313 l 7 886 l 192 886 l 322 612 l 382 478 l 441 616 l 578 886 l 755 886 l 465 314 z "},"Z":{"ha":764,"x_min":71,"x_max":693,"o":"m 71 0 l 71 126 l 476 735 l 83 735 l 83 886 l 688 886 l 688 751 l 279 151 l 693 151 l 693 0 l 71 0 z "},"À":{"ha":764,"x_min":0,"x_max":761,"o":"m 576 0 l 528 175 l 218 175 l 168 0 l 3 0 l 265 886 l 498 886 l 761 0 l 576 0 m 375 724 l 258 311 l 490 311 l 375 724 m 314 1133 l 465 981 l 300 981 l 90 1133 l 314 1133 m 0 886 z "},"Á":{"ha":764,"x_min":0,"x_max":761,"o":"m 576 0 l 528 175 l 218 175 l 168 0 l 3 0 l 265 886 l 498 886 l 761 0 l 576 0 m 375 724 l 258 311 l 490 311 l 375 724 m 464 981 l 298 981 l 450 1133 l 673 1133 l 464 981 m 0 886 z "},"Â":{"ha":764,"x_min":0,"x_max":761,"o":"m 576 0 l 528 175 l 218 175 l 168 0 l 3 0 l 265 886 l 498 886 l 761 0 l 576 0 m 375 724 l 258 311 l 490 311 l 375 724 m 614 981 l 465 981 l 382 1044 l 298 981 l 153 981 l 314 1133 l 453 1133 l 614 981 m 0 886 z "},"Ã":{"ha":764,"x_min":0,"x_max":761,"o":"m 576 0 l 528 175 l 218 175 l 168 0 l 3 0 l 265 886 l 498 886 l 761 0 l 576 0 m 375 724 l 258 311 l 490 311 l 375 724 m 637 1071 q 571 990 609 1017 q 478 964 533 964 q 411 975 438 964 q 362 999 383 985 q 322 1023 340 1012 q 282 1034 304 1034 q 238 1018 257 1034 q 200 972 219 1002 l 126 1043 q 193 1124 155 1098 q 286 1150 231 1150 q 354 1139 326 1150 q 402 1115 381 1128 q 442 1091 424 1102 q 482 1080 460 1080 q 526 1096 507 1080 q 564 1141 545 1112 l 637 1071 m 0 886 z "},"Ä":{"ha":764,"x_min":0,"x_max":761,"o":"m 576 0 l 528 175 l 218 175 l 168 0 l 3 0 l 265 886 l 498 886 l 761 0 l 576 0 m 375 724 l 258 311 l 490 311 l 375 724 m 325 1053 q 318 1017 325 1034 q 298 987 311 1000 q 268 967 285 975 q 232 960 251 960 q 196 967 212 960 q 166 987 179 975 q 146 1017 153 1000 q 139 1053 139 1034 q 146 1089 139 1072 q 166 1119 153 1106 q 196 1139 179 1131 q 232 1146 212 1146 q 268 1139 251 1146 q 298 1119 285 1131 q 318 1089 311 1106 q 325 1053 325 1072 m 625 1053 q 617 1017 625 1034 q 597 987 610 1000 q 568 967 585 975 q 532 960 551 960 q 496 967 513 960 q 466 987 479 975 q 446 1017 454 1000 q 439 1053 439 1034 q 446 1089 439 1072 q 466 1119 454 1106 q 496 1139 479 1131 q 532 1146 513 1146 q 568 1139 551 1146 q 597 1119 585 1131 q 617 1089 610 1106 q 625 1053 625 1072 m 0 886 z "},"Ā":{"ha":764,"x_min":0,"x_max":761,"o":"m 576 0 l 528 175 l 218 175 l 168 0 l 3 0 l 265 886 l 498 886 l 761 0 l 576 0 m 375 724 l 258 311 l 490 311 l 375 724 m 184 991 l 184 1109 l 579 1109 l 579 991 l 184 991 m 0 886 z "},"Ă":{"ha":764,"x_min":0,"x_max":761,"o":"m 576 0 l 528 175 l 218 175 l 168 0 l 3 0 l 265 886 l 498 886 l 761 0 l 576 0 m 375 724 l 258 311 l 490 311 l 375 724 m 581 1139 q 569 1074 581 1105 q 532 1019 557 1042 q 469 981 507 995 q 380 966 431 966 q 291 981 328 966 q 230 1020 254 996 q 194 1075 205 1044 q 182 1139 182 1106 l 301 1139 q 306 1116 301 1127 q 320 1096 311 1105 q 345 1081 330 1086 q 382 1075 360 1075 q 443 1093 422 1075 q 463 1139 463 1112 l 581 1139 m 0 886 z "},"Å":{"ha":764,"x_min":0,"x_max":761,"o":"m 576 0 l 528 175 l 218 175 l 168 0 l 3 0 l 265 886 l 498 886 l 761 0 l 576 0 m 375 724 l 258 311 l 490 311 l 375 724 m 534 1044 q 523 987 534 1013 q 490 944 511 962 q 441 917 469 926 q 382 907 414 907 q 322 916 350 907 q 274 943 294 926 q 241 986 253 961 q 229 1044 229 1011 q 241 1102 229 1076 q 274 1145 253 1127 q 322 1172 294 1162 q 382 1181 350 1181 q 442 1172 414 1181 q 490 1145 470 1162 q 523 1102 511 1127 q 534 1044 534 1076 m 440 1044 q 424 1084 440 1069 q 382 1099 408 1099 q 340 1084 356 1099 q 323 1044 323 1069 q 340 1003 323 1018 q 382 988 356 988 q 424 1003 408 988 q 440 1044 440 1018 m 0 886 z "},"Ǻ":{"ha":764,"x_min":0,"x_max":761,"o":"m 576 0 l 528 175 l 218 175 l 168 0 l 3 0 l 265 886 l 498 886 l 761 0 l 576 0 m 375 724 l 258 311 l 490 311 l 375 724 m 464 1187 l 307 1187 l 451 1322 l 663 1322 l 464 1187 m 540 1037 q 527 985 540 1008 q 493 945 515 962 q 441 919 471 928 q 378 910 412 910 q 314 919 344 910 q 263 944 285 928 q 228 984 241 960 q 216 1037 216 1007 q 228 1090 216 1067 q 263 1129 241 1113 q 314 1154 285 1145 q 378 1162 344 1162 q 442 1154 412 1162 q 493 1129 471 1145 q 527 1090 515 1113 q 540 1037 540 1067 m 439 1036 q 422 1074 439 1060 q 378 1087 405 1087 q 333 1074 350 1087 q 316 1036 316 1060 q 333 999 316 1013 q 378 985 350 985 q 422 999 405 985 q 439 1036 439 1013 m 0 886 z "},"Ą":{"ha":764,"x_min":3,"x_max":761,"o":"m 746 -261 q 697 -271 724 -267 q 648 -275 669 -275 q 575 -266 605 -275 q 528 -240 546 -256 q 501 -202 509 -224 q 493 -154 493 -180 q 497 -118 493 -136 q 510 -81 500 -100 q 535 -42 519 -62 q 576 0 551 -22 l 528 175 l 218 175 l 168 0 l 3 0 l 265 886 l 498 886 l 761 0 l 720 0 q 679 -44 694 -26 q 656 -77 664 -63 q 645 -103 648 -92 q 643 -125 643 -115 q 654 -156 643 -146 q 696 -167 665 -167 q 721 -165 707 -167 q 746 -161 735 -163 l 746 -261 m 375 724 l 258 311 l 490 311 l 375 724 z "},"Æ":{"ha":764,"x_min":-28,"x_max":736,"o":"m 399 0 l 399 178 l 191 178 l 126 0 l -28 0 l 311 886 l 729 886 l 729 751 l 547 751 l 547 522 l 718 522 l 718 390 l 547 390 l 547 135 l 736 135 l 736 0 l 399 0 m 399 751 l 236 304 l 399 304 l 399 751 z "},"Ǽ":{"ha":764,"x_min":-28,"x_max":736,"o":"m 399 0 l 399 178 l 191 178 l 126 0 l -28 0 l 311 886 l 729 886 l 729 751 l 547 751 l 547 522 l 718 522 l 718 390 l 547 390 l 547 135 l 736 135 l 736 0 l 399 0 m 399 751 l 236 304 l 399 304 l 399 751 m 492 981 l 326 981 l 478 1133 l 701 1133 l 492 981 m 28 886 z "},"Ć":{"ha":764,"x_min":28,"x_max":701,"o":"m 681 35 q 567 -1 622 11 q 452 -12 511 -12 q 282 16 356 -12 q 158 100 209 44 q 82 238 108 155 q 56 429 56 320 q 84 628 56 541 q 165 775 113 715 q 294 867 218 836 q 464 899 370 899 q 521 897 494 899 q 574 892 548 896 q 626 882 600 888 q 681 867 652 876 l 681 701 q 571 740 623 728 q 476 751 519 751 q 368 729 413 751 q 295 665 323 706 q 252 567 266 624 q 239 443 239 511 q 253 314 239 371 q 296 218 267 258 q 370 158 325 179 q 478 138 416 138 q 527 142 500 138 q 579 154 553 146 q 632 171 606 161 q 681 191 659 180 l 681 35 m 492 981 l 326 981 l 478 1133 l 701 1133 l 492 981 m 28 886 z "},"Ĉ":{"ha":764,"x_min":41,"x_max":681,"o":"m 681 35 q 567 -1 622 11 q 452 -12 511 -12 q 282 16 356 -12 q 158 100 209 44 q 82 238 108 155 q 56 429 56 320 q 84 628 56 541 q 165 775 113 715 q 294 867 218 836 q 464 899 370 899 q 521 897 494 899 q 574 892 548 896 q 626 882 600 888 q 681 867 652 876 l 681 701 q 571 740 623 728 q 476 751 519 751 q 368 729 413 751 q 295 665 323 706 q 252 567 266 624 q 239 443 239 511 q 253 314 239 371 q 296 218 267 258 q 370 158 325 179 q 478 138 416 138 q 527 142 500 138 q 579 154 553 146 q 632 171 606 161 q 681 191 659 180 l 681 35 m 655 981 l 507 981 l 423 1044 l 340 981 l 194 981 l 355 1133 l 494 1133 l 655 981 m 41 886 z "},"Č":{"ha":764,"x_min":41,"x_max":681,"o":"m 681 35 q 567 -1 622 11 q 452 -12 511 -12 q 282 16 356 -12 q 158 100 209 44 q 82 238 108 155 q 56 429 56 320 q 84 628 56 541 q 165 775 113 715 q 294 867 218 836 q 464 899 370 899 q 521 897 494 899 q 574 892 548 896 q 626 882 600 888 q 681 867 652 876 l 681 701 q 571 740 623 728 q 476 751 519 751 q 368 729 413 751 q 295 665 323 706 q 252 567 266 624 q 239 443 239 511 q 253 314 239 371 q 296 218 267 258 q 370 158 325 179 q 478 138 416 138 q 527 142 500 138 q 579 154 553 146 q 632 171 606 161 q 681 191 659 180 l 681 35 m 193 1133 l 341 1133 l 425 1069 l 508 1133 l 654 1133 l 493 981 l 354 981 l 193 1133 m 41 886 z "},"Ċ":{"ha":764,"x_min":41,"x_max":681,"o":"m 681 35 q 567 -1 622 11 q 452 -12 511 -12 q 282 16 356 -12 q 158 100 209 44 q 82 238 108 155 q 56 429 56 320 q 84 628 56 541 q 165 775 113 715 q 294 867 218 836 q 464 899 370 899 q 521 897 494 899 q 574 892 548 896 q 626 882 600 888 q 681 867 652 876 l 681 701 q 571 740 623 728 q 476 751 519 751 q 368 729 413 751 q 295 665 323 706 q 252 567 266 624 q 239 443 239 511 q 253 314 239 371 q 296 218 267 258 q 370 158 325 179 q 478 138 416 138 q 527 142 500 138 q 579 154 553 146 q 632 171 606 161 q 681 191 659 180 l 681 35 m 528 1053 q 520 1013 528 1031 q 498 981 512 994 q 465 959 484 967 q 423 951 446 951 q 383 959 401 951 q 351 981 364 967 q 329 1013 337 994 q 321 1053 321 1031 q 329 1093 321 1074 q 351 1125 337 1112 q 383 1146 364 1139 q 423 1154 401 1154 q 463 1146 444 1154 q 496 1125 482 1139 q 519 1093 511 1112 q 528 1053 528 1074 m 41 886 z "},"Ç":{"ha":764,"x_min":56,"x_max":681,"o":"m 338 0 q 243 34 296 7 q 148 112 191 60 q 80 244 104 163 q 56 429 56 325 q 84 628 56 541 q 165 775 113 715 q 294 867 218 836 q 464 899 370 899 q 521 897 494 899 q 574 892 548 896 q 626 882 600 888 q 681 867 652 876 l 681 701 q 571 740 623 728 q 476 751 519 751 q 368 729 413 751 q 295 665 323 706 q 252 567 266 624 q 239 443 239 511 q 253 314 239 371 q 296 218 267 258 q 370 158 325 179 q 478 138 416 138 q 527 142 500 138 q 579 154 553 146 q 632 171 606 161 q 681 191 659 180 l 681 35 q 575 1 622 11 q 489 -11 528 -9 l 418 -200 l 297 -200 l 338 0 z "},"Ď":{"ha":764,"x_min":-26,"x_max":728,"o":"m 728 454 q 702 267 728 351 q 623 124 677 183 q 485 32 569 64 q 283 0 401 0 l 58 0 l 58 886 l 321 886 q 499 861 422 886 q 626 783 575 836 q 702 648 677 730 q 728 454 728 567 m 549 444 q 537 572 549 515 q 498 667 526 628 q 425 726 471 706 q 310 747 378 747 l 225 747 l 225 140 l 298 140 q 485 213 421 140 q 549 444 549 286 m 125 1133 l 273 1133 l 357 1069 l 440 1133 l 586 1133 l 425 981 l 286 981 l 125 1133 m -26 886 z "},"Ð":{"ha":764,"x_min":0,"x_max":728,"o":"m 0 525 l 72 525 l 72 886 l 321 886 q 499 861 422 886 q 626 783 575 836 q 702 648 677 730 q 728 454 728 567 q 702 267 728 351 q 623 124 677 183 q 485 32 569 64 q 283 0 401 0 l 72 0 l 72 387 l 0 387 l 0 525 m 549 444 q 537 572 549 515 q 498 667 526 628 q 425 726 471 706 q 310 747 378 747 l 239 747 l 239 525 l 396 525 l 396 387 l 239 387 l 239 140 l 298 140 q 485 213 421 140 q 549 444 549 286 z "},"Đ":{"ha":764,"x_min":0,"x_max":728,"o":"m 0 525 l 72 525 l 72 886 l 321 886 q 499 861 422 886 q 626 783 575 836 q 702 648 677 730 q 728 454 728 567 q 702 267 728 351 q 623 124 677 183 q 485 32 569 64 q 283 0 401 0 l 72 0 l 72 387 l 0 387 l 0 525 m 549 444 q 537 572 549 515 q 498 667 526 628 q 425 726 471 706 q 310 747 378 747 l 239 747 l 239 525 l 396 525 l 396 387 l 239 387 l 239 140 l 298 140 q 485 213 421 140 q 549 444 549 286 z "},"È":{"ha":764,"x_min":0,"x_max":659,"o":"m 125 0 l 125 886 l 659 886 l 659 745 l 294 745 l 294 525 l 642 525 l 642 387 l 294 387 l 294 141 l 659 141 l 659 0 l 125 0 m 314 1133 l 465 981 l 300 981 l 90 1133 l 314 1133 m 0 886 z "},"É":{"ha":764,"x_min":0,"x_max":673,"o":"m 125 0 l 125 886 l 659 886 l 659 745 l 294 745 l 294 525 l 642 525 l 642 387 l 294 387 l 294 141 l 659 141 l 659 0 l 125 0 m 464 981 l 298 981 l 450 1133 l 673 1133 l 464 981 m 0 886 z "},"Ê":{"ha":764,"x_min":0,"x_max":659,"o":"m 125 0 l 125 886 l 659 886 l 659 745 l 294 745 l 294 525 l 642 525 l 642 387 l 294 387 l 294 141 l 659 141 l 659 0 l 125 0 m 614 981 l 465 981 l 382 1044 l 298 981 l 153 981 l 314 1133 l 453 1133 l 614 981 m 0 886 z "},"Ě":{"ha":764,"x_min":0,"x_max":659,"o":"m 125 0 l 125 886 l 659 886 l 659 745 l 294 745 l 294 525 l 642 525 l 642 387 l 294 387 l 294 141 l 659 141 l 659 0 l 125 0 m 151 1133 l 300 1133 l 383 1069 l 467 1133 l 612 1133 l 452 981 l 313 981 l 151 1133 m 0 886 z "},"Ë":{"ha":764,"x_min":0,"x_max":659,"o":"m 125 0 l 125 886 l 659 886 l 659 745 l 294 745 l 294 525 l 642 525 l 642 387 l 294 387 l 294 141 l 659 141 l 659 0 l 125 0 m 325 1053 q 318 1017 325 1034 q 298 987 311 1000 q 268 967 285 975 q 232 960 251 960 q 196 967 212 960 q 166 987 179 975 q 146 1017 153 1000 q 139 1053 139 1034 q 146 1089 139 1072 q 166 1119 153 1106 q 196 1139 179 1131 q 232 1146 212 1146 q 268 1139 251 1146 q 298 1119 285 1131 q 318 1089 311 1106 q 325 1053 325 1072 m 625 1053 q 617 1017 625 1034 q 597 987 610 1000 q 568 967 585 975 q 532 960 551 960 q 496 967 513 960 q 466 987 479 975 q 446 1017 454 1000 q 439 1053 439 1034 q 446 1089 439 1072 q 466 1119 454 1106 q 496 1139 479 1131 q 532 1146 513 1146 q 568 1139 551 1146 q 597 1119 585 1131 q 617 1089 610 1106 q 625 1053 625 1072 m 0 886 z "},"Ē":{"ha":764,"x_min":0,"x_max":659,"o":"m 125 0 l 125 886 l 659 886 l 659 745 l 294 745 l 294 525 l 642 525 l 642 387 l 294 387 l 294 141 l 659 141 l 659 0 l 125 0 m 184 991 l 184 1109 l 579 1109 l 579 991 l 184 991 m 0 886 z "},"Ĕ":{"ha":764,"x_min":0,"x_max":659,"o":"m 125 0 l 125 886 l 659 886 l 659 745 l 294 745 l 294 525 l 642 525 l 642 387 l 294 387 l 294 141 l 659 141 l 659 0 l 125 0 m 581 1139 q 569 1074 581 1105 q 532 1019 557 1042 q 469 981 507 995 q 380 966 431 966 q 291 981 328 966 q 230 1020 254 996 q 194 1075 205 1044 q 182 1139 182 1106 l 301 1139 q 306 1116 301 1127 q 320 1096 311 1105 q 345 1081 330 1086 q 382 1075 360 1075 q 443 1093 422 1075 q 463 1139 463 1112 l 581 1139 m 0 886 z "},"Ė":{"ha":764,"x_min":0,"x_max":659,"o":"m 125 0 l 125 886 l 659 886 l 659 745 l 294 745 l 294 525 l 642 525 l 642 387 l 294 387 l 294 141 l 659 141 l 659 0 l 125 0 m 486 1053 q 478 1013 486 1031 q 456 981 471 994 q 423 959 442 967 q 382 951 404 951 q 341 959 360 951 q 309 981 323 967 q 288 1013 296 994 q 279 1053 279 1031 q 288 1093 279 1074 q 309 1125 296 1112 q 341 1146 323 1139 q 382 1154 360 1154 q 422 1146 403 1154 q 455 1125 441 1139 q 478 1093 469 1112 q 486 1053 486 1074 m 0 886 z "},"Ę":{"ha":764,"x_min":125,"x_max":685,"o":"m 685 -261 q 636 -271 663 -267 q 588 -275 609 -275 q 515 -266 545 -275 q 467 -240 485 -256 q 440 -202 448 -224 q 432 -154 432 -180 q 436 -118 432 -136 q 449 -81 439 -100 q 474 -42 458 -62 q 515 0 490 -22 l 125 0 l 125 886 l 659 886 l 659 745 l 294 745 l 294 525 l 642 525 l 642 387 l 294 387 l 294 141 l 659 141 l 659 0 q 618 -44 633 -26 q 595 -77 603 -63 q 584 -103 587 -92 q 582 -125 582 -115 q 593 -156 582 -146 q 635 -167 604 -167 q 660 -165 646 -167 q 685 -161 674 -163 l 685 -261 z "},"Ĝ":{"ha":764,"x_min":32,"x_max":701,"o":"m 386 375 l 386 513 l 701 513 l 701 40 q 574 -2 640 12 q 429 -16 507 -16 q 263 13 337 -16 q 138 98 190 41 q 59 237 87 154 q 32 431 32 321 q 61 629 32 541 q 145 777 90 716 q 280 869 200 838 q 464 901 361 901 q 583 891 525 901 q 699 863 641 880 l 699 698 q 588 737 648 722 q 465 752 527 752 q 355 730 403 752 q 275 669 307 709 q 226 570 243 629 q 210 439 210 512 q 222 312 210 368 q 264 215 235 255 q 338 155 293 176 q 449 134 384 134 q 476 135 465 134 q 498 138 488 136 q 517 142 508 140 q 536 149 526 145 l 536 375 l 386 375 m 655 981 l 507 981 l 423 1044 l 340 981 l 194 981 l 355 1133 l 494 1133 l 655 981 m 41 886 z "},"Ğ":{"ha":764,"x_min":32,"x_max":701,"o":"m 386 375 l 386 513 l 701 513 l 701 40 q 574 -2 640 12 q 429 -16 507 -16 q 263 13 337 -16 q 138 98 190 41 q 59 237 87 154 q 32 431 32 321 q 61 629 32 541 q 145 777 90 716 q 280 869 200 838 q 464 901 361 901 q 583 891 525 901 q 699 863 641 880 l 699 698 q 588 737 648 722 q 465 752 527 752 q 355 730 403 752 q 275 669 307 709 q 226 570 243 629 q 210 439 210 512 q 222 312 210 368 q 264 215 235 255 q 338 155 293 176 q 449 134 384 134 q 476 135 465 134 q 498 138 488 136 q 517 142 508 140 q 536 149 526 145 l 536 375 l 386 375 m 623 1139 q 610 1074 623 1105 q 573 1019 598 1042 q 511 981 549 995 q 421 966 473 966 q 332 981 370 966 q 271 1020 295 996 q 235 1075 247 1044 q 224 1139 224 1106 l 342 1139 q 347 1116 342 1127 q 361 1096 352 1105 q 386 1081 371 1086 q 423 1075 401 1075 q 484 1093 464 1075 q 504 1139 504 1112 l 623 1139 m 41 886 z "},"Ġ":{"ha":764,"x_min":32,"x_max":701,"o":"m 386 375 l 386 513 l 701 513 l 701 40 q 574 -2 640 12 q 429 -16 507 -16 q 263 13 337 -16 q 138 98 190 41 q 59 237 87 154 q 32 431 32 321 q 61 629 32 541 q 145 777 90 716 q 280 869 200 838 q 464 901 361 901 q 583 891 525 901 q 699 863 641 880 l 699 698 q 588 737 648 722 q 465 752 527 752 q 355 730 403 752 q 275 669 307 709 q 226 570 243 629 q 210 439 210 512 q 222 312 210 368 q 264 215 235 255 q 338 155 293 176 q 449 134 384 134 q 476 135 465 134 q 498 138 488 136 q 517 142 508 140 q 536 149 526 145 l 536 375 l 386 375 m 528 1053 q 520 1013 528 1031 q 498 981 512 994 q 465 959 484 967 q 423 951 446 951 q 383 959 401 951 q 351 981 364 967 q 329 1013 337 994 q 321 1053 321 1031 q 329 1093 321 1074 q 351 1125 337 1112 q 383 1146 364 1139 q 423 1154 401 1154 q 463 1146 444 1154 q 496 1125 482 1139 q 519 1093 511 1112 q 528 1053 528 1074 m 41 886 z "},"Ģ":{"ha":764,"x_min":32,"x_max":701,"o":"m 386 375 l 386 513 l 701 513 l 701 40 q 574 -2 640 12 q 429 -16 507 -16 q 263 13 337 -16 q 138 98 190 41 q 59 237 87 154 q 32 431 32 321 q 61 629 32 541 q 145 777 90 716 q 280 869 200 838 q 464 901 361 901 q 583 891 525 901 q 699 863 641 880 l 699 698 q 588 737 648 722 q 465 752 527 752 q 355 730 403 752 q 275 669 307 709 q 226 570 243 629 q 210 439 210 512 q 222 312 210 368 q 264 215 235 255 q 338 155 293 176 q 449 134 384 134 q 476 135 465 134 q 498 138 488 136 q 517 142 508 140 q 536 149 526 145 l 536 375 l 386 375 m 463 -78 l 400 -278 l 269 -278 l 309 -78 l 463 -78 z "},"Ĥ":{"ha":764,"x_min":0,"x_max":699,"o":"m 532 0 l 532 386 l 231 386 l 231 0 l 64 0 l 64 886 l 231 886 l 231 530 l 532 530 l 532 886 l 699 886 l 699 0 l 532 0 m 614 981 l 465 981 l 382 1044 l 298 981 l 153 981 l 314 1133 l 453 1133 l 614 981 m 0 886 z "},"Ħ":{"ha":764,"x_min":14,"x_max":750,"o":"m 519 0 l 519 370 l 246 370 l 246 0 l 79 0 l 79 621 l 14 621 l 14 758 l 79 758 l 79 886 l 246 886 l 246 758 l 519 758 l 519 886 l 686 886 l 686 758 l 750 758 l 750 621 l 686 621 l 686 0 l 519 0 m 519 507 l 519 621 l 246 621 l 246 507 l 519 507 z "},"Ì":{"ha":764,"x_min":0,"x_max":662,"o":"m 102 750 l 102 886 l 662 886 l 662 750 l 467 750 l 467 138 l 662 138 l 662 0 l 102 0 l 102 138 l 297 138 l 297 750 l 102 750 m 314 1133 l 465 981 l 300 981 l 90 1133 l 314 1133 m 0 886 z "},"Í":{"ha":764,"x_min":0,"x_max":673,"o":"m 102 750 l 102 886 l 662 886 l 662 750 l 467 750 l 467 138 l 662 138 l 662 0 l 102 0 l 102 138 l 297 138 l 297 750 l 102 750 m 464 981 l 298 981 l 450 1133 l 673 1133 l 464 981 m 0 886 z "},"Î":{"ha":764,"x_min":0,"x_max":662,"o":"m 102 750 l 102 886 l 662 886 l 662 750 l 467 750 l 467 138 l 662 138 l 662 0 l 102 0 l 102 138 l 297 138 l 297 750 l 102 750 m 614 981 l 465 981 l 382 1044 l 298 981 l 153 981 l 314 1133 l 453 1133 l 614 981 m 0 886 z "},"Ĩ":{"ha":764,"x_min":0,"x_max":662,"o":"m 102 750 l 102 886 l 662 886 l 662 750 l 467 750 l 467 138 l 662 138 l 662 0 l 102 0 l 102 138 l 297 138 l 297 750 l 102 750 m 637 1071 q 571 990 609 1017 q 478 964 533 964 q 411 975 438 964 q 362 999 383 985 q 322 1023 340 1012 q 282 1034 304 1034 q 238 1018 257 1034 q 200 972 219 1002 l 126 1043 q 193 1124 155 1098 q 286 1150 231 1150 q 354 1139 326 1150 q 402 1115 381 1128 q 442 1091 424 1102 q 482 1080 460 1080 q 526 1096 507 1080 q 564 1141 545 1112 l 637 1071 m 0 886 z "},"Ï":{"ha":764,"x_min":0,"x_max":662,"o":"m 102 750 l 102 886 l 662 886 l 662 750 l 467 750 l 467 138 l 662 138 l 662 0 l 102 0 l 102 138 l 297 138 l 297 750 l 102 750 m 325 1053 q 318 1017 325 1034 q 298 987 311 1000 q 268 967 285 975 q 232 960 251 960 q 196 967 212 960 q 166 987 179 975 q 146 1017 153 1000 q 139 1053 139 1034 q 146 1089 139 1072 q 166 1119 153 1106 q 196 1139 179 1131 q 232 1146 212 1146 q 268 1139 251 1146 q 298 1119 285 1131 q 318 1089 311 1106 q 325 1053 325 1072 m 625 1053 q 617 1017 625 1034 q 597 987 610 1000 q 568 967 585 975 q 532 960 551 960 q 496 967 513 960 q 466 987 479 975 q 446 1017 454 1000 q 439 1053 439 1034 q 446 1089 439 1072 q 466 1119 454 1106 q 496 1139 479 1131 q 532 1146 513 1146 q 568 1139 551 1146 q 597 1119 585 1131 q 617 1089 610 1106 q 625 1053 625 1072 m 0 886 z "},"Ī":{"ha":764,"x_min":0,"x_max":662,"o":"m 102 750 l 102 886 l 662 886 l 662 750 l 467 750 l 467 138 l 662 138 l 662 0 l 102 0 l 102 138 l 297 138 l 297 750 l 102 750 m 184 991 l 184 1109 l 579 1109 l 579 991 l 184 991 m 0 886 z "},"Ĭ":{"ha":764,"x_min":0,"x_max":662,"o":"m 102 750 l 102 886 l 662 886 l 662 750 l 467 750 l 467 138 l 662 138 l 662 0 l 102 0 l 102 138 l 297 138 l 297 750 l 102 750 m 581 1139 q 569 1074 581 1105 q 532 1019 557 1042 q 469 981 507 995 q 380 966 431 966 q 291 981 328 966 q 230 1020 254 996 q 194 1075 205 1044 q 182 1139 182 1106 l 301 1139 q 306 1116 301 1127 q 320 1096 311 1105 q 345 1081 330 1086 q 382 1075 360 1075 q 443 1093 422 1075 q 463 1139 463 1112 l 581 1139 m 0 886 z "},"İ":{"ha":764,"x_min":0,"x_max":662,"o":"m 102 750 l 102 886 l 662 886 l 662 750 l 467 750 l 467 138 l 662 138 l 662 0 l 102 0 l 102 138 l 297 138 l 297 750 l 102 750 m 486 1053 q 478 1013 486 1031 q 456 981 471 994 q 423 959 442 967 q 382 951 404 951 q 341 959 360 951 q 309 981 323 967 q 288 1013 296 994 q 279 1053 279 1031 q 288 1093 279 1074 q 309 1125 296 1112 q 341 1146 323 1139 q 382 1154 360 1154 q 422 1146 403 1154 q 455 1125 441 1139 q 478 1093 469 1112 q 486 1053 486 1074 m 0 886 z "},"Į":{"ha":764,"x_min":102,"x_max":689,"o":"m 689 -261 q 640 -271 667 -267 q 592 -275 613 -275 q 519 -266 549 -275 q 471 -240 489 -256 q 444 -202 452 -224 q 436 -154 436 -180 q 440 -118 436 -136 q 453 -81 444 -100 q 478 -42 463 -62 q 519 0 494 -22 l 102 0 l 102 138 l 297 138 l 297 750 l 102 750 l 102 886 l 663 886 l 663 750 l 467 750 l 467 138 l 663 138 l 663 0 q 622 -44 637 -26 q 599 -77 607 -63 q 588 -103 591 -92 q 586 -125 586 -115 q 597 -156 586 -146 q 639 -167 608 -167 q 664 -165 650 -167 q 689 -161 678 -163 l 689 -261 z "},"Ĳ":{"ha":764,"x_min":65,"x_max":700,"o":"m 232 0 l 65 0 l 65 886 l 232 886 l 232 0 m 700 220 q 684 130 700 172 q 637 56 668 87 q 563 7 607 25 q 461 -11 518 -11 q 390 -5 425 -11 q 325 13 355 1 l 325 160 q 382 138 350 146 q 448 130 415 130 q 477 134 463 130 q 505 150 492 139 q 525 180 517 161 q 533 228 533 199 l 533 886 l 700 886 l 700 220 z "},"Ĵ":{"ha":764,"x_min":0,"x_max":614,"o":"m 614 265 q 594 151 614 203 q 536 63 574 100 q 442 6 498 26 q 311 -14 386 -14 q 205 -1 256 -14 q 117 32 155 12 l 117 193 q 156 167 134 179 q 205 145 179 155 q 258 131 231 136 q 311 126 285 126 q 358 134 334 126 q 401 161 382 142 q 432 211 420 180 q 444 288 444 242 l 444 749 l 123 749 l 123 886 l 614 886 l 614 265 m 614 981 l 465 981 l 382 1044 l 298 981 l 153 981 l 314 1133 l 453 1133 l 614 981 m 0 886 z "},"Ķ":{"ha":764,"x_min":87,"x_max":739,"o":"m 524 0 l 257 429 l 257 0 l 87 0 l 87 886 l 257 886 l 257 483 l 522 886 l 724 886 l 422 464 l 739 0 l 524 0 m 463 -78 l 400 -278 l 269 -278 l 309 -78 l 463 -78 z "},"Ĺ":{"ha":764,"x_min":0,"x_max":677,"o":"m 134 0 l 134 886 l 303 886 l 303 143 l 677 143 l 677 0 l 134 0 m 464 981 l 298 981 l 450 1133 l 673 1133 l 464 981 m 0 886 z "},"Ľ":{"ha":764,"x_min":-165,"x_max":692,"o":"m 134 0 l 134 886 l 303 886 l 303 143 l 677 143 l 677 0 l 134 0 m 611 781 l 480 781 l 533 1010 l 692 1010 l 611 781 m -165 689 z "},"Ļ":{"ha":764,"x_min":134,"x_max":677,"o":"m 134 0 l 134 886 l 303 886 l 303 143 l 677 143 l 677 0 l 134 0 m 490 -78 l 428 -278 l 297 -278 l 336 -78 l 490 -78 z "},"Ł":{"ha":764,"x_min":24,"x_max":692,"o":"m 315 143 l 692 143 l 692 0 l 146 0 l 146 374 l 24 311 l 24 456 l 146 518 l 146 886 l 315 886 l 315 605 l 555 728 l 555 583 l 315 460 l 315 143 z "},"Ŀ":{"ha":764,"x_min":107,"x_max":764,"o":"m 107 0 l 107 886 l 277 886 l 277 143 l 651 143 l 651 0 l 107 0 m 631 555 q 684 545 659 555 q 726 516 708 534 q 754 474 744 498 q 764 422 764 450 q 754 371 764 395 q 726 329 744 347 q 684 301 708 311 q 631 290 659 290 q 580 301 604 290 q 538 329 556 311 q 511 371 521 347 q 500 422 500 395 q 511 474 500 450 q 538 516 521 498 q 580 545 556 534 q 631 555 604 555 z "},"Ń":{"ha":764,"x_min":0,"x_max":705,"o":"m 502 0 l 264 529 l 216 643 l 216 275 l 216 0 l 64 0 l 64 886 l 269 886 l 511 354 l 553 250 l 553 642 l 553 886 l 705 886 l 705 0 l 502 0 m 464 981 l 298 981 l 450 1133 l 673 1133 l 464 981 m 0 886 z "},"Ň":{"ha":764,"x_min":0,"x_max":705,"o":"m 502 0 l 264 529 l 216 643 l 216 275 l 216 0 l 64 0 l 64 886 l 269 886 l 511 354 l 553 250 l 553 642 l 553 886 l 705 886 l 705 0 l 502 0 m 151 1133 l 300 1133 l 383 1069 l 467 1133 l 612 1133 l 452 981 l 313 981 l 151 1133 m 0 886 z "},"Ñ":{"ha":764,"x_min":0,"x_max":705,"o":"m 502 0 l 264 529 l 216 643 l 216 275 l 216 0 l 64 0 l 64 886 l 269 886 l 511 354 l 553 250 l 553 642 l 553 886 l 705 886 l 705 0 l 502 0 m 637 1071 q 571 990 609 1017 q 478 964 533 964 q 411 975 438 964 q 362 999 383 985 q 322 1023 340 1012 q 282 1034 304 1034 q 238 1018 257 1034 q 200 972 219 1002 l 126 1043 q 193 1124 155 1098 q 286 1150 231 1150 q 354 1139 326 1150 q 402 1115 381 1128 q 442 1091 424 1102 q 482 1080 460 1080 q 526 1096 507 1080 q 564 1141 545 1112 l 637 1071 m 0 886 z "},"Ņ":{"ha":764,"x_min":64,"x_max":705,"o":"m 502 0 l 264 529 l 216 643 l 216 275 l 216 0 l 64 0 l 64 886 l 269 886 l 511 354 l 553 250 l 553 642 l 553 886 l 705 886 l 705 0 l 502 0 m 463 -78 l 400 -278 l 269 -278 l 309 -78 l 463 -78 z "},"Ŋ":{"ha":764,"x_min":64,"x_max":705,"o":"m 705 1 q 683 -131 705 -76 q 618 -219 660 -185 q 518 -269 577 -254 q 385 -285 458 -285 l 385 -153 q 499 -118 460 -153 q 538 0 538 -83 l 216 643 l 216 553 l 216 0 l 64 0 l 64 886 l 259 886 l 524 368 l 553 304 l 553 378 l 553 886 l 705 886 l 705 1 z "},"Ò":{"ha":764,"x_min":0,"x_max":739,"o":"m 739 447 q 710 239 739 326 q 633 95 682 151 q 518 12 584 39 q 376 -16 452 -16 q 113 101 201 -16 q 25 439 25 217 q 53 647 25 559 q 131 791 81 734 q 246 874 180 847 q 387 901 312 901 q 650 785 562 901 q 739 447 739 669 m 562 439 q 520 673 562 596 q 382 751 478 751 q 300 731 334 751 q 244 672 266 711 q 212 577 222 633 q 201 447 201 520 q 244 212 201 290 q 382 135 286 135 q 464 155 430 135 q 520 214 498 175 q 552 309 542 252 q 562 439 562 366 m 314 1133 l 465 981 l 300 981 l 90 1133 l 314 1133 m 0 886 z "},"Ó":{"ha":764,"x_min":0,"x_max":739,"o":"m 739 447 q 710 239 739 326 q 633 95 682 151 q 518 12 584 39 q 376 -16 452 -16 q 113 101 201 -16 q 25 439 25 217 q 53 647 25 559 q 131 791 81 734 q 246 874 180 847 q 387 901 312 901 q 650 785 562 901 q 739 447 739 669 m 562 439 q 520 673 562 596 q 382 751 478 751 q 300 731 334 751 q 244 672 266 711 q 212 577 222 633 q 201 447 201 520 q 244 212 201 290 q 382 135 286 135 q 464 155 430 135 q 520 214 498 175 q 552 309 542 252 q 562 439 562 366 m 464 981 l 298 981 l 450 1133 l 673 1133 l 464 981 m 0 886 z "},"Ô":{"ha":764,"x_min":0,"x_max":739,"o":"m 739 447 q 710 239 739 326 q 633 95 682 151 q 518 12 584 39 q 376 -16 452 -16 q 113 101 201 -16 q 25 439 25 217 q 53 647 25 559 q 131 791 81 734 q 246 874 180 847 q 387 901 312 901 q 650 785 562 901 q 739 447 739 669 m 562 439 q 520 673 562 596 q 382 751 478 751 q 300 731 334 751 q 244 672 266 711 q 212 577 222 633 q 201 447 201 520 q 244 212 201 290 q 382 135 286 135 q 464 155 430 135 q 520 214 498 175 q 552 309 542 252 q 562 439 562 366 m 614 981 l 465 981 l 382 1044 l 298 981 l 153 981 l 314 1133 l 453 1133 l 614 981 m 0 886 z "},"Õ":{"ha":764,"x_min":0,"x_max":739,"o":"m 739 447 q 710 239 739 326 q 633 95 682 151 q 518 12 584 39 q 376 -16 452 -16 q 113 101 201 -16 q 25 439 25 217 q 53 647 25 559 q 131 791 81 734 q 246 874 180 847 q 387 901 312 901 q 650 785 562 901 q 739 447 739 669 m 562 439 q 520 673 562 596 q 382 751 478 751 q 300 731 334 751 q 244 672 266 711 q 212 577 222 633 q 201 447 201 520 q 244 212 201 290 q 382 135 286 135 q 464 155 430 135 q 520 214 498 175 q 552 309 542 252 q 562 439 562 366 m 637 1071 q 571 990 609 1017 q 478 964 533 964 q 411 975 438 964 q 362 999 383 985 q 322 1023 340 1012 q 282 1034 304 1034 q 238 1018 257 1034 q 200 972 219 1002 l 126 1043 q 193 1124 155 1098 q 286 1150 231 1150 q 354 1139 326 1150 q 402 1115 381 1128 q 442 1091 424 1102 q 482 1080 460 1080 q 526 1096 507 1080 q 564 1141 545 1112 l 637 1071 m 0 886 z "},"Ö":{"ha":764,"x_min":0,"x_max":739,"o":"m 739 447 q 710 239 739 326 q 633 95 682 151 q 518 12 584 39 q 376 -16 452 -16 q 113 101 201 -16 q 25 439 25 217 q 53 647 25 559 q 131 791 81 734 q 246 874 180 847 q 387 901 312 901 q 650 785 562 901 q 739 447 739 669 m 562 439 q 520 673 562 596 q 382 751 478 751 q 300 731 334 751 q 244 672 266 711 q 212 577 222 633 q 201 447 201 520 q 244 212 201 290 q 382 135 286 135 q 464 155 430 135 q 520 214 498 175 q 552 309 542 252 q 562 439 562 366 m 325 1053 q 318 1017 325 1034 q 298 987 311 1000 q 268 967 285 975 q 232 960 251 960 q 196 967 212 960 q 166 987 179 975 q 146 1017 153 1000 q 139 1053 139 1034 q 146 1089 139 1072 q 166 1119 153 1106 q 196 1139 179 1131 q 232 1146 212 1146 q 268 1139 251 1146 q 298 1119 285 1131 q 318 1089 311 1106 q 325 1053 325 1072 m 625 1053 q 617 1017 625 1034 q 597 987 610 1000 q 568 967 585 975 q 532 960 551 960 q 496 967 513 960 q 466 987 479 975 q 446 1017 454 1000 q 439 1053 439 1034 q 446 1089 439 1072 q 466 1119 454 1106 q 496 1139 479 1131 q 532 1146 513 1146 q 568 1139 551 1146 q 597 1119 585 1131 q 617 1089 610 1106 q 625 1053 625 1072 m 0 886 z "},"Ō":{"ha":764,"x_min":0,"x_max":739,"o":"m 739 447 q 710 239 739 326 q 633 95 682 151 q 518 12 584 39 q 376 -16 452 -16 q 113 101 201 -16 q 25 439 25 217 q 53 647 25 559 q 131 791 81 734 q 246 874 180 847 q 387 901 312 901 q 650 785 562 901 q 739 447 739 669 m 562 439 q 520 673 562 596 q 382 751 478 751 q 300 731 334 751 q 244 672 266 711 q 212 577 222 633 q 201 447 201 520 q 244 212 201 290 q 382 135 286 135 q 464 155 430 135 q 520 214 498 175 q 552 309 542 252 q 562 439 562 366 m 184 991 l 184 1109 l 579 1109 l 579 991 l 184 991 m 0 886 z "},"Ŏ":{"ha":764,"x_min":0,"x_max":739,"o":"m 739 447 q 710 239 739 326 q 633 95 682 151 q 518 12 584 39 q 376 -16 452 -16 q 113 101 201 -16 q 25 439 25 217 q 53 647 25 559 q 131 791 81 734 q 246 874 180 847 q 387 901 312 901 q 650 785 562 901 q 739 447 739 669 m 562 439 q 520 673 562 596 q 382 751 478 751 q 300 731 334 751 q 244 672 266 711 q 212 577 222 633 q 201 447 201 520 q 244 212 201 290 q 382 135 286 135 q 464 155 430 135 q 520 214 498 175 q 552 309 542 252 q 562 439 562 366 m 581 1139 q 569 1074 581 1105 q 532 1019 557 1042 q 469 981 507 995 q 380 966 431 966 q 291 981 328 966 q 230 1020 254 996 q 194 1075 205 1044 q 182 1139 182 1106 l 301 1139 q 306 1116 301 1127 q 320 1096 311 1105 q 345 1081 330 1086 q 382 1075 360 1075 q 443 1093 422 1075 q 463 1139 463 1112 l 581 1139 m 0 886 z "},"Ő":{"ha":764,"x_min":0,"x_max":800,"o":"m 739 447 q 710 239 739 326 q 633 95 682 151 q 518 12 584 39 q 376 -16 452 -16 q 113 101 201 -16 q 25 439 25 217 q 53 647 25 559 q 131 791 81 734 q 246 874 180 847 q 387 901 312 901 q 650 785 562 901 q 739 447 739 669 m 562 439 q 520 673 562 596 q 382 751 478 751 q 300 731 334 751 q 244 672 266 711 q 212 577 222 633 q 201 447 201 520 q 244 212 201 290 q 382 135 286 135 q 464 155 430 135 q 520 214 498 175 q 552 309 542 252 q 562 439 562 366 m 513 1133 l 317 981 l 170 981 l 315 1133 l 513 1133 m 800 1133 l 583 981 l 432 981 l 590 1133 l 800 1133 m 0 886 z "},"Ø":{"ha":764,"x_min":25,"x_max":739,"o":"m 739 453 q 711 244 739 333 q 635 98 683 156 q 521 13 587 41 q 380 -16 456 -16 q 342 -14 361 -16 q 306 -8 323 -12 l 262 -146 l 129 -146 l 186 35 q 66 186 106 86 q 25 435 25 287 q 53 642 25 554 q 129 787 80 730 q 242 873 177 845 q 383 901 308 901 q 422 900 403 901 q 458 895 441 898 l 501 1032 l 635 1032 l 576 850 q 698 699 657 799 q 739 453 739 598 m 568 439 q 557 581 568 520 q 524 682 547 642 l 350 133 q 367 130 358 130 q 386 130 376 130 q 469 151 434 130 q 525 212 503 172 q 557 309 547 252 q 568 439 568 366 m 196 448 q 206 306 196 366 q 240 206 216 246 l 412 753 q 397 755 405 755 q 380 756 389 756 q 298 735 332 756 q 240 674 263 714 q 207 577 218 635 q 196 448 196 520 z "},"Ǿ":{"ha":764,"x_min":-138,"x_max":739,"o":"m 739 453 q 711 244 739 333 q 635 98 683 156 q 521 13 587 41 q 380 -16 456 -16 q 342 -14 361 -16 q 306 -8 323 -12 l 262 -146 l 129 -146 l 186 35 q 66 186 106 86 q 25 435 25 287 q 53 642 25 554 q 129 787 80 730 q 242 873 177 845 q 383 901 308 901 q 422 900 403 901 q 458 895 441 898 l 501 1032 l 635 1032 l 576 850 q 698 699 657 799 q 739 453 739 598 m 568 439 q 557 581 568 520 q 524 682 547 642 l 350 133 q 367 130 358 130 q 386 130 376 130 q 469 151 434 130 q 525 212 503 172 q 557 309 547 252 q 568 439 568 366 m 196 448 q 206 306 196 366 q 240 206 216 246 l 412 753 q 397 755 405 755 q 380 756 389 756 q 298 735 332 756 q 240 674 263 714 q 207 577 218 635 q 196 448 196 520 m 326 981 l 161 981 l 313 1133 l 536 1133 l 326 981 m -138 886 z "},"Œ":{"ha":764,"x_min":18,"x_max":746,"o":"m 505 0 q 460 -2 479 0 q 421 -6 440 -4 q 384 -10 403 -8 q 340 -12 364 -12 q 194 17 255 -12 q 94 104 133 46 q 37 246 55 161 q 18 441 18 330 q 43 648 18 562 q 112 790 68 734 q 216 872 156 846 q 347 899 276 899 q 395 897 375 899 q 432 892 415 895 q 465 888 449 890 q 500 886 481 886 l 746 886 l 746 753 l 550 753 l 550 522 l 730 522 l 730 393 l 550 393 l 550 134 l 746 134 l 746 0 l 505 0 m 395 751 q 375 756 385 755 q 345 757 364 757 q 273 734 302 757 q 224 670 243 711 q 196 572 205 629 q 187 444 187 514 q 196 310 187 369 q 223 212 204 252 q 274 151 243 172 q 349 130 304 130 q 377 132 366 130 q 395 137 387 134 l 395 751 z "},"Þ":{"ha":764,"x_min":92,"x_max":707,"o":"m 532 473 q 487 584 532 543 q 347 626 441 626 l 260 626 l 260 301 l 353 301 q 429 313 396 301 q 485 348 463 326 q 520 402 508 370 q 532 473 532 434 m 260 764 l 351 764 q 504 745 437 764 q 615 690 570 726 q 683 602 660 654 q 707 482 707 550 q 684 354 707 413 q 615 253 661 296 q 502 186 570 210 q 345 163 434 163 l 260 163 l 260 0 l 92 0 l 92 886 l 260 886 l 260 764 z "},"Ŕ":{"ha":764,"x_min":-26,"x_max":730,"o":"m 534 0 l 410 285 q 360 346 392 326 q 286 367 329 367 l 254 367 l 254 0 l 87 0 l 87 886 l 346 886 q 479 874 419 886 q 581 832 538 861 q 645 756 623 803 q 668 642 668 709 q 654 555 668 593 q 614 489 640 517 q 552 445 588 462 q 475 421 517 428 q 534 384 507 414 q 589 297 562 354 l 730 0 l 534 0 m 493 625 q 452 719 493 690 q 328 747 410 747 l 254 747 l 254 497 l 322 497 q 392 505 361 497 q 446 530 424 513 q 481 570 469 546 q 493 625 493 594 m 437 981 l 272 981 l 424 1133 l 647 1133 l 437 981 m -26 886 z "},"Ř":{"ha":764,"x_min":-26,"x_max":730,"o":"m 534 0 l 410 285 q 360 346 392 326 q 286 367 329 367 l 254 367 l 254 0 l 87 0 l 87 886 l 346 886 q 479 874 419 886 q 581 832 538 861 q 645 756 623 803 q 668 642 668 709 q 654 555 668 593 q 614 489 640 517 q 552 445 588 462 q 475 421 517 428 q 534 384 507 414 q 589 297 562 354 l 730 0 l 534 0 m 493 625 q 452 719 493 690 q 328 747 410 747 l 254 747 l 254 497 l 322 497 q 392 505 361 497 q 446 530 424 513 q 481 570 469 546 q 493 625 493 594 m 125 1133 l 273 1133 l 357 1069 l 440 1133 l 586 1133 l 425 981 l 286 981 l 125 1133 m -26 886 z "},"Ŗ":{"ha":764,"x_min":87,"x_max":730,"o":"m 534 0 l 410 285 q 360 346 392 326 q 286 367 329 367 l 254 367 l 254 0 l 87 0 l 87 886 l 346 886 q 479 874 419 886 q 581 832 538 861 q 645 756 623 803 q 668 642 668 709 q 654 555 668 593 q 614 489 640 517 q 552 445 588 462 q 475 421 517 428 q 534 384 507 414 q 589 297 562 354 l 730 0 l 534 0 m 493 625 q 452 719 493 690 q 328 747 410 747 l 254 747 l 254 497 l 322 497 q 392 505 361 497 q 446 530 424 513 q 481 570 469 546 q 493 625 493 594 m 463 -78 l 400 -278 l 269 -278 l 309 -78 l 463 -78 z "},"Ś":{"ha":764,"x_min":0,"x_max":692,"o":"m 692 268 q 665 142 692 195 q 590 53 638 88 q 475 1 542 18 q 330 -16 409 -16 q 195 -7 260 -16 q 66 20 130 1 l 66 184 q 132 164 98 174 q 200 148 165 155 q 268 136 234 140 q 334 132 302 132 q 414 140 381 132 q 469 163 448 149 q 499 197 490 177 q 509 240 509 216 q 490 295 509 273 q 441 334 471 317 q 371 364 410 351 q 292 393 332 378 q 213 429 252 409 q 143 477 174 448 q 94 547 113 507 q 75 644 75 587 q 94 743 75 696 q 154 825 113 790 q 258 881 195 860 q 412 901 322 901 q 468 899 439 901 q 525 893 496 897 q 579 884 553 889 q 627 873 605 879 l 627 721 q 579 736 605 729 q 526 748 553 743 q 471 755 498 753 q 418 758 443 758 q 343 751 374 758 q 293 731 313 744 q 264 701 273 719 q 256 660 256 682 q 274 612 256 632 q 324 576 293 592 q 394 546 355 560 q 474 516 433 532 q 554 480 515 500 q 624 431 593 460 q 673 362 654 401 q 692 268 692 322 m 464 981 l 298 981 l 450 1133 l 673 1133 l 464 981 m 0 886 z "},"Ŝ":{"ha":764,"x_min":0,"x_max":692,"o":"m 692 268 q 665 142 692 195 q 590 53 638 88 q 475 1 542 18 q 330 -16 409 -16 q 195 -7 260 -16 q 66 20 130 1 l 66 184 q 132 164 98 174 q 200 148 165 155 q 268 136 234 140 q 334 132 302 132 q 414 140 381 132 q 469 163 448 149 q 499 197 490 177 q 509 240 509 216 q 490 295 509 273 q 441 334 471 317 q 371 364 410 351 q 292 393 332 378 q 213 429 252 409 q 143 477 174 448 q 94 547 113 507 q 75 644 75 587 q 94 743 75 696 q 154 825 113 790 q 258 881 195 860 q 412 901 322 901 q 468 899 439 901 q 525 893 496 897 q 579 884 553 889 q 627 873 605 879 l 627 721 q 579 736 605 729 q 526 748 553 743 q 471 755 498 753 q 418 758 443 758 q 343 751 374 758 q 293 731 313 744 q 264 701 273 719 q 256 660 256 682 q 274 612 256 632 q 324 576 293 592 q 394 546 355 560 q 474 516 433 532 q 554 480 515 500 q 624 431 593 460 q 673 362 654 401 q 692 268 692 322 m 614 981 l 465 981 l 382 1044 l 298 981 l 153 981 l 314 1133 l 453 1133 l 614 981 m 0 886 z "},"Š":{"ha":764,"x_min":0,"x_max":692,"o":"m 692 268 q 665 142 692 195 q 590 53 638 88 q 475 1 542 18 q 330 -16 409 -16 q 195 -7 260 -16 q 66 20 130 1 l 66 184 q 132 164 98 174 q 200 148 165 155 q 268 136 234 140 q 334 132 302 132 q 414 140 381 132 q 469 163 448 149 q 499 197 490 177 q 509 240 509 216 q 490 295 509 273 q 441 334 471 317 q 371 364 410 351 q 292 393 332 378 q 213 429 252 409 q 143 477 174 448 q 94 547 113 507 q 75 644 75 587 q 94 743 75 696 q 154 825 113 790 q 258 881 195 860 q 412 901 322 901 q 468 899 439 901 q 525 893 496 897 q 579 884 553 889 q 627 873 605 879 l 627 721 q 579 736 605 729 q 526 748 553 743 q 471 755 498 753 q 418 758 443 758 q 343 751 374 758 q 293 731 313 744 q 264 701 273 719 q 256 660 256 682 q 274 612 256 632 q 324 576 293 592 q 394 546 355 560 q 474 516 433 532 q 554 480 515 500 q 624 431 593 460 q 673 362 654 401 q 692 268 692 322 m 151 1133 l 300 1133 l 383 1069 l 467 1133 l 612 1133 l 452 981 l 313 981 l 151 1133 m 0 886 z "},"Ş":{"ha":764,"x_min":66,"x_max":692,"o":"m 692 268 q 674 164 692 210 q 626 85 657 119 q 550 29 594 52 q 451 -4 505 7 l 378 -200 l 257 -200 l 295 -15 q 179 -5 235 -14 q 66 20 122 3 l 66 184 q 132 164 98 174 q 200 148 165 155 q 268 136 234 140 q 334 132 302 132 q 414 140 381 132 q 469 163 448 149 q 499 197 490 177 q 509 240 509 216 q 490 295 509 273 q 441 334 471 317 q 371 364 410 351 q 292 393 332 378 q 213 429 252 409 q 143 477 174 448 q 94 547 113 507 q 75 644 75 587 q 94 743 75 696 q 154 825 113 790 q 258 881 195 860 q 412 901 322 901 q 468 899 439 901 q 525 893 496 897 q 579 884 553 889 q 627 873 605 879 l 627 721 q 579 736 605 729 q 526 748 553 743 q 471 755 498 753 q 418 758 443 758 q 343 751 374 758 q 293 731 313 744 q 264 701 273 719 q 256 660 256 682 q 274 612 256 632 q 324 576 293 592 q 394 546 355 560 q 474 516 433 532 q 554 480 515 500 q 624 431 593 460 q 673 362 654 401 q 692 268 692 322 z "},"Ș":{"ha":764,"x_min":66,"x_max":692,"o":"m 692 268 q 665 142 692 195 q 590 53 638 88 q 475 1 542 18 q 330 -16 409 -16 q 195 -7 260 -16 q 66 20 130 1 l 66 184 q 132 164 98 174 q 200 148 165 155 q 268 136 234 140 q 334 132 302 132 q 414 140 381 132 q 469 163 448 149 q 499 197 490 177 q 509 240 509 216 q 490 295 509 273 q 441 334 471 317 q 371 364 410 351 q 292 393 332 378 q 213 429 252 409 q 143 477 174 448 q 94 547 113 507 q 75 644 75 587 q 94 743 75 696 q 154 825 113 790 q 258 881 195 860 q 412 901 322 901 q 468 899 439 901 q 525 893 496 897 q 579 884 553 889 q 627 873 605 879 l 627 721 q 579 736 605 729 q 526 748 553 743 q 471 755 498 753 q 418 758 443 758 q 343 751 374 758 q 293 731 313 744 q 264 701 273 719 q 256 660 256 682 q 274 612 256 632 q 324 576 293 592 q 394 546 355 560 q 474 516 433 532 q 554 480 515 500 q 624 431 593 460 q 673 362 654 401 q 692 268 692 322 m 463 -78 l 400 -278 l 269 -278 l 309 -78 l 463 -78 z "},"Ť":{"ha":764,"x_min":0,"x_max":710,"o":"m 467 747 l 467 0 l 296 0 l 296 747 l 54 747 l 54 886 l 710 886 l 710 747 l 467 747 m 151 1133 l 300 1133 l 383 1069 l 467 1133 l 612 1133 l 452 981 l 313 981 l 151 1133 m 0 886 z "},"Ț":{"ha":764,"x_min":54,"x_max":710,"o":"m 467 747 l 467 0 l 296 0 l 296 747 l 54 747 l 54 886 l 710 886 l 710 747 l 467 747 m 463 -78 l 400 -278 l 269 -278 l 309 -78 l 463 -78 z "},"Ŧ":{"ha":764,"x_min":54,"x_max":710,"o":"m 467 747 l 467 500 l 629 500 l 629 363 l 467 363 l 467 0 l 296 0 l 296 363 l 136 363 l 136 500 l 296 500 l 296 747 l 54 747 l 54 886 l 710 886 l 710 747 l 467 747 z "},"Ù":{"ha":764,"x_min":0,"x_max":705,"o":"m 705 326 q 682 177 705 241 q 617 71 659 113 q 513 6 574 28 q 376 -16 452 -16 q 230 6 291 -16 q 131 68 169 28 q 76 168 93 109 q 59 298 59 226 l 59 886 l 226 886 l 226 309 q 234 229 226 264 q 261 171 241 195 q 309 134 280 146 q 382 122 338 122 q 452 133 424 122 q 500 166 481 143 q 528 227 519 190 q 538 315 538 263 l 538 886 l 705 886 l 705 326 m 314 1133 l 465 981 l 300 981 l 90 1133 l 314 1133 m 0 886 z "},"Ú":{"ha":764,"x_min":0,"x_max":705,"o":"m 705 326 q 682 177 705 241 q 617 71 659 113 q 513 6 574 28 q 376 -16 452 -16 q 230 6 291 -16 q 131 68 169 28 q 76 168 93 109 q 59 298 59 226 l 59 886 l 226 886 l 226 309 q 234 229 226 264 q 261 171 241 195 q 309 134 280 146 q 382 122 338 122 q 452 133 424 122 q 500 166 481 143 q 528 227 519 190 q 538 315 538 263 l 538 886 l 705 886 l 705 326 m 464 981 l 298 981 l 450 1133 l 673 1133 l 464 981 m 0 886 z "},"Û":{"ha":764,"x_min":0,"x_max":705,"o":"m 705 326 q 682 177 705 241 q 617 71 659 113 q 513 6 574 28 q 376 -16 452 -16 q 230 6 291 -16 q 131 68 169 28 q 76 168 93 109 q 59 298 59 226 l 59 886 l 226 886 l 226 309 q 234 229 226 264 q 261 171 241 195 q 309 134 280 146 q 382 122 338 122 q 452 133 424 122 q 500 166 481 143 q 528 227 519 190 q 538 315 538 263 l 538 886 l 705 886 l 705 326 m 614 981 l 465 981 l 382 1044 l 298 981 l 153 981 l 314 1133 l 453 1133 l 614 981 m 0 886 z "},"Ũ":{"ha":764,"x_min":0,"x_max":705,"o":"m 705 326 q 682 177 705 241 q 617 71 659 113 q 513 6 574 28 q 376 -16 452 -16 q 230 6 291 -16 q 131 68 169 28 q 76 168 93 109 q 59 298 59 226 l 59 886 l 226 886 l 226 309 q 234 229 226 264 q 261 171 241 195 q 309 134 280 146 q 382 122 338 122 q 452 133 424 122 q 500 166 481 143 q 528 227 519 190 q 538 315 538 263 l 538 886 l 705 886 l 705 326 m 637 1071 q 571 990 609 1017 q 478 964 533 964 q 411 975 438 964 q 362 999 383 985 q 322 1023 340 1012 q 282 1034 304 1034 q 238 1018 257 1034 q 200 972 219 1002 l 126 1043 q 193 1124 155 1098 q 286 1150 231 1150 q 354 1139 326 1150 q 402 1115 381 1128 q 442 1091 424 1102 q 482 1080 460 1080 q 526 1096 507 1080 q 564 1141 545 1112 l 637 1071 m 0 886 z "},"Ü":{"ha":764,"x_min":0,"x_max":705,"o":"m 705 326 q 682 177 705 241 q 617 71 659 113 q 513 6 574 28 q 376 -16 452 -16 q 230 6 291 -16 q 131 68 169 28 q 76 168 93 109 q 59 298 59 226 l 59 886 l 226 886 l 226 309 q 234 229 226 264 q 261 171 241 195 q 309 134 280 146 q 382 122 338 122 q 452 133 424 122 q 500 166 481 143 q 528 227 519 190 q 538 315 538 263 l 538 886 l 705 886 l 705 326 m 325 1053 q 318 1017 325 1034 q 298 987 311 1000 q 268 967 285 975 q 232 960 251 960 q 196 967 212 960 q 166 987 179 975 q 146 1017 153 1000 q 139 1053 139 1034 q 146 1089 139 1072 q 166 1119 153 1106 q 196 1139 179 1131 q 232 1146 212 1146 q 268 1139 251 1146 q 298 1119 285 1131 q 318 1089 311 1106 q 325 1053 325 1072 m 625 1053 q 617 1017 625 1034 q 597 987 610 1000 q 568 967 585 975 q 532 960 551 960 q 496 967 513 960 q 466 987 479 975 q 446 1017 454 1000 q 439 1053 439 1034 q 446 1089 439 1072 q 466 1119 454 1106 q 496 1139 479 1131 q 532 1146 513 1146 q 568 1139 551 1146 q 597 1119 585 1131 q 617 1089 610 1106 q 625 1053 625 1072 m 0 886 z "},"Ū":{"ha":764,"x_min":0,"x_max":705,"o":"m 705 326 q 682 177 705 241 q 617 71 659 113 q 513 6 574 28 q 376 -16 452 -16 q 230 6 291 -16 q 131 68 169 28 q 76 168 93 109 q 59 298 59 226 l 59 886 l 226 886 l 226 309 q 234 229 226 264 q 261 171 241 195 q 309 134 280 146 q 382 122 338 122 q 452 133 424 122 q 500 166 481 143 q 528 227 519 190 q 538 315 538 263 l 538 886 l 705 886 l 705 326 m 184 991 l 184 1109 l 579 1109 l 579 991 l 184 991 m 0 886 z "},"Ŭ":{"ha":764,"x_min":0,"x_max":705,"o":"m 705 326 q 682 177 705 241 q 617 71 659 113 q 513 6 574 28 q 376 -16 452 -16 q 230 6 291 -16 q 131 68 169 28 q 76 168 93 109 q 59 298 59 226 l 59 886 l 226 886 l 226 309 q 234 229 226 264 q 261 171 241 195 q 309 134 280 146 q 382 122 338 122 q 452 133 424 122 q 500 166 481 143 q 528 227 519 190 q 538 315 538 263 l 538 886 l 705 886 l 705 326 m 581 1139 q 569 1074 581 1105 q 532 1019 557 1042 q 469 981 507 995 q 380 966 431 966 q 291 981 328 966 q 230 1020 254 996 q 194 1075 205 1044 q 182 1139 182 1106 l 301 1139 q 306 1116 301 1127 q 320 1096 311 1105 q 345 1081 330 1086 q 382 1075 360 1075 q 443 1093 422 1075 q 463 1139 463 1112 l 581 1139 m 0 886 z "},"Ů":{"ha":764,"x_min":0,"x_max":705,"o":"m 705 326 q 682 177 705 241 q 617 71 659 113 q 513 6 574 28 q 376 -16 452 -16 q 230 6 291 -16 q 131 68 169 28 q 76 168 93 109 q 59 298 59 226 l 59 886 l 226 886 l 226 309 q 234 229 226 264 q 261 171 241 195 q 309 134 280 146 q 382 122 338 122 q 452 133 424 122 q 500 166 481 143 q 528 227 519 190 q 538 315 538 263 l 538 886 l 705 886 l 705 326 m 534 1044 q 523 987 534 1013 q 490 944 511 962 q 441 917 469 926 q 382 907 414 907 q 322 916 350 907 q 274 943 294 926 q 241 986 253 961 q 229 1044 229 1011 q 241 1102 229 1076 q 274 1145 253 1127 q 322 1172 294 1162 q 382 1181 350 1181 q 442 1172 414 1181 q 490 1145 470 1162 q 523 1102 511 1127 q 534 1044 534 1076 m 440 1044 q 424 1084 440 1069 q 382 1099 408 1099 q 340 1084 356 1099 q 323 1044 323 1069 q 340 1003 323 1018 q 382 988 356 988 q 424 1003 408 988 q 440 1044 440 1018 m 0 886 z "},"Ű":{"ha":764,"x_min":0,"x_max":800,"o":"m 705 326 q 682 177 705 241 q 617 71 659 113 q 513 6 574 28 q 376 -16 452 -16 q 230 6 291 -16 q 131 68 169 28 q 76 168 93 109 q 59 298 59 226 l 59 886 l 226 886 l 226 309 q 234 229 226 264 q 261 171 241 195 q 309 134 280 146 q 382 122 338 122 q 452 133 424 122 q 500 166 481 143 q 528 227 519 190 q 538 315 538 263 l 538 886 l 705 886 l 705 326 m 513 1133 l 317 981 l 170 981 l 315 1133 l 513 1133 m 800 1133 l 583 981 l 432 981 l 590 1133 l 800 1133 m 0 886 z "},"Ų":{"ha":764,"x_min":59,"x_max":705,"o":"m 521 -261 q 472 -271 499 -267 q 424 -275 445 -275 q 351 -266 380 -275 q 302 -240 321 -256 q 276 -202 284 -224 q 268 -154 268 -180 q 271 -120 268 -137 q 282 -87 274 -104 q 302 -52 290 -70 q 336 -14 315 -34 q 210 14 262 -9 q 123 78 157 37 q 74 174 90 118 q 59 298 59 229 l 59 886 l 226 886 l 226 309 q 233 229 226 264 q 260 171 241 195 q 309 134 280 146 q 382 122 338 122 q 452 133 424 122 q 500 166 481 143 q 528 227 519 190 q 538 315 538 263 l 538 886 l 705 886 l 705 326 q 653 117 705 201 q 494 0 602 33 q 454 -44 469 -26 q 431 -77 439 -63 q 420 -103 422 -92 q 418 -125 418 -115 q 429 -156 418 -146 q 471 -167 440 -167 q 496 -165 481 -167 q 521 -161 511 -163 l 521 -261 z "},"Ẁ":{"ha":764,"x_min":0,"x_max":742,"o":"m 692 0 l 496 0 l 408 273 l 376 385 l 346 271 l 260 0 l 72 0 l 22 886 l 170 886 l 191 318 l 196 163 l 236 301 l 334 616 l 439 616 l 542 282 l 575 164 l 578 302 l 600 886 l 742 886 l 692 0 m 314 1133 l 465 981 l 300 981 l 90 1133 l 314 1133 m 0 886 z "},"Ẃ":{"ha":764,"x_min":0,"x_max":742,"o":"m 692 0 l 496 0 l 408 273 l 376 385 l 346 271 l 260 0 l 72 0 l 22 886 l 170 886 l 191 318 l 196 163 l 236 301 l 334 616 l 439 616 l 542 282 l 575 164 l 578 302 l 600 886 l 742 886 l 692 0 m 464 981 l 298 981 l 450 1133 l 673 1133 l 464 981 m 0 886 z "},"Ŵ":{"ha":764,"x_min":0,"x_max":742,"o":"m 692 0 l 496 0 l 408 273 l 376 385 l 346 271 l 260 0 l 72 0 l 22 886 l 170 886 l 191 318 l 196 163 l 236 301 l 334 616 l 439 616 l 542 282 l 575 164 l 578 302 l 600 886 l 742 886 l 692 0 m 614 981 l 465 981 l 382 1044 l 298 981 l 153 981 l 314 1133 l 453 1133 l 614 981 m 0 886 z "},"Ẅ":{"ha":764,"x_min":0,"x_max":742,"o":"m 692 0 l 496 0 l 408 273 l 376 385 l 346 271 l 260 0 l 72 0 l 22 886 l 170 886 l 191 318 l 196 163 l 236 301 l 334 616 l 439 616 l 542 282 l 575 164 l 578 302 l 600 886 l 742 886 l 692 0 m 325 1053 q 318 1017 325 1034 q 298 987 311 1000 q 268 967 285 975 q 232 960 251 960 q 196 967 212 960 q 166 987 179 975 q 146 1017 153 1000 q 139 1053 139 1034 q 146 1089 139 1072 q 166 1119 153 1106 q 196 1139 179 1131 q 232 1146 212 1146 q 268 1139 251 1146 q 298 1119 285 1131 q 318 1089 311 1106 q 325 1053 325 1072 m 625 1053 q 617 1017 625 1034 q 597 987 610 1000 q 568 967 585 975 q 532 960 551 960 q 496 967 513 960 q 466 987 479 975 q 446 1017 454 1000 q 439 1053 439 1034 q 446 1089 439 1072 q 466 1119 454 1106 q 496 1139 479 1131 q 532 1146 513 1146 q 568 1139 551 1146 q 597 1119 585 1131 q 617 1089 610 1106 q 625 1053 625 1072 m 0 886 z "},"Ỳ":{"ha":764,"x_min":0,"x_max":755,"o":"m 465 314 l 465 0 l 295 0 l 295 313 l 7 886 l 192 886 l 322 612 l 382 478 l 441 616 l 578 886 l 755 886 l 465 314 m 314 1133 l 465 981 l 300 981 l 90 1133 l 314 1133 m 0 886 z "},"Ý":{"ha":764,"x_min":0,"x_max":755,"o":"m 465 314 l 465 0 l 295 0 l 295 313 l 7 886 l 192 886 l 322 612 l 382 478 l 441 616 l 578 886 l 755 886 l 465 314 m 464 981 l 298 981 l 450 1133 l 673 1133 l 464 981 m 0 886 z "},"Ŷ":{"ha":764,"x_min":0,"x_max":755,"o":"m 465 314 l 465 0 l 295 0 l 295 313 l 7 886 l 192 886 l 322 612 l 382 478 l 441 616 l 578 886 l 755 886 l 465 314 m 614 981 l 465 981 l 382 1044 l 298 981 l 153 981 l 314 1133 l 453 1133 l 614 981 m 0 886 z "},"Ÿ":{"ha":764,"x_min":0,"x_max":755,"o":"m 465 314 l 465 0 l 295 0 l 295 313 l 7 886 l 192 886 l 322 612 l 382 478 l 441 616 l 578 886 l 755 886 l 465 314 m 325 1053 q 318 1017 325 1034 q 298 987 311 1000 q 268 967 285 975 q 232 960 251 960 q 196 967 212 960 q 166 987 179 975 q 146 1017 153 1000 q 139 1053 139 1034 q 146 1089 139 1072 q 166 1119 153 1106 q 196 1139 179 1131 q 232 1146 212 1146 q 268 1139 251 1146 q 298 1119 285 1131 q 318 1089 311 1106 q 325 1053 325 1072 m 625 1053 q 617 1017 625 1034 q 597 987 610 1000 q 568 967 585 975 q 532 960 551 960 q 496 967 513 960 q 466 987 479 975 q 446 1017 454 1000 q 439 1053 439 1034 q 446 1089 439 1072 q 466 1119 454 1106 q 496 1139 479 1131 q 532 1146 513 1146 q 568 1139 551 1146 q 597 1119 585 1131 q 617 1089 610 1106 q 625 1053 625 1072 m 0 886 z "},"Ź":{"ha":764,"x_min":0,"x_max":693,"o":"m 71 0 l 71 126 l 476 735 l 83 735 l 83 886 l 688 886 l 688 751 l 279 151 l 693 151 l 693 0 l 71 0 m 464 981 l 298 981 l 450 1133 l 673 1133 l 464 981 m 0 886 z "},"Ž":{"ha":764,"x_min":0,"x_max":693,"o":"m 71 0 l 71 126 l 476 735 l 83 735 l 83 886 l 688 886 l 688 751 l 279 151 l 693 151 l 693 0 l 71 0 m 151 1133 l 300 1133 l 383 1069 l 467 1133 l 612 1133 l 452 981 l 313 981 l 151 1133 m 0 886 z "},"Ż":{"ha":764,"x_min":0,"x_max":693,"o":"m 71 0 l 71 126 l 476 735 l 83 735 l 83 886 l 688 886 l 688 751 l 279 151 l 693 151 l 693 0 l 71 0 m 486 1053 q 478 1013 486 1031 q 456 981 471 994 q 423 959 442 967 q 382 951 404 951 q 341 959 360 951 q 309 981 323 967 q 288 1013 296 994 q 279 1053 279 1031 q 288 1093 279 1074 q 309 1125 296 1112 q 341 1146 323 1139 q 382 1154 360 1154 q 422 1146 403 1154 q 455 1125 441 1139 q 478 1093 469 1112 q 486 1053 486 1074 m 0 886 z "},"a":{"ha":764,"x_min":74,"x_max":668,"o":"m 526 0 l 522 90 q 477 48 500 67 q 425 14 453 28 q 362 -8 396 0 q 289 -16 329 -16 q 196 0 236 -16 q 129 43 156 16 q 88 111 102 71 q 74 197 74 150 q 95 288 74 246 q 158 359 115 329 q 263 406 200 389 q 412 422 327 422 l 503 422 l 503 464 q 495 512 503 490 q 471 548 488 533 q 428 571 454 563 q 363 579 401 579 q 242 565 302 579 q 127 526 183 551 l 127 659 q 242 691 177 678 q 376 704 307 704 q 508 689 453 704 q 598 646 563 675 q 651 573 634 616 q 668 471 668 529 l 668 0 l 526 0 m 503 304 l 401 304 q 330 296 359 304 q 283 274 301 288 q 256 241 264 260 q 248 201 248 222 q 275 137 248 159 q 349 115 302 115 q 420 140 383 115 q 503 212 458 165 l 503 304 z "},"b":{"ha":764,"x_min":94,"x_max":714,"o":"m 714 357 q 687 193 714 262 q 613 78 661 123 q 500 10 565 32 q 358 -12 435 -12 q 218 -1 283 -12 q 94 29 153 10 l 94 958 l 260 958 l 260 733 l 253 597 q 340 675 290 646 q 460 704 390 704 q 568 680 521 704 q 648 610 616 655 q 697 501 680 565 q 714 357 714 437 m 541 350 q 532 447 541 407 q 509 513 524 487 q 472 550 494 538 q 421 562 450 562 q 341 528 379 562 q 260 436 302 494 l 260 135 q 308 123 279 127 q 367 118 337 118 q 438 134 406 118 q 493 180 471 151 q 528 253 516 210 q 541 350 541 296 z "},"c":{"ha":764,"x_min":90,"x_max":652,"o":"m 652 26 q 551 -3 603 7 q 441 -12 498 -12 q 294 10 359 -12 q 184 77 229 33 q 114 186 138 121 q 90 336 90 251 q 116 486 90 419 q 190 601 142 553 q 304 674 237 648 q 453 700 371 700 q 566 693 520 700 q 648 675 612 686 l 648 514 q 557 547 606 535 q 464 558 508 558 q 381 543 418 558 q 319 499 345 527 q 281 432 294 471 q 268 345 268 392 q 282 256 268 295 q 322 189 296 216 q 385 147 349 161 q 467 132 422 132 q 512 135 488 132 q 561 144 536 138 q 608 157 585 150 q 652 174 631 165 l 652 26 z "},"d":{"ha":764,"x_min":52,"x_max":671,"o":"m 528 0 l 524 102 q 479 54 502 75 q 429 17 456 32 q 373 -7 403 1 q 306 -16 342 -16 q 197 9 245 -16 q 118 78 150 33 q 68 188 85 123 q 52 332 52 252 q 78 496 52 427 q 153 611 105 566 q 265 679 200 657 q 407 701 330 701 q 459 698 433 701 q 505 689 485 694 l 505 958 l 671 958 l 671 0 l 528 0 m 225 339 q 233 242 225 282 q 256 176 241 201 q 294 138 271 150 q 345 126 316 126 q 425 160 387 126 q 505 253 463 194 l 505 554 q 457 566 486 562 q 399 571 428 571 q 327 555 359 571 q 272 509 295 538 q 237 436 250 479 q 225 339 225 393 z "},"e":{"ha":764,"x_min":69,"x_max":694,"o":"m 694 397 q 693 353 694 380 q 690 302 692 326 l 237 302 q 251 222 237 257 q 291 164 265 188 q 352 129 316 141 q 431 117 387 117 q 538 124 481 117 q 657 150 595 132 l 657 18 q 600 5 631 11 q 536 -6 568 -1 q 470 -13 503 -11 q 406 -16 437 -16 q 264 7 327 -16 q 159 73 202 29 q 92 181 115 117 q 69 330 69 245 q 92 483 69 414 q 157 601 115 552 q 259 677 199 650 q 393 704 319 704 q 523 681 467 704 q 617 618 579 659 q 675 521 655 577 q 694 397 694 465 m 526 421 q 516 492 527 462 q 487 542 505 522 q 443 571 468 562 q 390 581 418 581 q 288 539 328 581 q 240 421 248 497 l 526 421 z "},"f":{"ha":764,"x_min":0,"x_max":713,"o":"m 713 818 q 642 834 683 827 q 558 840 601 840 q 504 832 529 840 q 460 808 479 825 q 432 765 442 791 q 421 701 421 739 l 421 590 l 692 590 l 692 461 l 421 461 l 421 0 l 254 0 l 254 461 l 54 461 l 54 590 l 254 590 l 254 694 q 276 820 254 768 q 336 906 297 873 q 430 956 375 940 q 553 971 485 971 q 638 965 597 971 q 713 951 678 960 l 713 818 m 0 689 z "},"g":{"ha":764,"x_min":52,"x_max":720,"o":"m 611 568 q 638 518 630 545 q 646 465 646 492 q 626 363 646 408 q 569 290 606 319 q 483 244 533 260 q 371 229 432 229 q 304 236 335 229 q 258 253 274 243 q 239 228 247 241 q 231 196 231 214 q 236 174 231 185 q 252 155 241 163 q 277 141 262 146 q 310 135 292 136 l 473 129 q 573 115 528 127 q 649 79 617 102 q 698 23 681 56 q 715 -52 715 -9 q 694 -142 715 -100 q 628 -217 672 -185 q 519 -267 585 -248 q 368 -285 454 -285 q 225 -272 285 -285 q 126 -235 165 -258 q 70 -178 88 -211 q 52 -106 52 -145 q 58 -62 52 -82 q 76 -23 64 -41 q 106 14 88 -4 q 150 49 125 31 q 99 98 117 68 q 82 161 82 127 q 88 204 82 184 q 104 243 94 224 q 127 278 114 261 q 154 311 140 295 q 112 372 129 336 q 96 461 96 408 q 116 564 96 519 q 174 640 137 609 q 261 687 210 671 q 371 703 311 703 q 430 700 401 703 q 481 689 458 696 l 720 689 l 720 568 l 611 568 m 221 -92 q 261 -151 221 -132 q 375 -170 302 -170 q 454 -161 422 -170 q 507 -138 486 -152 q 536 -104 527 -123 q 545 -65 545 -85 q 536 -34 545 -47 q 512 -13 528 -22 q 476 0 497 -5 q 431 5 456 4 l 285 8 q 253 -18 265 -5 q 233 -42 240 -30 q 223 -66 226 -54 q 221 -92 221 -78 m 249 461 q 281 374 249 406 q 371 342 313 342 q 424 352 401 342 q 462 379 447 362 q 484 418 477 396 q 492 465 492 441 q 459 555 492 523 q 370 587 427 587 q 316 577 339 587 q 279 550 294 567 q 256 509 264 532 q 249 461 249 486 z "},"h":{"ha":764,"x_min":94,"x_max":671,"o":"m 505 0 l 505 449 q 421 562 505 562 q 341 528 379 562 q 260 436 302 494 l 260 0 l 94 0 l 94 958 l 260 958 l 260 722 l 252 597 q 294 643 273 623 q 341 676 316 663 q 395 697 366 690 q 460 704 425 704 q 552 687 513 704 q 618 638 591 669 q 657 562 644 606 q 671 463 671 517 l 671 0 l 505 0 z "},"i":{"ha":764,"x_min":98,"x_max":685,"o":"m 500 878 q 492 836 500 855 q 469 801 484 816 q 435 778 454 787 q 392 770 415 770 q 349 778 369 770 q 314 801 329 787 q 292 836 300 816 q 283 878 283 855 q 292 920 283 900 q 314 954 300 939 q 349 978 329 969 q 392 986 369 986 q 435 978 415 986 q 469 954 454 969 q 492 920 484 939 q 500 878 500 900 m 317 560 l 122 560 l 122 689 l 486 689 l 486 129 l 685 129 l 685 0 l 98 0 l 98 129 l 317 129 l 317 560 z "},"j":{"ha":764,"x_min":81,"x_max":612,"o":"m 599 20 q 576 -115 599 -58 q 511 -210 553 -172 q 409 -266 469 -248 q 277 -285 350 -285 q 165 -275 217 -285 q 81 -250 114 -264 l 81 -98 q 124 -118 100 -109 q 174 -136 148 -128 q 227 -148 200 -144 q 281 -153 254 -153 q 393 -109 356 -153 q 431 18 431 -66 l 431 560 l 103 560 l 103 689 l 599 689 l 599 20 m 612 878 q 604 836 612 855 q 582 801 596 816 q 547 778 567 787 q 504 770 527 770 q 461 778 481 770 q 427 801 441 787 q 404 836 412 816 q 396 878 396 855 q 404 920 396 900 q 427 954 412 939 q 461 978 441 969 q 504 986 481 986 q 547 978 527 986 q 582 954 567 969 q 604 920 596 939 q 612 878 612 900 z "},"k":{"ha":764,"x_min":101,"x_max":737,"o":"m 521 0 l 267 345 l 267 0 l 101 0 l 101 958 l 267 958 l 267 397 l 507 689 l 714 689 l 435 375 l 737 0 l 521 0 z "},"l":{"ha":764,"x_min":98,"x_max":685,"o":"m 317 829 l 122 829 l 122 958 l 486 958 l 486 129 l 685 129 l 685 0 l 98 0 l 98 129 l 317 129 l 317 829 z "},"m":{"ha":764,"x_min":40,"x_max":724,"o":"m 581 0 l 581 469 q 579 514 581 495 q 574 547 578 534 q 562 566 570 559 q 541 572 554 572 q 499 544 519 572 q 453 447 479 515 l 453 0 l 311 0 l 311 469 q 310 514 311 495 q 304 547 309 534 q 292 566 300 559 q 271 572 284 572 q 231 544 253 572 q 183 447 210 515 l 183 0 l 40 0 l 40 689 l 163 689 l 165 589 q 195 641 180 619 q 227 676 210 663 q 263 696 244 690 q 307 703 283 703 q 395 672 365 703 q 429 589 425 642 q 461 641 446 619 q 495 676 477 663 q 532 696 512 690 q 576 703 552 703 q 688 650 652 703 q 724 494 724 597 l 724 0 l 581 0 z "},"n":{"ha":764,"x_min":94,"x_max":671,"o":"m 505 0 l 505 449 q 421 562 505 562 q 341 528 379 562 q 260 436 302 494 l 260 0 l 94 0 l 94 689 l 237 689 l 241 587 q 285 635 262 614 q 334 672 308 657 q 391 696 361 688 q 460 704 422 704 q 552 687 513 704 q 618 638 591 669 q 657 562 644 606 q 671 463 671 517 l 671 0 l 505 0 z "},"o":{"ha":764,"x_min":49,"x_max":715,"o":"m 715 350 q 692 201 715 269 q 625 85 669 134 q 519 11 582 37 q 375 -16 456 -16 q 238 7 298 -16 q 136 74 178 29 q 71 185 94 118 q 49 340 49 252 q 72 490 49 422 q 139 604 96 557 q 246 678 183 652 q 389 704 309 704 q 526 681 466 704 q 629 614 587 659 q 693 503 671 569 q 715 350 715 437 m 543 346 q 502 507 543 453 q 383 561 462 561 q 309 544 340 561 q 259 497 279 527 q 230 429 239 468 q 221 345 221 389 q 264 182 221 237 q 383 127 308 127 q 455 144 425 127 q 505 190 486 161 q 533 260 524 220 q 543 346 543 300 z "},"p":{"ha":764,"x_min":94,"x_max":714,"o":"m 714 357 q 687 193 714 262 q 613 78 661 123 q 500 10 565 32 q 358 -12 435 -12 q 307 -9 332 -12 q 260 0 281 -5 l 260 -269 l 94 -269 l 94 689 l 237 689 l 241 587 q 285 635 262 614 q 334 672 308 657 q 391 696 361 688 q 460 704 422 704 q 568 680 521 704 q 648 610 616 655 q 697 501 680 565 q 714 357 714 437 m 541 350 q 532 447 541 407 q 509 513 524 487 q 472 550 494 538 q 421 562 450 562 q 341 528 379 562 q 260 436 302 494 l 260 135 q 308 123 279 127 q 367 118 337 118 q 438 134 406 118 q 493 180 471 151 q 528 253 516 210 q 541 350 541 296 z "},"q":{"ha":764,"x_min":52,"x_max":671,"o":"m 505 -269 l 505 -43 l 513 92 q 472 48 494 68 q 426 14 451 28 q 370 -8 400 0 q 306 -16 340 -16 q 197 9 245 -16 q 118 78 150 33 q 68 188 85 123 q 52 332 52 252 q 74 482 52 414 q 141 599 96 550 q 252 674 185 648 q 407 701 318 701 q 444 699 424 701 q 485 694 465 697 q 524 687 505 691 q 557 677 543 682 l 671 703 l 671 -269 l 505 -269 m 225 339 q 233 242 225 282 q 256 176 241 201 q 294 138 271 150 q 345 126 316 126 q 425 160 387 126 q 505 253 463 194 l 505 554 q 457 566 486 562 q 399 571 428 571 q 327 555 359 571 q 272 509 295 538 q 237 436 250 479 q 225 339 225 393 z "},"r":{"ha":764,"x_min":122,"x_max":706,"o":"m 538 421 q 534 487 539 460 q 518 532 529 514 q 490 557 507 549 q 453 566 474 566 q 377 535 416 566 q 292 436 338 505 l 292 0 l 122 0 l 122 689 l 272 689 l 278 589 q 316 636 295 615 q 364 672 338 657 q 422 696 390 688 q 492 704 454 704 q 584 686 544 704 q 652 633 625 668 q 693 544 680 597 q 704 421 706 491 l 538 421 z "},"s":{"ha":764,"x_min":106,"x_max":663,"o":"m 663 203 q 636 102 663 144 q 567 34 610 60 q 470 -4 524 8 q 358 -16 415 -16 q 221 -8 282 -16 q 106 12 160 -1 l 106 161 q 233 123 170 135 q 353 111 296 111 q 450 132 418 111 q 482 186 482 153 q 475 214 482 201 q 450 239 469 227 q 397 263 431 251 q 309 292 363 276 q 219 324 258 306 q 156 366 181 342 q 118 423 131 391 q 106 498 106 455 q 125 578 106 541 q 181 643 144 615 q 275 688 219 671 q 407 704 332 704 q 522 697 472 704 q 611 682 572 690 l 611 547 q 500 574 552 566 q 397 582 448 582 q 316 564 347 582 q 285 513 285 545 q 291 485 285 497 q 315 461 297 473 q 365 437 333 450 q 450 410 397 425 q 551 373 510 393 q 616 330 591 354 q 652 274 641 305 q 663 203 663 243 z "},"t":{"ha":764,"x_min":40,"x_max":663,"o":"m 663 7 q 572 -9 618 -3 q 486 -16 527 -16 q 369 -1 418 -16 q 288 42 320 13 q 240 116 256 71 q 225 224 225 161 l 225 560 l 40 560 l 40 689 l 225 689 l 225 865 l 395 909 l 395 689 l 663 689 l 663 560 l 395 560 l 395 236 q 422 147 395 177 q 513 117 449 117 q 592 123 553 117 q 663 139 631 130 l 663 7 z "},"u":{"ha":764,"x_min":93,"x_max":669,"o":"m 258 689 l 258 240 q 279 155 258 184 q 343 126 300 126 q 423 160 385 126 q 504 253 461 195 l 504 689 l 669 689 l 669 0 l 526 0 l 522 102 q 478 54 500 75 q 430 17 456 32 q 373 -7 404 1 q 304 -16 342 -16 q 212 2 252 -16 q 146 51 172 19 q 106 127 119 83 q 93 227 93 172 l 93 689 l 258 689 z "},"v":{"ha":764,"x_min":16,"x_max":750,"o":"m 479 0 l 289 0 l 16 689 l 200 689 l 343 298 l 386 172 l 428 293 l 572 689 l 750 689 l 479 0 z "},"w":{"ha":764,"x_min":5,"x_max":757,"o":"m 660 0 l 476 0 l 403 218 l 380 294 l 358 216 l 288 0 l 103 0 l 5 689 l 163 689 l 212 300 l 224 193 l 252 289 l 321 498 l 447 498 l 521 290 l 553 192 l 566 301 l 607 689 l 757 689 l 660 0 z "},"x":{"ha":764,"x_min":22,"x_max":743,"o":"m 538 0 l 380 232 l 222 0 l 22 0 l 281 347 l 36 689 l 237 689 l 392 463 l 545 689 l 730 689 l 493 349 l 743 0 l 538 0 z "},"y":{"ha":764,"x_min":16,"x_max":750,"o":"m 509 75 q 434 -82 473 -14 q 348 -194 395 -149 q 244 -262 301 -239 q 115 -285 186 -285 q 78 -283 98 -285 q 37 -278 58 -281 l 37 -138 q 56 -141 45 -139 q 78 -143 66 -142 q 101 -145 90 -144 q 123 -146 113 -146 q 176 -135 152 -146 q 221 -105 201 -124 q 259 -59 242 -85 q 289 0 276 -32 l 16 689 l 200 689 l 343 298 l 386 172 l 428 293 l 572 689 l 750 689 l 509 75 z "},"z":{"ha":764,"x_min":102,"x_max":663,"o":"m 102 0 l 102 115 l 439 547 l 110 547 l 110 689 l 657 689 l 657 572 l 328 146 l 663 146 l 663 0 l 102 0 z "},"à":{"ha":764,"x_min":0,"x_max":668,"o":"m 526 0 l 522 90 q 477 48 500 67 q 425 14 453 28 q 362 -8 396 0 q 289 -16 329 -16 q 196 0 236 -16 q 129 43 156 16 q 88 111 102 71 q 74 197 74 150 q 95 288 74 246 q 158 359 115 329 q 263 406 200 389 q 412 422 327 422 l 503 422 l 503 464 q 495 512 503 490 q 471 548 488 533 q 428 571 454 563 q 363 579 401 579 q 242 565 302 579 q 127 526 183 551 l 127 659 q 242 691 177 678 q 376 704 307 704 q 508 689 453 704 q 598 646 563 675 q 651 573 634 616 q 668 471 668 529 l 668 0 l 526 0 m 503 304 l 401 304 q 330 296 359 304 q 283 274 301 288 q 256 241 264 260 q 248 201 248 222 q 275 137 248 159 q 349 115 302 115 q 420 140 383 115 q 503 212 458 165 l 503 304 m 286 958 l 464 781 l 298 781 l 62 958 l 286 958 m 0 689 z "},"á":{"ha":764,"x_min":0,"x_max":700,"o":"m 526 0 l 522 90 q 477 48 500 67 q 425 14 453 28 q 362 -8 396 0 q 289 -16 329 -16 q 196 0 236 -16 q 129 43 156 16 q 88 111 102 71 q 74 197 74 150 q 95 288 74 246 q 158 359 115 329 q 263 406 200 389 q 412 422 327 422 l 503 422 l 503 464 q 495 512 503 490 q 471 548 488 533 q 428 571 454 563 q 363 579 401 579 q 242 565 302 579 q 127 526 183 551 l 127 659 q 242 691 177 678 q 376 704 307 704 q 508 689 453 704 q 598 646 563 675 q 651 573 634 616 q 668 471 668 529 l 668 0 l 526 0 m 503 304 l 401 304 q 330 296 359 304 q 283 274 301 288 q 256 241 264 260 q 248 201 248 222 q 275 137 248 159 q 349 115 302 115 q 420 140 383 115 q 503 212 458 165 l 503 304 m 464 781 l 298 781 l 476 958 l 700 958 l 464 781 m 0 689 z "},"â":{"ha":764,"x_min":0,"x_max":668,"o":"m 526 0 l 522 90 q 477 48 500 67 q 425 14 453 28 q 362 -8 396 0 q 289 -16 329 -16 q 196 0 236 -16 q 129 43 156 16 q 88 111 102 71 q 74 197 74 150 q 95 288 74 246 q 158 359 115 329 q 263 406 200 389 q 412 422 327 422 l 503 422 l 503 464 q 495 512 503 490 q 471 548 488 533 q 428 571 454 563 q 363 579 401 579 q 242 565 302 579 q 127 526 183 551 l 127 659 q 242 691 177 678 q 376 704 307 704 q 508 689 453 704 q 598 646 563 675 q 651 573 634 616 q 668 471 668 529 l 668 0 l 526 0 m 503 304 l 401 304 q 330 296 359 304 q 283 274 301 288 q 256 241 264 260 q 248 201 248 222 q 275 137 248 159 q 349 115 302 115 q 420 140 383 115 q 503 212 458 165 l 503 304 m 446 958 l 612 781 l 465 781 l 382 864 l 298 781 l 154 781 l 321 958 l 446 958 m 0 689 z "},"ã":{"ha":764,"x_min":0,"x_max":668,"o":"m 526 0 l 522 90 q 477 48 500 67 q 425 14 453 28 q 362 -8 396 0 q 289 -16 329 -16 q 196 0 236 -16 q 129 43 156 16 q 88 111 102 71 q 74 197 74 150 q 95 288 74 246 q 158 359 115 329 q 263 406 200 389 q 412 422 327 422 l 503 422 l 503 464 q 495 512 503 490 q 471 548 488 533 q 428 571 454 563 q 363 579 401 579 q 242 565 302 579 q 127 526 183 551 l 127 659 q 242 691 177 678 q 376 704 307 704 q 508 689 453 704 q 598 646 563 675 q 651 573 634 616 q 668 471 668 529 l 668 0 l 526 0 m 503 304 l 401 304 q 330 296 359 304 q 283 274 301 288 q 256 241 264 260 q 248 201 248 222 q 275 137 248 159 q 349 115 302 115 q 420 140 383 115 q 503 212 458 165 l 503 304 m 637 885 q 571 804 609 830 q 478 778 533 778 q 411 789 438 778 q 362 815 383 801 q 322 841 340 829 q 282 852 304 852 q 238 837 257 852 q 200 791 219 821 l 126 865 q 193 946 155 920 q 286 972 231 972 q 354 960 326 972 q 402 935 381 948 q 442 909 424 921 q 482 897 460 897 q 526 913 507 897 q 564 958 545 929 l 637 885 m 0 689 z "},"ä":{"ha":764,"x_min":0,"x_max":668,"o":"m 526 0 l 522 90 q 477 48 500 67 q 425 14 453 28 q 362 -8 396 0 q 289 -16 329 -16 q 196 0 236 -16 q 129 43 156 16 q 88 111 102 71 q 74 197 74 150 q 95 288 74 246 q 158 359 115 329 q 263 406 200 389 q 412 422 327 422 l 503 422 l 503 464 q 495 512 503 490 q 471 548 488 533 q 428 571 454 563 q 363 579 401 579 q 242 565 302 579 q 127 526 183 551 l 127 659 q 242 691 177 678 q 376 704 307 704 q 508 689 453 704 q 598 646 563 675 q 651 573 634 616 q 668 471 668 529 l 668 0 l 526 0 m 503 304 l 401 304 q 330 296 359 304 q 283 274 301 288 q 256 241 264 260 q 248 201 248 222 q 275 137 248 159 q 349 115 302 115 q 420 140 383 115 q 503 212 458 165 l 503 304 m 333 876 q 326 840 333 857 q 306 811 318 823 q 276 791 294 798 q 240 783 259 783 q 204 791 221 783 q 175 811 187 798 q 155 840 162 823 q 147 876 147 857 q 155 912 147 895 q 175 942 162 930 q 204 962 187 955 q 240 970 221 970 q 276 962 259 970 q 306 942 294 955 q 326 912 318 930 q 333 876 333 895 m 616 876 q 609 840 616 857 q 589 811 602 823 q 559 791 576 798 q 524 783 543 783 q 487 791 504 783 q 458 811 471 798 q 438 840 445 823 q 431 876 431 857 q 438 912 431 895 q 458 942 445 930 q 487 962 471 955 q 524 970 504 970 q 559 962 543 970 q 589 942 576 955 q 609 912 602 930 q 616 876 616 895 m 0 689 z "},"ā":{"ha":764,"x_min":0,"x_max":668,"o":"m 526 0 l 522 90 q 477 48 500 67 q 425 14 453 28 q 362 -8 396 0 q 289 -16 329 -16 q 196 0 236 -16 q 129 43 156 16 q 88 111 102 71 q 74 197 74 150 q 95 288 74 246 q 158 359 115 329 q 263 406 200 389 q 412 422 327 422 l 503 422 l 503 464 q 495 512 503 490 q 471 548 488 533 q 428 571 454 563 q 363 579 401 579 q 242 565 302 579 q 127 526 183 551 l 127 659 q 242 691 177 678 q 376 704 307 704 q 508 689 453 704 q 598 646 563 675 q 651 573 634 616 q 668 471 668 529 l 668 0 l 526 0 m 503 304 l 401 304 q 330 296 359 304 q 283 274 301 288 q 256 241 264 260 q 248 201 248 222 q 275 137 248 159 q 349 115 302 115 q 420 140 383 115 q 503 212 458 165 l 503 304 m 193 817 l 193 935 l 571 935 l 571 817 l 193 817 m 0 689 z "},"ă":{"ha":764,"x_min":0,"x_max":668,"o":"m 526 0 l 522 90 q 477 48 500 67 q 425 14 453 28 q 362 -8 396 0 q 289 -16 329 -16 q 196 0 236 -16 q 129 43 156 16 q 88 111 102 71 q 74 197 74 150 q 95 288 74 246 q 158 359 115 329 q 263 406 200 389 q 412 422 327 422 l 503 422 l 503 464 q 495 512 503 490 q 471 548 488 533 q 428 571 454 563 q 363 579 401 579 q 242 565 302 579 q 127 526 183 551 l 127 659 q 242 691 177 678 q 376 704 307 704 q 508 689 453 704 q 598 646 563 675 q 651 573 634 616 q 668 471 668 529 l 668 0 l 526 0 m 503 304 l 401 304 q 330 296 359 304 q 283 274 301 288 q 256 241 264 260 q 248 201 248 222 q 275 137 248 159 q 349 115 302 115 q 420 140 383 115 q 503 212 458 165 l 503 304 m 577 958 q 564 885 577 920 q 525 826 550 851 q 463 786 499 800 q 380 771 426 771 q 298 786 334 771 q 237 827 262 801 q 199 886 212 852 q 186 958 186 920 l 309 958 q 314 930 309 943 q 329 907 319 917 q 352 891 338 897 q 381 885 365 885 q 433 904 412 885 q 454 958 454 922 l 577 958 m 0 689 z "},"å":{"ha":764,"x_min":0,"x_max":668,"o":"m 526 0 l 522 90 q 477 48 500 67 q 425 14 453 28 q 362 -8 396 0 q 289 -16 329 -16 q 196 0 236 -16 q 129 43 156 16 q 88 111 102 71 q 74 197 74 150 q 95 288 74 246 q 158 359 115 329 q 263 406 200 389 q 412 422 327 422 l 503 422 l 503 464 q 495 512 503 490 q 471 548 488 533 q 428 571 454 563 q 363 579 401 579 q 242 565 302 579 q 127 526 183 551 l 127 659 q 242 691 177 678 q 376 704 307 704 q 508 689 453 704 q 598 646 563 675 q 651 573 634 616 q 668 471 668 529 l 668 0 l 526 0 m 503 304 l 401 304 q 330 296 359 304 q 283 274 301 288 q 256 241 264 260 q 248 201 248 222 q 275 137 248 159 q 349 115 302 115 q 420 140 383 115 q 503 212 458 165 l 503 304 m 545 899 q 532 838 545 866 q 496 788 519 809 q 445 755 474 767 q 382 743 415 743 q 319 755 349 743 q 267 787 290 766 q 232 836 245 808 q 219 898 219 864 q 232 960 219 932 q 267 1009 245 989 q 319 1041 290 1029 q 382 1053 349 1053 q 445 1041 416 1053 q 497 1009 475 1029 q 532 961 519 989 q 545 899 545 932 m 446 898 q 427 943 446 925 q 382 962 409 962 q 336 943 355 962 q 318 898 318 925 q 336 852 318 871 q 382 834 355 834 q 427 852 409 834 q 446 898 446 871 m 0 689 z "},"ǻ":{"ha":764,"x_min":0,"x_max":680,"o":"m 526 0 l 522 90 q 477 48 500 67 q 425 14 453 28 q 362 -8 396 0 q 289 -16 329 -16 q 196 0 236 -16 q 129 43 156 16 q 88 111 102 71 q 74 197 74 150 q 95 288 74 246 q 158 359 115 329 q 263 406 200 389 q 412 422 327 422 l 503 422 l 503 464 q 495 512 503 490 q 471 548 488 533 q 428 571 454 563 q 363 579 401 579 q 242 565 302 579 q 127 526 183 551 l 127 659 q 242 691 177 678 q 376 704 307 704 q 508 689 453 704 q 598 646 563 675 q 651 573 634 616 q 668 471 668 529 l 668 0 l 526 0 m 503 304 l 401 304 q 330 296 359 304 q 283 274 301 288 q 256 241 264 260 q 248 201 248 222 q 275 137 248 159 q 349 115 302 115 q 420 140 383 115 q 503 212 458 165 l 503 304 m 545 899 q 532 838 545 866 q 496 788 519 809 q 445 755 474 767 q 382 743 415 743 q 319 755 349 743 q 267 787 290 766 q 232 836 245 808 q 219 898 219 864 q 232 960 219 932 q 267 1009 245 989 q 319 1041 290 1029 q 382 1053 349 1053 q 445 1041 416 1053 q 497 1009 475 1029 q 532 961 519 989 q 545 899 545 932 m 446 898 q 427 943 446 925 q 382 962 409 962 q 336 943 355 962 q 318 898 318 925 q 336 852 318 871 q 382 834 355 834 q 427 852 409 834 q 446 898 446 871 m 0 689 m 471 1089 l 305 1089 l 457 1242 l 680 1242 l 471 1089 m 7 995 z "},"ą":{"ha":764,"x_min":74,"x_max":694,"o":"m 694 -261 q 646 -271 673 -267 q 597 -275 618 -275 q 524 -266 554 -275 q 476 -240 494 -256 q 450 -202 458 -224 q 441 -154 441 -180 q 445 -118 441 -136 q 458 -81 449 -100 q 484 -42 468 -62 q 526 0 500 -22 l 522 90 q 477 48 500 67 q 425 14 453 28 q 362 -8 396 0 q 289 -16 329 -16 q 196 0 236 -16 q 129 43 156 16 q 88 111 102 71 q 74 197 74 150 q 95 288 74 246 q 158 359 115 329 q 263 406 200 389 q 412 422 327 422 l 503 422 l 503 464 q 495 512 503 490 q 471 548 488 533 q 428 571 454 563 q 363 579 401 579 q 242 565 302 579 q 127 526 183 551 l 127 659 q 242 691 177 678 q 376 704 307 704 q 508 689 453 704 q 598 646 563 675 q 651 573 634 616 q 668 471 668 529 l 668 0 q 627 -44 642 -26 q 604 -77 612 -63 q 594 -103 596 -92 q 591 -125 591 -115 q 603 -156 591 -146 q 644 -167 614 -167 q 669 -165 655 -167 q 694 -161 684 -163 l 694 -261 m 503 304 l 401 304 q 330 296 359 304 q 283 274 301 288 q 256 241 264 260 q 248 201 248 222 q 275 137 248 159 q 349 115 302 115 q 420 140 383 115 q 503 212 458 165 l 503 304 z "},"æ":{"ha":764,"x_min":12,"x_max":747,"o":"m 229 704 q 332 686 290 704 q 399 637 374 669 q 461 686 424 668 q 545 704 498 704 q 639 682 600 704 q 702 620 677 660 q 736 522 726 579 q 747 395 747 465 q 747 375 747 387 q 746 352 747 364 q 746 329 746 340 q 745 309 745 317 l 443 309 q 452 223 443 261 q 478 160 461 186 q 518 120 494 134 q 572 106 543 106 q 644 116 606 106 q 721 143 682 126 l 721 17 q 641 -6 687 3 q 545 -16 595 -16 q 480 -8 509 -16 q 430 14 452 -1 q 392 48 408 28 q 363 93 375 68 q 281 10 322 36 q 189 -16 241 -16 q 59 35 106 -16 q 12 189 12 85 q 26 281 12 240 q 71 352 41 323 q 148 396 100 380 q 261 412 195 412 l 315 412 l 315 463 q 311 510 315 488 q 295 549 307 532 q 265 575 284 566 q 216 585 246 585 q 181 581 201 585 q 140 569 161 576 q 97 551 119 562 q 54 528 75 541 l 54 660 q 137 692 91 681 q 229 704 183 704 m 253 309 q 207 300 226 309 q 177 276 189 291 q 160 240 165 260 q 155 197 155 220 q 170 130 155 153 q 216 106 185 106 q 265 130 240 106 q 315 197 290 155 l 315 309 l 253 309 m 534 585 q 471 540 492 585 q 444 412 450 495 l 615 412 q 594 543 616 500 q 534 585 572 585 z "},"ǽ":{"ha":764,"x_min":0,"x_max":747,"o":"m 229 704 q 332 686 290 704 q 399 637 374 669 q 461 686 424 668 q 545 704 498 704 q 639 682 600 704 q 702 620 677 660 q 736 522 726 579 q 747 395 747 465 q 747 375 747 387 q 746 352 747 364 q 746 329 746 340 q 745 309 745 317 l 443 309 q 452 223 443 261 q 478 160 461 186 q 518 120 494 134 q 572 106 543 106 q 644 116 606 106 q 721 143 682 126 l 721 17 q 641 -6 687 3 q 545 -16 595 -16 q 480 -8 509 -16 q 430 14 452 -1 q 392 48 408 28 q 363 93 375 68 q 281 10 322 36 q 189 -16 241 -16 q 59 35 106 -16 q 12 189 12 85 q 26 281 12 240 q 71 352 41 323 q 148 396 100 380 q 261 412 195 412 l 315 412 l 315 463 q 311 510 315 488 q 295 549 307 532 q 265 575 284 566 q 216 585 246 585 q 181 581 201 585 q 140 569 161 576 q 97 551 119 562 q 54 528 75 541 l 54 660 q 137 692 91 681 q 229 704 183 704 m 253 309 q 207 300 226 309 q 177 276 189 291 q 160 240 165 260 q 155 197 155 220 q 170 130 155 153 q 216 106 185 106 q 265 130 240 106 q 315 197 290 155 l 315 309 l 253 309 m 534 585 q 471 540 492 585 q 444 412 450 495 l 615 412 q 594 543 616 500 q 534 585 572 585 m 464 781 l 298 781 l 476 958 l 700 958 l 464 781 m 0 689 z "},"ć":{"ha":764,"x_min":28,"x_max":728,"o":"m 652 26 q 551 -3 603 7 q 441 -12 498 -12 q 294 10 359 -12 q 184 77 229 33 q 114 186 138 121 q 90 336 90 251 q 116 486 90 419 q 190 601 142 553 q 304 674 237 648 q 453 700 371 700 q 566 693 520 700 q 648 675 612 686 l 648 514 q 557 547 606 535 q 464 558 508 558 q 381 543 418 558 q 319 499 345 527 q 281 432 294 471 q 268 345 268 392 q 282 256 268 295 q 322 189 296 216 q 385 147 349 161 q 467 132 422 132 q 512 135 488 132 q 561 144 536 138 q 608 157 585 150 q 652 174 631 165 l 652 26 m 492 781 l 326 781 l 504 958 l 728 958 l 492 781 m 28 689 z "},"ĉ":{"ha":764,"x_min":28,"x_max":652,"o":"m 652 26 q 551 -3 603 7 q 441 -12 498 -12 q 294 10 359 -12 q 184 77 229 33 q 114 186 138 121 q 90 336 90 251 q 116 486 90 419 q 190 601 142 553 q 304 674 237 648 q 453 700 371 700 q 566 693 520 700 q 648 675 612 686 l 648 514 q 557 547 606 535 q 464 558 508 558 q 381 543 418 558 q 319 499 345 527 q 281 432 294 471 q 268 345 268 392 q 282 256 268 295 q 322 189 296 216 q 385 147 349 161 q 467 132 422 132 q 512 135 488 132 q 561 144 536 138 q 608 157 585 150 q 652 174 631 165 l 652 26 m 473 958 l 640 781 l 493 781 l 410 864 l 326 781 l 182 781 l 349 958 l 473 958 m 28 689 z "},"č":{"ha":764,"x_min":28,"x_max":652,"o":"m 652 26 q 551 -3 603 7 q 441 -12 498 -12 q 294 10 359 -12 q 184 77 229 33 q 114 186 138 121 q 90 336 90 251 q 116 486 90 419 q 190 601 142 553 q 304 674 237 648 q 453 700 371 700 q 566 693 520 700 q 648 675 612 686 l 648 514 q 557 547 606 535 q 464 558 508 558 q 381 543 418 558 q 319 499 345 527 q 281 432 294 471 q 268 345 268 392 q 282 256 268 295 q 322 189 296 216 q 385 147 349 161 q 467 132 422 132 q 512 135 488 132 q 561 144 536 138 q 608 157 585 150 q 652 174 631 165 l 652 26 m 347 781 l 180 958 l 328 958 l 411 875 l 494 958 l 639 958 l 472 781 l 347 781 m 28 689 z "},"ċ":{"ha":764,"x_min":28,"x_max":652,"o":"m 652 26 q 551 -3 603 7 q 441 -12 498 -12 q 294 10 359 -12 q 184 77 229 33 q 114 186 138 121 q 90 336 90 251 q 116 486 90 419 q 190 601 142 553 q 304 674 237 648 q 453 700 371 700 q 566 693 520 700 q 648 675 612 686 l 648 514 q 557 547 606 535 q 464 558 508 558 q 381 543 418 558 q 319 499 345 527 q 281 432 294 471 q 268 345 268 392 q 282 256 268 295 q 322 189 296 216 q 385 147 349 161 q 467 132 422 132 q 512 135 488 132 q 561 144 536 138 q 608 157 585 150 q 652 174 631 165 l 652 26 m 517 878 q 509 837 517 856 q 486 804 500 819 q 452 782 472 790 q 410 774 433 774 q 369 782 388 774 q 335 804 349 790 q 313 837 321 819 q 304 878 304 856 q 313 918 304 899 q 335 951 321 937 q 369 974 349 966 q 410 982 388 982 q 451 974 431 982 q 485 951 471 966 q 508 918 500 937 q 517 878 517 899 m 28 689 z "},"ç":{"ha":764,"x_min":90,"x_max":652,"o":"m 652 26 q 569 1 612 10 q 481 -11 526 -8 l 410 -200 l 289 -200 l 330 0 q 153 112 216 26 q 90 336 90 197 q 116 486 90 419 q 190 601 142 553 q 304 674 237 648 q 453 700 371 700 q 566 693 520 700 q 648 675 612 686 l 648 514 q 557 547 606 535 q 464 558 508 558 q 381 543 418 558 q 319 499 345 527 q 281 432 294 471 q 268 345 268 392 q 282 256 268 295 q 322 189 296 216 q 385 147 349 161 q 467 132 422 132 q 512 135 488 132 q 561 144 536 138 q 608 157 585 150 q 652 174 631 165 l 652 26 z "},"ď":{"ha":764,"x_min":14,"x_max":871,"o":"m 493 0 l 489 102 q 444 54 467 75 q 395 17 421 32 q 338 -7 368 1 q 271 -16 308 -16 q 163 9 210 -16 q 83 78 115 33 q 34 188 51 123 q 17 332 17 252 q 44 496 17 427 q 118 611 71 566 q 231 679 165 657 q 372 701 296 701 q 424 698 398 701 q 471 689 450 694 l 471 958 l 636 958 l 636 0 l 493 0 m 191 339 q 198 242 191 282 q 221 176 206 201 q 259 138 237 150 q 310 126 281 126 q 390 160 352 126 q 471 253 428 194 l 471 554 q 422 566 451 562 q 364 571 393 571 q 292 555 324 571 q 238 509 260 538 q 203 436 215 479 q 191 339 191 393 m 790 781 l 659 781 l 712 1010 l 871 1010 l 790 781 m 14 689 z "},"ð":{"ha":764,"x_min":52,"x_max":697,"o":"m 639 954 l 639 829 l 519 804 q 604 678 570 736 q 659 564 637 619 q 688 456 680 509 q 697 347 697 404 q 691 261 697 304 q 670 177 685 218 q 631 102 655 137 q 569 40 606 66 q 482 -1 532 14 q 366 -16 432 -16 q 225 7 285 -16 q 127 74 166 30 q 70 182 89 118 q 52 329 52 246 q 78 495 52 425 q 150 611 104 565 q 256 679 195 656 q 386 701 317 701 l 389 701 q 367 734 378 718 q 343 766 355 750 l 142 724 l 142 848 l 257 872 l 180 958 l 396 958 l 436 911 l 639 954 m 225 338 q 262 177 225 227 q 375 126 298 126 q 433 139 406 126 q 480 179 460 153 q 512 245 500 205 q 524 339 524 286 q 510 452 524 399 q 471 561 496 505 q 434 568 454 566 q 395 571 413 571 q 326 555 357 571 q 272 508 294 538 q 237 435 250 478 q 225 338 225 392 z "},"đ":{"ha":764,"x_min":52,"x_max":754,"o":"m 522 0 l 518 102 q 474 54 496 75 q 425 17 451 32 q 369 -7 399 1 q 302 -16 339 -16 q 195 9 241 -16 q 116 78 148 33 q 68 188 84 123 q 52 332 52 252 q 78 496 52 427 q 151 611 104 566 q 263 679 198 657 q 404 701 328 701 q 454 698 430 701 q 500 689 479 694 l 500 765 l 315 765 l 315 886 l 500 886 l 500 958 l 665 958 l 665 886 l 754 886 l 754 765 l 665 765 l 665 0 l 522 0 m 225 339 q 255 176 225 225 q 342 126 284 126 q 382 135 363 126 q 420 160 401 144 q 459 200 439 177 q 500 253 478 224 l 500 554 q 453 566 480 562 q 396 571 425 571 q 325 555 356 571 q 271 509 293 538 q 237 436 249 479 q 225 339 225 393 z "},"è":{"ha":764,"x_min":0,"x_max":694,"o":"m 694 397 q 693 353 694 380 q 690 302 692 326 l 237 302 q 251 222 237 257 q 291 164 265 188 q 352 129 316 141 q 431 117 387 117 q 538 124 481 117 q 657 150 595 132 l 657 18 q 600 5 631 11 q 536 -6 568 -1 q 470 -13 503 -11 q 406 -16 437 -16 q 264 7 327 -16 q 159 73 202 29 q 92 181 115 117 q 69 330 69 245 q 92 483 69 414 q 157 601 115 552 q 259 677 199 650 q 393 704 319 704 q 523 681 467 704 q 617 618 579 659 q 675 521 655 577 q 694 397 694 465 m 526 421 q 516 492 527 462 q 487 542 505 522 q 443 571 468 562 q 390 581 418 581 q 288 539 328 581 q 240 421 248 497 l 526 421 m 286 958 l 464 781 l 298 781 l 62 958 l 286 958 m 0 689 z "},"é":{"ha":764,"x_min":0,"x_max":700,"o":"m 694 397 q 693 353 694 380 q 690 302 692 326 l 237 302 q 251 222 237 257 q 291 164 265 188 q 352 129 316 141 q 431 117 387 117 q 538 124 481 117 q 657 150 595 132 l 657 18 q 600 5 631 11 q 536 -6 568 -1 q 470 -13 503 -11 q 406 -16 437 -16 q 264 7 327 -16 q 159 73 202 29 q 92 181 115 117 q 69 330 69 245 q 92 483 69 414 q 157 601 115 552 q 259 677 199 650 q 393 704 319 704 q 523 681 467 704 q 617 618 579 659 q 675 521 655 577 q 694 397 694 465 m 526 421 q 516 492 527 462 q 487 542 505 522 q 443 571 468 562 q 390 581 418 581 q 288 539 328 581 q 240 421 248 497 l 526 421 m 464 781 l 298 781 l 476 958 l 700 958 l 464 781 m 0 689 z "},"ê":{"ha":764,"x_min":0,"x_max":694,"o":"m 694 397 q 693 353 694 380 q 690 302 692 326 l 237 302 q 251 222 237 257 q 291 164 265 188 q 352 129 316 141 q 431 117 387 117 q 538 124 481 117 q 657 150 595 132 l 657 18 q 600 5 631 11 q 536 -6 568 -1 q 470 -13 503 -11 q 406 -16 437 -16 q 264 7 327 -16 q 159 73 202 29 q 92 181 115 117 q 69 330 69 245 q 92 483 69 414 q 157 601 115 552 q 259 677 199 650 q 393 704 319 704 q 523 681 467 704 q 617 618 579 659 q 675 521 655 577 q 694 397 694 465 m 526 421 q 516 492 527 462 q 487 542 505 522 q 443 571 468 562 q 390 581 418 581 q 288 539 328 581 q 240 421 248 497 l 526 421 m 446 958 l 612 781 l 465 781 l 382 864 l 298 781 l 154 781 l 321 958 l 446 958 m 0 689 z "},"ě":{"ha":764,"x_min":0,"x_max":694,"o":"m 694 397 q 693 353 694 380 q 690 302 692 326 l 237 302 q 251 222 237 257 q 291 164 265 188 q 352 129 316 141 q 431 117 387 117 q 538 124 481 117 q 657 150 595 132 l 657 18 q 600 5 631 11 q 536 -6 568 -1 q 470 -13 503 -11 q 406 -16 437 -16 q 264 7 327 -16 q 159 73 202 29 q 92 181 115 117 q 69 330 69 245 q 92 483 69 414 q 157 601 115 552 q 259 677 199 650 q 393 704 319 704 q 523 681 467 704 q 617 618 579 659 q 675 521 655 577 q 694 397 694 465 m 526 421 q 516 492 527 462 q 487 542 505 522 q 443 571 468 562 q 390 581 418 581 q 288 539 328 581 q 240 421 248 497 l 526 421 m 319 781 l 153 958 l 300 958 l 383 875 l 467 958 l 611 958 l 444 781 l 319 781 m 0 689 z "},"ë":{"ha":764,"x_min":0,"x_max":694,"o":"m 694 397 q 693 353 694 380 q 690 302 692 326 l 237 302 q 251 222 237 257 q 291 164 265 188 q 352 129 316 141 q 431 117 387 117 q 538 124 481 117 q 657 150 595 132 l 657 18 q 600 5 631 11 q 536 -6 568 -1 q 470 -13 503 -11 q 406 -16 437 -16 q 264 7 327 -16 q 159 73 202 29 q 92 181 115 117 q 69 330 69 245 q 92 483 69 414 q 157 601 115 552 q 259 677 199 650 q 393 704 319 704 q 523 681 467 704 q 617 618 579 659 q 675 521 655 577 q 694 397 694 465 m 526 421 q 516 492 527 462 q 487 542 505 522 q 443 571 468 562 q 390 581 418 581 q 288 539 328 581 q 240 421 248 497 l 526 421 m 333 876 q 326 840 333 857 q 306 811 318 823 q 276 791 294 798 q 240 783 259 783 q 204 791 221 783 q 175 811 187 798 q 155 840 162 823 q 147 876 147 857 q 155 912 147 895 q 175 942 162 930 q 204 962 187 955 q 240 970 221 970 q 276 962 259 970 q 306 942 294 955 q 326 912 318 930 q 333 876 333 895 m 616 876 q 609 840 616 857 q 589 811 602 823 q 559 791 576 798 q 524 783 543 783 q 487 791 504 783 q 458 811 471 798 q 438 840 445 823 q 431 876 431 857 q 438 912 431 895 q 458 942 445 930 q 487 962 471 955 q 524 970 504 970 q 559 962 543 970 q 589 942 576 955 q 609 912 602 930 q 616 876 616 895 m 0 689 z "},"ē":{"ha":764,"x_min":0,"x_max":694,"o":"m 694 397 q 693 353 694 380 q 690 302 692 326 l 237 302 q 251 222 237 257 q 291 164 265 188 q 352 129 316 141 q 431 117 387 117 q 538 124 481 117 q 657 150 595 132 l 657 18 q 600 5 631 11 q 536 -6 568 -1 q 470 -13 503 -11 q 406 -16 437 -16 q 264 7 327 -16 q 159 73 202 29 q 92 181 115 117 q 69 330 69 245 q 92 483 69 414 q 157 601 115 552 q 259 677 199 650 q 393 704 319 704 q 523 681 467 704 q 617 618 579 659 q 675 521 655 577 q 694 397 694 465 m 526 421 q 516 492 527 462 q 487 542 505 522 q 443 571 468 562 q 390 581 418 581 q 288 539 328 581 q 240 421 248 497 l 526 421 m 193 817 l 193 935 l 571 935 l 571 817 l 193 817 m 0 689 z "},"ĕ":{"ha":764,"x_min":0,"x_max":694,"o":"m 694 397 q 693 353 694 380 q 690 302 692 326 l 237 302 q 251 222 237 257 q 291 164 265 188 q 352 129 316 141 q 431 117 387 117 q 538 124 481 117 q 657 150 595 132 l 657 18 q 600 5 631 11 q 536 -6 568 -1 q 470 -13 503 -11 q 406 -16 437 -16 q 264 7 327 -16 q 159 73 202 29 q 92 181 115 117 q 69 330 69 245 q 92 483 69 414 q 157 601 115 552 q 259 677 199 650 q 393 704 319 704 q 523 681 467 704 q 617 618 579 659 q 675 521 655 577 q 694 397 694 465 m 526 421 q 516 492 527 462 q 487 542 505 522 q 443 571 468 562 q 390 581 418 581 q 288 539 328 581 q 240 421 248 497 l 526 421 m 577 958 q 564 885 577 920 q 525 826 550 851 q 463 786 499 800 q 380 771 426 771 q 298 786 334 771 q 237 827 262 801 q 199 886 212 852 q 186 958 186 920 l 309 958 q 314 930 309 943 q 329 907 319 917 q 352 891 338 897 q 381 885 365 885 q 433 904 412 885 q 454 958 454 922 l 577 958 m 0 689 z "},"ė":{"ha":764,"x_min":0,"x_max":694,"o":"m 694 397 q 693 353 694 380 q 690 302 692 326 l 237 302 q 251 222 237 257 q 291 164 265 188 q 352 129 316 141 q 431 117 387 117 q 538 124 481 117 q 657 150 595 132 l 657 18 q 600 5 631 11 q 536 -6 568 -1 q 470 -13 503 -11 q 406 -16 437 -16 q 264 7 327 -16 q 159 73 202 29 q 92 181 115 117 q 69 330 69 245 q 92 483 69 414 q 157 601 115 552 q 259 677 199 650 q 393 704 319 704 q 523 681 467 704 q 617 618 579 659 q 675 521 655 577 q 694 397 694 465 m 526 421 q 516 492 527 462 q 487 542 505 522 q 443 571 468 562 q 390 581 418 581 q 288 539 328 581 q 240 421 248 497 l 526 421 m 489 878 q 481 837 489 856 q 458 804 473 819 q 425 782 444 790 q 382 774 405 774 q 341 782 360 774 q 307 804 321 790 q 285 837 293 819 q 277 878 277 856 q 285 918 277 899 q 307 951 293 937 q 341 974 321 966 q 382 982 360 982 q 423 974 404 982 q 457 951 443 966 q 480 918 472 937 q 489 878 489 899 m 0 689 z "},"ę":{"ha":764,"x_min":69,"x_max":694,"o":"m 600 -261 q 551 -271 578 -267 q 503 -275 524 -275 q 430 -266 459 -275 q 382 -240 400 -256 q 355 -202 363 -224 q 347 -154 347 -180 q 350 -120 347 -137 q 361 -87 353 -104 q 381 -53 368 -71 q 414 -16 394 -35 l 406 -16 q 264 7 327 -16 q 159 73 202 29 q 92 181 115 117 q 69 330 69 245 q 92 483 69 414 q 157 601 115 552 q 259 677 199 650 q 393 704 319 704 q 523 681 467 704 q 617 618 579 659 q 675 521 655 577 q 694 397 694 465 q 693 353 694 380 q 690 302 692 326 l 237 302 q 251 222 237 257 q 291 164 265 188 q 352 129 316 141 q 431 117 387 117 q 538 124 481 117 q 657 150 595 132 l 657 18 q 573 0 618 7 q 532 -44 547 -26 q 510 -77 517 -63 q 499 -103 502 -92 q 497 -125 497 -115 q 508 -156 497 -146 q 550 -167 519 -167 q 575 -165 560 -167 q 600 -161 589 -163 l 600 -261 m 526 421 q 516 492 527 462 q 487 542 505 522 q 443 571 468 562 q 390 581 418 581 q 288 539 328 581 q 240 421 248 497 l 526 421 z "},"ﬁ":{"ha":764,"x_min":0,"x_max":664,"o":"m 664 0 l 501 0 l 501 490 l 292 490 l 292 0 l 129 0 l 129 490 l 22 490 l 22 619 l 129 619 l 129 692 q 152 819 129 766 q 217 906 174 872 q 321 956 260 940 q 460 971 382 971 q 506 969 482 971 q 554 964 530 968 q 600 957 578 961 q 642 947 623 952 l 642 814 q 603 825 625 820 q 558 833 581 829 q 510 838 534 836 q 465 840 486 840 q 395 832 427 840 q 340 807 363 825 q 304 762 317 789 q 292 694 292 734 l 292 619 l 664 619 l 664 0 m 0 689 z "},"ﬂ":{"ha":764,"x_min":0,"x_max":664,"o":"m 664 0 l 501 0 l 501 836 q 476 839 492 838 q 446 840 460 840 q 329 806 366 840 q 292 694 292 772 l 292 619 l 415 619 l 415 490 l 292 490 l 292 0 l 129 0 l 129 490 l 22 490 l 22 619 l 129 619 l 129 692 q 152 819 129 766 q 216 906 174 872 q 316 956 257 940 q 447 971 374 971 q 555 965 502 971 q 664 947 609 960 l 664 0 m 0 689 z "},"ĝ":{"ha":764,"x_min":0,"x_max":720,"o":"m 611 568 q 638 518 630 545 q 646 465 646 492 q 626 363 646 408 q 569 290 606 319 q 483 244 533 260 q 371 229 432 229 q 304 236 335 229 q 258 253 274 243 q 239 228 247 241 q 231 196 231 214 q 236 174 231 185 q 252 155 241 163 q 277 141 262 146 q 310 135 292 136 l 473 129 q 573 115 528 127 q 649 79 617 102 q 698 23 681 56 q 715 -52 715 -9 q 694 -142 715 -100 q 628 -217 672 -185 q 519 -267 585 -248 q 368 -285 454 -285 q 225 -272 285 -285 q 126 -235 165 -258 q 70 -178 88 -211 q 52 -106 52 -145 q 58 -62 52 -82 q 76 -23 64 -41 q 106 14 88 -4 q 150 49 125 31 q 99 98 117 68 q 82 161 82 127 q 88 204 82 184 q 104 243 94 224 q 127 278 114 261 q 154 311 140 295 q 112 372 129 336 q 96 461 96 408 q 116 564 96 519 q 174 640 137 609 q 261 687 210 671 q 371 703 311 703 q 430 700 401 703 q 481 689 458 696 l 720 689 l 720 568 l 611 568 m 221 -92 q 261 -151 221 -132 q 375 -170 302 -170 q 454 -161 422 -170 q 507 -138 486 -152 q 536 -104 527 -123 q 545 -65 545 -85 q 536 -34 545 -47 q 512 -13 528 -22 q 476 0 497 -5 q 431 5 456 4 l 285 8 q 253 -18 265 -5 q 233 -42 240 -30 q 223 -66 226 -54 q 221 -92 221 -78 m 249 461 q 281 374 249 406 q 371 342 313 342 q 424 352 401 342 q 462 379 447 362 q 484 418 477 396 q 492 465 492 441 q 459 555 492 523 q 370 587 427 587 q 316 577 339 587 q 279 550 294 567 q 256 509 264 532 q 249 461 249 486 m 446 958 l 612 781 l 465 781 l 382 864 l 298 781 l 154 781 l 321 958 l 446 958 m 0 689 z "},"ğ":{"ha":764,"x_min":0,"x_max":720,"o":"m 611 568 q 638 518 630 545 q 646 465 646 492 q 626 363 646 408 q 569 290 606 319 q 483 244 533 260 q 371 229 432 229 q 304 236 335 229 q 258 253 274 243 q 239 228 247 241 q 231 196 231 214 q 236 174 231 185 q 252 155 241 163 q 277 141 262 146 q 310 135 292 136 l 473 129 q 573 115 528 127 q 649 79 617 102 q 698 23 681 56 q 715 -52 715 -9 q 694 -142 715 -100 q 628 -217 672 -185 q 519 -267 585 -248 q 368 -285 454 -285 q 225 -272 285 -285 q 126 -235 165 -258 q 70 -178 88 -211 q 52 -106 52 -145 q 58 -62 52 -82 q 76 -23 64 -41 q 106 14 88 -4 q 150 49 125 31 q 99 98 117 68 q 82 161 82 127 q 88 204 82 184 q 104 243 94 224 q 127 278 114 261 q 154 311 140 295 q 112 372 129 336 q 96 461 96 408 q 116 564 96 519 q 174 640 137 609 q 261 687 210 671 q 371 703 311 703 q 430 700 401 703 q 481 689 458 696 l 720 689 l 720 568 l 611 568 m 221 -92 q 261 -151 221 -132 q 375 -170 302 -170 q 454 -161 422 -170 q 507 -138 486 -152 q 536 -104 527 -123 q 545 -65 545 -85 q 536 -34 545 -47 q 512 -13 528 -22 q 476 0 497 -5 q 431 5 456 4 l 285 8 q 253 -18 265 -5 q 233 -42 240 -30 q 223 -66 226 -54 q 221 -92 221 -78 m 249 461 q 281 374 249 406 q 371 342 313 342 q 424 352 401 342 q 462 379 447 362 q 484 418 477 396 q 492 465 492 441 q 459 555 492 523 q 370 587 427 587 q 316 577 339 587 q 279 550 294 567 q 256 509 264 532 q 249 461 249 486 m 577 958 q 564 885 577 920 q 525 826 550 851 q 463 786 499 800 q 380 771 426 771 q 298 786 334 771 q 237 827 262 801 q 199 886 212 852 q 186 958 186 920 l 309 958 q 314 930 309 943 q 329 907 319 917 q 352 891 338 897 q 381 885 365 885 q 433 904 412 885 q 454 958 454 922 l 577 958 m 0 689 z "},"ġ":{"ha":764,"x_min":0,"x_max":720,"o":"m 611 568 q 638 518 630 545 q 646 465 646 492 q 626 363 646 408 q 569 290 606 319 q 483 244 533 260 q 371 229 432 229 q 304 236 335 229 q 258 253 274 243 q 239 228 247 241 q 231 196 231 214 q 236 174 231 185 q 252 155 241 163 q 277 141 262 146 q 310 135 292 136 l 473 129 q 573 115 528 127 q 649 79 617 102 q 698 23 681 56 q 715 -52 715 -9 q 694 -142 715 -100 q 628 -217 672 -185 q 519 -267 585 -248 q 368 -285 454 -285 q 225 -272 285 -285 q 126 -235 165 -258 q 70 -178 88 -211 q 52 -106 52 -145 q 58 -62 52 -82 q 76 -23 64 -41 q 106 14 88 -4 q 150 49 125 31 q 99 98 117 68 q 82 161 82 127 q 88 204 82 184 q 104 243 94 224 q 127 278 114 261 q 154 311 140 295 q 112 372 129 336 q 96 461 96 408 q 116 564 96 519 q 174 640 137 609 q 261 687 210 671 q 371 703 311 703 q 430 700 401 703 q 481 689 458 696 l 720 689 l 720 568 l 611 568 m 221 -92 q 261 -151 221 -132 q 375 -170 302 -170 q 454 -161 422 -170 q 507 -138 486 -152 q 536 -104 527 -123 q 545 -65 545 -85 q 536 -34 545 -47 q 512 -13 528 -22 q 476 0 497 -5 q 431 5 456 4 l 285 8 q 253 -18 265 -5 q 233 -42 240 -30 q 223 -66 226 -54 q 221 -92 221 -78 m 249 461 q 281 374 249 406 q 371 342 313 342 q 424 352 401 342 q 462 379 447 362 q 484 418 477 396 q 492 465 492 441 q 459 555 492 523 q 370 587 427 587 q 316 577 339 587 q 279 550 294 567 q 256 509 264 532 q 249 461 249 486 m 489 878 q 481 837 489 856 q 458 804 473 819 q 425 782 444 790 q 382 774 405 774 q 341 782 360 774 q 307 804 321 790 q 285 837 293 819 q 277 878 277 856 q 285 918 277 899 q 307 951 293 937 q 341 974 321 966 q 382 982 360 982 q 423 974 404 982 q 457 951 443 966 q 480 918 472 937 q 489 878 489 899 m 0 689 z "},"ģ":{"ha":764,"x_min":0,"x_max":720,"o":"m 611 568 q 638 518 630 545 q 646 465 646 492 q 626 363 646 408 q 569 290 606 319 q 483 244 533 260 q 371 229 432 229 q 304 236 335 229 q 258 253 274 243 q 239 228 247 241 q 231 196 231 214 q 236 174 231 185 q 252 155 241 163 q 277 141 262 146 q 310 135 292 136 l 473 129 q 573 115 528 127 q 649 79 617 102 q 698 23 681 56 q 715 -52 715 -9 q 694 -142 715 -100 q 628 -217 672 -185 q 519 -267 585 -248 q 368 -285 454 -285 q 225 -272 285 -285 q 126 -235 165 -258 q 70 -178 88 -211 q 52 -106 52 -145 q 58 -62 52 -82 q 76 -23 64 -41 q 106 14 88 -4 q 150 49 125 31 q 99 98 117 68 q 82 161 82 127 q 88 204 82 184 q 104 243 94 224 q 127 278 114 261 q 154 311 140 295 q 112 372 129 336 q 96 461 96 408 q 116 564 96 519 q 174 640 137 609 q 261 687 210 671 q 371 703 311 703 q 430 700 401 703 q 481 689 458 696 l 720 689 l 720 568 l 611 568 m 221 -92 q 261 -151 221 -132 q 375 -170 302 -170 q 454 -161 422 -170 q 507 -138 486 -152 q 536 -104 527 -123 q 545 -65 545 -85 q 536 -34 545 -47 q 512 -13 528 -22 q 476 0 497 -5 q 431 5 456 4 l 285 8 q 253 -18 265 -5 q 233 -42 240 -30 q 223 -66 226 -54 q 221 -92 221 -78 m 249 461 q 281 374 249 406 q 371 342 313 342 q 424 352 401 342 q 462 379 447 362 q 484 418 477 396 q 492 465 492 441 q 459 555 492 523 q 370 587 427 587 q 316 577 339 587 q 279 550 294 567 q 256 509 264 532 q 249 461 249 486 m 304 794 l 376 994 l 507 994 l 458 794 l 304 794 m 0 689 z "},"ĥ":{"ha":764,"x_min":0,"x_max":671,"o":"m 505 0 l 505 449 q 421 562 505 562 q 341 528 379 562 q 260 436 302 494 l 260 0 l 94 0 l 94 958 l 260 958 l 260 722 l 252 597 q 294 643 273 623 q 341 676 316 663 q 395 697 366 690 q 460 704 425 704 q 552 687 513 704 q 618 638 591 669 q 657 562 644 606 q 671 463 671 517 l 671 0 l 505 0 m 614 1028 l 465 1028 l 382 1092 l 298 1028 l 153 1028 l 314 1181 l 453 1181 l 614 1028 m 0 934 z "},"ħ":{"ha":764,"x_min":0,"x_max":664,"o":"m 267 692 l 258 566 q 341 646 295 618 q 454 673 388 673 q 549 656 509 673 q 614 608 589 640 q 652 532 640 576 q 664 432 664 487 l 664 0 l 498 0 l 498 418 q 481 504 498 474 q 418 534 464 534 q 383 527 399 534 q 349 505 367 520 q 312 466 332 490 q 267 407 292 441 l 267 0 l 102 0 l 102 758 l 0 758 l 0 882 l 102 882 l 102 958 l 267 958 l 267 882 l 447 882 l 447 758 l 267 758 l 267 692 m 0 704 z "},"ì":{"ha":764,"x_min":14,"x_max":685,"o":"m 317 560 l 122 560 l 122 689 l 486 689 l 486 129 l 685 129 l 685 0 l 98 0 l 98 129 l 317 129 l 317 560 m 300 958 l 477 781 l 312 781 l 76 958 l 300 958 m 14 689 z "},"í":{"ha":764,"x_min":14,"x_max":713,"o":"m 317 560 l 122 560 l 122 689 l 486 689 l 486 129 l 685 129 l 685 0 l 98 0 l 98 129 l 317 129 l 317 560 m 477 781 l 312 781 l 490 958 l 713 958 l 477 781 m 14 689 z "},"î":{"ha":764,"x_min":0,"x_max":685,"o":"m 317 560 l 122 560 l 122 689 l 486 689 l 486 129 l 685 129 l 685 0 l 98 0 l 98 129 l 317 129 l 317 560 m 446 958 l 612 781 l 465 781 l 382 864 l 298 781 l 154 781 l 321 958 l 446 958 m 0 689 z "},"ĩ":{"ha":764,"x_min":14,"x_max":685,"o":"m 317 560 l 122 560 l 122 689 l 486 689 l 486 129 l 685 129 l 685 0 l 98 0 l 98 129 l 317 129 l 317 560 m 651 885 q 585 804 623 830 q 492 778 547 778 q 424 789 452 778 q 375 815 397 801 q 336 841 354 829 q 296 852 317 852 q 252 837 271 852 q 214 791 233 821 l 140 865 q 206 946 168 920 q 300 972 244 972 q 367 960 340 972 q 416 935 395 948 q 456 909 437 921 q 496 897 474 897 q 540 913 521 897 q 577 958 559 929 l 651 885 m 14 689 z "},"ï":{"ha":764,"x_min":14,"x_max":685,"o":"m 317 560 l 122 560 l 122 689 l 486 689 l 486 129 l 685 129 l 685 0 l 98 0 l 98 129 l 317 129 l 317 560 m 347 876 q 339 840 347 857 q 319 811 332 823 q 290 791 307 798 q 254 783 273 783 q 218 791 235 783 q 188 811 201 798 q 168 840 176 823 q 161 876 161 857 q 168 912 161 895 q 188 942 176 930 q 218 962 201 955 q 254 970 235 970 q 290 962 273 970 q 319 942 307 955 q 339 912 332 930 q 347 876 347 895 m 630 876 q 623 840 630 857 q 603 811 616 823 q 573 791 590 798 q 537 783 556 783 q 501 791 517 783 q 471 811 484 798 q 451 840 458 823 q 444 876 444 857 q 451 912 444 895 q 471 942 458 930 q 501 962 484 955 q 537 970 517 970 q 573 962 556 970 q 603 942 590 955 q 623 912 616 930 q 630 876 630 895 m 14 689 z "},"ī":{"ha":764,"x_min":14,"x_max":685,"o":"m 317 560 l 122 560 l 122 689 l 486 689 l 486 129 l 685 129 l 685 0 l 98 0 l 98 129 l 317 129 l 317 560 m 206 817 l 206 935 l 585 935 l 585 817 l 206 817 m 14 689 z "},"ĭ":{"ha":764,"x_min":14,"x_max":685,"o":"m 317 560 l 122 560 l 122 689 l 486 689 l 486 129 l 685 129 l 685 0 l 98 0 l 98 129 l 317 129 l 317 560 m 591 958 q 577 885 591 920 q 538 826 564 851 q 476 786 513 800 q 393 771 439 771 q 311 786 347 771 q 251 827 275 801 q 213 886 226 852 q 200 958 200 920 l 323 958 q 328 930 323 943 q 342 907 333 917 q 365 891 352 897 q 395 885 378 885 q 447 904 425 885 q 468 958 468 922 l 591 958 m 14 689 z "},"į":{"ha":764,"x_min":98,"x_max":711,"o":"m 711 -261 q 663 -271 690 -267 q 614 -275 635 -275 q 541 -266 571 -275 q 493 -240 511 -256 q 467 -202 475 -224 q 458 -154 458 -180 q 462 -118 458 -136 q 475 -81 466 -100 q 501 -42 485 -62 q 542 0 517 -22 l 98 0 l 98 129 l 317 129 l 317 560 l 122 560 l 122 689 l 486 689 l 486 129 l 685 129 l 685 0 q 644 -44 659 -26 q 621 -77 629 -63 q 611 -103 613 -92 q 608 -125 608 -115 q 620 -156 608 -146 q 661 -167 631 -167 q 686 -165 672 -167 q 711 -161 701 -163 l 711 -261 m 500 878 q 492 836 500 855 q 469 801 484 816 q 435 778 454 787 q 392 770 415 770 q 349 778 369 770 q 314 801 329 787 q 292 836 300 816 q 283 878 283 855 q 292 920 283 900 q 314 954 300 939 q 349 978 329 969 q 392 986 369 986 q 435 978 415 986 q 469 954 454 969 q 492 920 484 939 q 500 878 500 900 z "},"ı":{"ha":764,"x_min":98,"x_max":685,"o":"m 317 560 l 122 560 l 122 689 l 486 689 l 486 129 l 685 129 l 685 0 l 98 0 l 98 129 l 317 129 l 317 560 z "},"ĳ":{"ha":764,"x_min":71,"x_max":695,"o":"m 671 17 q 652 -122 671 -65 q 597 -216 633 -180 q 512 -269 562 -252 q 399 -285 461 -285 q 325 -281 360 -285 q 258 -268 290 -277 l 258 -127 q 286 -138 271 -133 q 320 -146 302 -142 q 356 -152 338 -150 q 392 -154 374 -154 q 480 -114 454 -154 q 505 8 505 -73 l 505 689 l 671 689 l 671 17 m 260 689 l 260 0 l 94 0 l 94 689 l 260 689 m 283 878 q 275 836 283 855 q 253 802 267 817 q 219 779 239 787 q 178 771 200 771 q 135 779 155 771 q 101 802 115 787 q 79 836 87 817 q 71 878 71 855 q 79 919 71 899 q 101 952 87 938 q 135 975 115 966 q 178 983 155 983 q 219 975 200 983 q 253 952 239 966 q 275 919 267 938 q 283 878 283 899 m 695 878 q 687 836 695 855 q 664 802 679 817 q 630 779 650 787 q 589 771 611 771 q 546 779 566 771 q 513 802 527 787 q 490 836 498 817 q 482 878 482 855 q 490 919 482 899 q 513 952 498 938 q 546 975 527 966 q 589 983 566 983 q 630 975 611 983 q 664 952 650 966 q 687 919 679 938 q 695 878 695 899 z "},"ȷ":{"ha":764,"x_min":81,"x_max":599,"o":"m 599 20 q 576 -115 599 -58 q 511 -210 553 -172 q 409 -266 469 -248 q 277 -285 350 -285 q 165 -275 217 -285 q 81 -250 114 -264 l 81 -98 q 124 -118 100 -109 q 174 -136 148 -128 q 227 -148 200 -144 q 281 -153 254 -153 q 393 -109 356 -153 q 431 18 431 -66 l 431 560 l 103 560 l 103 689 l 599 689 l 599 20 z "},"ĵ":{"ha":764,"x_min":12,"x_max":624,"o":"m 599 20 q 576 -115 599 -58 q 511 -210 553 -172 q 409 -266 469 -248 q 277 -285 350 -285 q 165 -275 217 -285 q 81 -250 114 -264 l 81 -98 q 124 -118 100 -109 q 174 -136 148 -128 q 227 -148 200 -144 q 281 -153 254 -153 q 393 -109 356 -153 q 431 18 431 -66 l 431 560 l 103 560 l 103 689 l 599 689 l 599 20 m 457 958 l 624 781 l 477 781 l 393 864 l 310 781 l 165 781 l 332 958 l 457 958 m 12 689 z "},"ķ":{"ha":764,"x_min":101,"x_max":737,"o":"m 521 0 l 267 345 l 267 0 l 101 0 l 101 958 l 267 958 l 267 397 l 507 689 l 714 689 l 435 375 l 737 0 l 521 0 m 463 -78 l 400 -278 l 269 -278 l 309 -78 l 463 -78 z "},"ĸ":{"ha":764,"x_min":102,"x_max":736,"o":"m 524 0 l 264 345 l 264 0 l 102 0 l 102 689 l 264 689 l 264 397 l 509 689 l 713 689 l 433 375 l 736 0 l 524 0 z "},"ĺ":{"ha":764,"x_min":0,"x_max":685,"o":"m 317 829 l 122 829 l 122 958 l 486 958 l 486 129 l 685 129 l 685 0 l 98 0 l 98 129 l 317 129 l 317 829 m 464 1028 l 298 1028 l 450 1181 l 673 1181 l 464 1028 m 0 934 z "},"ľ":{"ha":764,"x_min":-90,"x_max":767,"o":"m 317 829 l 122 829 l 122 958 l 486 958 l 486 129 l 685 129 l 685 0 l 98 0 l 98 129 l 317 129 l 317 829 m 686 781 l 555 781 l 608 1010 l 767 1010 l 686 781 m -90 689 z "},"ļ":{"ha":764,"x_min":98,"x_max":685,"o":"m 317 829 l 122 829 l 122 958 l 486 958 l 486 129 l 685 129 l 685 0 l 98 0 l 98 129 l 317 129 l 317 829 m 490 -78 l 428 -278 l 297 -278 l 336 -78 l 490 -78 z "},"ł":{"ha":764,"x_min":98,"x_max":685,"o":"m 138 463 l 317 553 l 317 829 l 122 829 l 122 958 l 486 958 l 486 637 l 665 728 l 665 579 l 486 489 l 486 129 l 685 129 l 685 0 l 98 0 l 98 129 l 317 129 l 317 404 l 138 314 l 138 463 z "},"ŀ":{"ha":764,"x_min":58,"x_max":876,"o":"m 276 829 l 81 829 l 81 958 l 446 958 l 446 129 l 644 129 l 644 0 l 58 0 l 58 129 l 276 129 l 276 829 m 742 555 q 795 545 770 555 q 837 516 819 534 q 865 474 855 498 q 876 422 876 450 q 865 371 876 395 q 837 329 855 347 q 795 301 819 311 q 742 290 770 290 q 691 301 715 290 q 650 329 667 311 q 622 371 632 347 q 612 422 612 395 q 622 474 612 450 q 650 516 632 498 q 691 545 667 534 q 742 555 715 555 z "},"ń":{"ha":764,"x_min":0,"x_max":700,"o":"m 505 0 l 505 449 q 421 562 505 562 q 341 528 379 562 q 260 436 302 494 l 260 0 l 94 0 l 94 689 l 237 689 l 241 587 q 285 635 262 614 q 334 672 308 657 q 391 696 361 688 q 460 704 422 704 q 552 687 513 704 q 618 638 591 669 q 657 562 644 606 q 671 463 671 517 l 671 0 l 505 0 m 464 781 l 298 781 l 476 958 l 700 958 l 464 781 m 0 689 z "},"ň":{"ha":764,"x_min":0,"x_max":671,"o":"m 505 0 l 505 449 q 421 562 505 562 q 341 528 379 562 q 260 436 302 494 l 260 0 l 94 0 l 94 689 l 237 689 l 241 587 q 285 635 262 614 q 334 672 308 657 q 391 696 361 688 q 460 704 422 704 q 552 687 513 704 q 618 638 591 669 q 657 562 644 606 q 671 463 671 517 l 671 0 l 505 0 m 319 781 l 153 958 l 300 958 l 383 875 l 467 958 l 611 958 l 444 781 l 319 781 m 0 689 z "},"ñ":{"ha":764,"x_min":0,"x_max":671,"o":"m 505 0 l 505 449 q 421 562 505 562 q 341 528 379 562 q 260 436 302 494 l 260 0 l 94 0 l 94 689 l 237 689 l 241 587 q 285 635 262 614 q 334 672 308 657 q 391 696 361 688 q 460 704 422 704 q 552 687 513 704 q 618 638 591 669 q 657 562 644 606 q 671 463 671 517 l 671 0 l 505 0 m 637 885 q 571 804 609 830 q 478 778 533 778 q 411 789 438 778 q 362 815 383 801 q 322 841 340 829 q 282 852 304 852 q 238 837 257 852 q 200 791 219 821 l 126 865 q 193 946 155 920 q 286 972 231 972 q 354 960 326 972 q 402 935 381 948 q 442 909 424 921 q 482 897 460 897 q 526 913 507 897 q 564 958 545 929 l 637 885 m 0 689 z "},"ņ":{"ha":764,"x_min":94,"x_max":671,"o":"m 505 0 l 505 449 q 421 562 505 562 q 341 528 379 562 q 260 436 302 494 l 260 0 l 94 0 l 94 689 l 237 689 l 241 587 q 285 635 262 614 q 334 672 308 657 q 391 696 361 688 q 460 704 422 704 q 552 687 513 704 q 618 638 591 669 q 657 562 644 606 q 671 463 671 517 l 671 0 l 505 0 m 463 -78 l 400 -278 l 269 -278 l 309 -78 l 463 -78 z "},"ŉ":{"ha":764,"x_min":0,"x_max":684,"o":"m 519 0 l 519 449 q 435 562 519 562 q 354 528 393 562 q 273 436 316 494 l 273 0 l 108 0 l 108 689 l 251 689 l 255 587 q 299 635 276 614 q 348 672 321 657 q 405 696 374 688 q 473 704 435 704 q 566 687 526 704 q 631 638 605 669 q 671 562 658 606 q 684 463 684 517 l 684 0 l 519 0 m 0 808 q 72 822 47 808 q 97 867 97 836 q 89 898 97 886 q 72 921 81 910 q 54 944 62 931 q 46 981 46 958 q 52 1011 46 997 q 69 1038 58 1026 q 96 1056 80 1049 q 132 1063 112 1063 q 177 1053 157 1063 q 210 1024 197 1042 q 231 982 224 1006 q 237 930 237 958 q 223 849 237 886 q 179 783 209 811 q 105 740 150 755 q 0 724 60 724 l 0 808 m 0 689 z "},"ŋ":{"ha":764,"x_min":94,"x_max":671,"o":"m 671 20 q 649 -115 671 -58 q 585 -210 627 -172 q 485 -266 544 -248 q 353 -285 426 -285 l 353 -153 q 467 -109 429 -153 q 505 18 505 -66 l 505 449 q 421 562 505 562 q 341 528 379 562 q 260 436 302 494 l 260 0 l 94 0 l 94 689 l 237 689 l 241 587 q 285 635 262 614 q 334 672 308 657 q 391 696 361 688 q 460 704 422 704 q 552 687 513 704 q 618 638 591 669 q 657 562 644 606 q 671 463 671 517 l 671 20 z "},"ò":{"ha":764,"x_min":0,"x_max":715,"o":"m 715 350 q 692 201 715 269 q 625 85 669 134 q 519 11 582 37 q 375 -16 456 -16 q 238 7 298 -16 q 136 74 178 29 q 71 185 94 118 q 49 340 49 252 q 72 490 49 422 q 139 604 96 557 q 246 678 183 652 q 389 704 309 704 q 526 681 466 704 q 629 614 587 659 q 693 503 671 569 q 715 350 715 437 m 543 346 q 502 507 543 453 q 383 561 462 561 q 309 544 340 561 q 259 497 279 527 q 230 429 239 468 q 221 345 221 389 q 264 182 221 237 q 383 127 308 127 q 455 144 425 127 q 505 190 486 161 q 533 260 524 220 q 543 346 543 300 m 286 958 l 464 781 l 298 781 l 62 958 l 286 958 m 0 689 z "},"ó":{"ha":764,"x_min":0,"x_max":715,"o":"m 715 350 q 692 201 715 269 q 625 85 669 134 q 519 11 582 37 q 375 -16 456 -16 q 238 7 298 -16 q 136 74 178 29 q 71 185 94 118 q 49 340 49 252 q 72 490 49 422 q 139 604 96 557 q 246 678 183 652 q 389 704 309 704 q 526 681 466 704 q 629 614 587 659 q 693 503 671 569 q 715 350 715 437 m 543 346 q 502 507 543 453 q 383 561 462 561 q 309 544 340 561 q 259 497 279 527 q 230 429 239 468 q 221 345 221 389 q 264 182 221 237 q 383 127 308 127 q 455 144 425 127 q 505 190 486 161 q 533 260 524 220 q 543 346 543 300 m 464 781 l 298 781 l 476 958 l 700 958 l 464 781 m 0 689 z "},"ô":{"ha":764,"x_min":0,"x_max":715,"o":"m 715 350 q 692 201 715 269 q 625 85 669 134 q 519 11 582 37 q 375 -16 456 -16 q 238 7 298 -16 q 136 74 178 29 q 71 185 94 118 q 49 340 49 252 q 72 490 49 422 q 139 604 96 557 q 246 678 183 652 q 389 704 309 704 q 526 681 466 704 q 629 614 587 659 q 693 503 671 569 q 715 350 715 437 m 543 346 q 502 507 543 453 q 383 561 462 561 q 309 544 340 561 q 259 497 279 527 q 230 429 239 468 q 221 345 221 389 q 264 182 221 237 q 383 127 308 127 q 455 144 425 127 q 505 190 486 161 q 533 260 524 220 q 543 346 543 300 m 446 958 l 612 781 l 465 781 l 382 864 l 298 781 l 154 781 l 321 958 l 446 958 m 0 689 z "},"õ":{"ha":764,"x_min":0,"x_max":715,"o":"m 715 350 q 692 201 715 269 q 625 85 669 134 q 519 11 582 37 q 375 -16 456 -16 q 238 7 298 -16 q 136 74 178 29 q 71 185 94 118 q 49 340 49 252 q 72 490 49 422 q 139 604 96 557 q 246 678 183 652 q 389 704 309 704 q 526 681 466 704 q 629 614 587 659 q 693 503 671 569 q 715 350 715 437 m 543 346 q 502 507 543 453 q 383 561 462 561 q 309 544 340 561 q 259 497 279 527 q 230 429 239 468 q 221 345 221 389 q 264 182 221 237 q 383 127 308 127 q 455 144 425 127 q 505 190 486 161 q 533 260 524 220 q 543 346 543 300 m 637 885 q 571 804 609 830 q 478 778 533 778 q 411 789 438 778 q 362 815 383 801 q 322 841 340 829 q 282 852 304 852 q 238 837 257 852 q 200 791 219 821 l 126 865 q 193 946 155 920 q 286 972 231 972 q 354 960 326 972 q 402 935 381 948 q 442 909 424 921 q 482 897 460 897 q 526 913 507 897 q 564 958 545 929 l 637 885 m 0 689 z "},"ö":{"ha":764,"x_min":0,"x_max":715,"o":"m 715 350 q 692 201 715 269 q 625 85 669 134 q 519 11 582 37 q 375 -16 456 -16 q 238 7 298 -16 q 136 74 178 29 q 71 185 94 118 q 49 340 49 252 q 72 490 49 422 q 139 604 96 557 q 246 678 183 652 q 389 704 309 704 q 526 681 466 704 q 629 614 587 659 q 693 503 671 569 q 715 350 715 437 m 543 346 q 502 507 543 453 q 383 561 462 561 q 309 544 340 561 q 259 497 279 527 q 230 429 239 468 q 221 345 221 389 q 264 182 221 237 q 383 127 308 127 q 455 144 425 127 q 505 190 486 161 q 533 260 524 220 q 543 346 543 300 m 333 876 q 326 840 333 857 q 306 811 318 823 q 276 791 294 798 q 240 783 259 783 q 204 791 221 783 q 175 811 187 798 q 155 840 162 823 q 147 876 147 857 q 155 912 147 895 q 175 942 162 930 q 204 962 187 955 q 240 970 221 970 q 276 962 259 970 q 306 942 294 955 q 326 912 318 930 q 333 876 333 895 m 616 876 q 609 840 616 857 q 589 811 602 823 q 559 791 576 798 q 524 783 543 783 q 487 791 504 783 q 458 811 471 798 q 438 840 445 823 q 431 876 431 857 q 438 912 431 895 q 458 942 445 930 q 487 962 471 955 q 524 970 504 970 q 559 962 543 970 q 589 942 576 955 q 609 912 602 930 q 616 876 616 895 m 0 689 z "},"ō":{"ha":764,"x_min":0,"x_max":715,"o":"m 715 350 q 692 201 715 269 q 625 85 669 134 q 519 11 582 37 q 375 -16 456 -16 q 238 7 298 -16 q 136 74 178 29 q 71 185 94 118 q 49 340 49 252 q 72 490 49 422 q 139 604 96 557 q 246 678 183 652 q 389 704 309 704 q 526 681 466 704 q 629 614 587 659 q 693 503 671 569 q 715 350 715 437 m 543 346 q 502 507 543 453 q 383 561 462 561 q 309 544 340 561 q 259 497 279 527 q 230 429 239 468 q 221 345 221 389 q 264 182 221 237 q 383 127 308 127 q 455 144 425 127 q 505 190 486 161 q 533 260 524 220 q 543 346 543 300 m 193 817 l 193 935 l 571 935 l 571 817 l 193 817 m 0 689 z "},"ŏ":{"ha":764,"x_min":0,"x_max":715,"o":"m 715 350 q 692 201 715 269 q 625 85 669 134 q 519 11 582 37 q 375 -16 456 -16 q 238 7 298 -16 q 136 74 178 29 q 71 185 94 118 q 49 340 49 252 q 72 490 49 422 q 139 604 96 557 q 246 678 183 652 q 389 704 309 704 q 526 681 466 704 q 629 614 587 659 q 693 503 671 569 q 715 350 715 437 m 543 346 q 502 507 543 453 q 383 561 462 561 q 309 544 340 561 q 259 497 279 527 q 230 429 239 468 q 221 345 221 389 q 264 182 221 237 q 383 127 308 127 q 455 144 425 127 q 505 190 486 161 q 533 260 524 220 q 543 346 543 300 m 577 958 q 564 885 577 920 q 525 826 550 851 q 463 786 499 800 q 380 771 426 771 q 298 786 334 771 q 237 827 262 801 q 199 886 212 852 q 186 958 186 920 l 309 958 q 314 930 309 943 q 329 907 319 917 q 352 891 338 897 q 381 885 365 885 q 433 904 412 885 q 454 958 454 922 l 577 958 m 0 689 z "},"ő":{"ha":764,"x_min":0,"x_max":802,"o":"m 715 350 q 692 201 715 269 q 625 85 669 134 q 519 11 582 37 q 375 -16 456 -16 q 238 7 298 -16 q 136 74 178 29 q 71 185 94 118 q 49 340 49 252 q 72 490 49 422 q 139 604 96 557 q 246 678 183 652 q 389 704 309 704 q 526 681 466 704 q 629 614 587 659 q 693 503 671 569 q 715 350 715 437 m 543 346 q 502 507 543 453 q 383 561 462 561 q 309 544 340 561 q 259 497 279 527 q 230 429 239 468 q 221 345 221 389 q 264 182 221 237 q 383 127 308 127 q 455 144 425 127 q 505 190 486 161 q 533 260 524 220 q 543 346 543 300 m 315 781 l 168 781 l 304 958 l 493 958 l 315 781 m 586 781 l 436 781 l 596 958 l 802 958 l 586 781 m 0 689 z "},"ø":{"ha":764,"x_min":49,"x_max":715,"o":"m 618 835 l 559 665 q 675 546 634 625 q 715 350 715 467 q 694 207 715 273 q 631 91 673 140 q 526 13 589 41 q 378 -16 463 -16 q 351 -15 364 -16 q 325 -12 338 -14 l 279 -146 l 146 -146 l 204 22 q 89 141 129 62 q 49 340 49 220 q 70 484 49 418 q 134 600 92 551 q 239 676 176 648 q 386 704 302 704 q 412 703 399 704 q 437 701 425 703 l 485 835 l 618 835 m 212 345 q 223 244 212 287 q 256 172 234 201 l 392 569 l 379 569 q 305 551 336 569 q 252 503 273 534 q 222 431 231 472 q 212 345 212 391 m 552 346 q 542 446 552 404 q 507 516 531 488 l 371 119 l 385 119 q 457 137 426 119 q 510 184 489 154 q 542 256 531 215 q 552 346 552 298 z "},"ǿ":{"ha":764,"x_min":-40,"x_max":715,"o":"m 618 835 l 559 665 q 675 546 634 625 q 715 350 715 467 q 694 207 715 273 q 631 91 673 140 q 526 13 589 41 q 378 -16 463 -16 q 351 -15 364 -16 q 325 -12 338 -14 l 279 -146 l 146 -146 l 204 22 q 89 141 129 62 q 49 340 49 220 q 70 484 49 418 q 134 600 92 551 q 239 676 176 648 q 386 704 302 704 q 412 703 399 704 q 437 701 425 703 l 485 835 l 618 835 m 212 345 q 223 244 212 287 q 256 172 234 201 l 392 569 l 379 569 q 305 551 336 569 q 252 503 273 534 q 222 431 231 472 q 212 345 212 391 m 552 346 q 542 446 552 404 q 507 516 531 488 l 371 119 l 385 119 q 457 137 426 119 q 510 184 489 154 q 542 256 531 215 q 552 346 552 298 m 424 871 l 258 871 l 410 1023 l 633 1023 l 424 871 m -40 777 z "},"œ":{"ha":764,"x_min":20,"x_max":745,"o":"m 383 93 q 359 49 374 69 q 323 15 343 29 q 278 -7 302 1 q 227 -16 254 -16 q 134 4 173 -16 q 70 65 95 23 q 32 175 44 107 q 20 338 20 242 q 33 487 20 419 q 72 603 45 554 q 140 677 99 651 q 237 704 181 704 q 331 679 290 704 q 393 599 372 653 q 454 676 415 649 q 543 704 492 704 q 634 682 596 704 q 697 619 673 660 q 733 522 722 578 q 745 396 745 465 q 744 376 745 388 q 744 353 744 365 q 743 328 743 340 q 742 307 743 316 l 454 307 q 463 221 454 259 q 488 156 472 183 q 526 115 503 130 q 575 101 548 101 q 644 109 606 101 q 720 132 682 117 l 720 16 q 639 -7 684 1 q 553 -16 595 -16 q 499 -9 525 -16 q 450 11 473 -2 q 411 45 428 24 q 383 93 393 65 m 315 346 q 311 458 315 412 q 296 533 306 504 q 271 574 286 562 q 235 587 256 587 q 200 574 215 587 q 174 531 185 560 q 158 456 163 502 q 153 345 153 410 q 157 231 153 277 q 172 156 162 184 q 197 114 182 127 q 235 101 213 101 q 269 114 254 101 q 294 157 283 127 q 310 233 304 186 q 315 346 315 279 m 612 412 q 593 546 612 505 q 541 587 574 587 q 479 542 500 587 q 454 412 458 497 l 612 412 z "},"þ":{"ha":764,"x_min":94,"x_max":714,"o":"m 714 357 q 687 193 714 262 q 613 78 661 123 q 500 10 565 32 q 358 -12 435 -12 q 307 -9 332 -12 q 260 0 281 -5 l 260 -269 l 94 -269 l 94 958 l 260 958 l 260 733 l 253 597 q 340 675 290 646 q 460 704 390 704 q 568 680 521 704 q 648 610 616 655 q 697 501 680 565 q 714 357 714 437 m 541 350 q 532 447 541 407 q 509 513 524 487 q 472 550 494 538 q 421 562 450 562 q 341 528 379 562 q 260 436 302 494 l 260 135 q 308 123 279 127 q 367 118 337 118 q 438 134 406 118 q 493 180 471 151 q 528 253 516 210 q 541 350 541 296 z "},"ŕ":{"ha":764,"x_min":0,"x_max":706,"o":"m 538 421 q 534 487 539 460 q 518 532 529 514 q 490 557 507 549 q 453 566 474 566 q 377 535 416 566 q 292 436 338 505 l 292 0 l 122 0 l 122 689 l 272 689 l 278 589 q 316 636 295 615 q 364 672 338 657 q 422 696 390 688 q 492 704 454 704 q 584 686 544 704 q 652 633 625 668 q 693 544 680 597 q 704 421 706 491 l 538 421 m 464 781 l 298 781 l 476 958 l 700 958 l 464 781 m 0 689 z "},"ř":{"ha":764,"x_min":0,"x_max":706,"o":"m 538 421 q 534 487 539 460 q 518 532 529 514 q 490 557 507 549 q 453 566 474 566 q 377 535 416 566 q 292 436 338 505 l 292 0 l 122 0 l 122 689 l 272 689 l 278 589 q 316 636 295 615 q 364 672 338 657 q 422 696 390 688 q 492 704 454 704 q 584 686 544 704 q 652 633 625 668 q 693 544 680 597 q 704 421 706 491 l 538 421 m 319 781 l 153 958 l 300 958 l 383 875 l 467 958 l 611 958 l 444 781 l 319 781 m 0 689 z "},"ŗ":{"ha":764,"x_min":122,"x_max":706,"o":"m 538 421 q 534 487 539 460 q 518 532 529 514 q 490 557 507 549 q 453 566 474 566 q 377 535 416 566 q 292 436 338 505 l 292 0 l 122 0 l 122 689 l 272 689 l 278 589 q 316 636 295 615 q 364 672 338 657 q 422 696 390 688 q 492 704 454 704 q 584 686 544 704 q 652 633 625 668 q 693 544 680 597 q 704 421 706 491 l 538 421 m 463 -78 l 400 -278 l 269 -278 l 309 -78 l 463 -78 z "},"ś":{"ha":764,"x_min":0,"x_max":700,"o":"m 663 203 q 636 102 663 144 q 567 34 610 60 q 470 -4 524 8 q 358 -16 415 -16 q 221 -8 282 -16 q 106 12 160 -1 l 106 161 q 233 123 170 135 q 353 111 296 111 q 450 132 418 111 q 482 186 482 153 q 475 214 482 201 q 450 239 469 227 q 397 263 431 251 q 309 292 363 276 q 219 324 258 306 q 156 366 181 342 q 118 423 131 391 q 106 498 106 455 q 125 578 106 541 q 181 643 144 615 q 275 688 219 671 q 407 704 332 704 q 522 697 472 704 q 611 682 572 690 l 611 547 q 500 574 552 566 q 397 582 448 582 q 316 564 347 582 q 285 513 285 545 q 291 485 285 497 q 315 461 297 473 q 365 437 333 450 q 450 410 397 425 q 551 373 510 393 q 616 330 591 354 q 652 274 641 305 q 663 203 663 243 m 464 781 l 298 781 l 476 958 l 700 958 l 464 781 m 0 689 z "},"ŝ":{"ha":764,"x_min":0,"x_max":663,"o":"m 663 203 q 636 102 663 144 q 567 34 610 60 q 470 -4 524 8 q 358 -16 415 -16 q 221 -8 282 -16 q 106 12 160 -1 l 106 161 q 233 123 170 135 q 353 111 296 111 q 450 132 418 111 q 482 186 482 153 q 475 214 482 201 q 450 239 469 227 q 397 263 431 251 q 309 292 363 276 q 219 324 258 306 q 156 366 181 342 q 118 423 131 391 q 106 498 106 455 q 125 578 106 541 q 181 643 144 615 q 275 688 219 671 q 407 704 332 704 q 522 697 472 704 q 611 682 572 690 l 611 547 q 500 574 552 566 q 397 582 448 582 q 316 564 347 582 q 285 513 285 545 q 291 485 285 497 q 315 461 297 473 q 365 437 333 450 q 450 410 397 425 q 551 373 510 393 q 616 330 591 354 q 652 274 641 305 q 663 203 663 243 m 446 958 l 612 781 l 465 781 l 382 864 l 298 781 l 154 781 l 321 958 l 446 958 m 0 689 z "},"š":{"ha":764,"x_min":0,"x_max":663,"o":"m 663 203 q 636 102 663 144 q 567 34 610 60 q 470 -4 524 8 q 358 -16 415 -16 q 221 -8 282 -16 q 106 12 160 -1 l 106 161 q 233 123 170 135 q 353 111 296 111 q 450 132 418 111 q 482 186 482 153 q 475 214 482 201 q 450 239 469 227 q 397 263 431 251 q 309 292 363 276 q 219 324 258 306 q 156 366 181 342 q 118 423 131 391 q 106 498 106 455 q 125 578 106 541 q 181 643 144 615 q 275 688 219 671 q 407 704 332 704 q 522 697 472 704 q 611 682 572 690 l 611 547 q 500 574 552 566 q 397 582 448 582 q 316 564 347 582 q 285 513 285 545 q 291 485 285 497 q 315 461 297 473 q 365 437 333 450 q 450 410 397 425 q 551 373 510 393 q 616 330 591 354 q 652 274 641 305 q 663 203 663 243 m 319 781 l 153 958 l 300 958 l 383 875 l 467 958 l 611 958 l 444 781 l 319 781 m 0 689 z "},"ş":{"ha":764,"x_min":106,"x_max":663,"o":"m 663 203 q 647 123 663 158 q 606 63 632 89 q 544 21 579 38 q 467 -4 508 5 l 395 -200 l 273 -200 l 312 -15 q 202 -6 252 -13 q 106 12 151 1 l 106 161 q 233 123 170 135 q 353 111 296 111 q 450 132 418 111 q 482 186 482 153 q 475 214 482 201 q 450 239 469 227 q 397 263 431 251 q 309 292 363 276 q 219 324 258 306 q 156 366 181 342 q 118 423 131 391 q 106 498 106 455 q 125 578 106 541 q 181 643 144 615 q 275 688 219 671 q 407 704 332 704 q 522 697 472 704 q 611 682 572 690 l 611 547 q 500 574 552 566 q 397 582 448 582 q 316 564 347 582 q 285 513 285 545 q 291 485 285 497 q 315 461 297 473 q 365 437 333 450 q 450 410 397 425 q 551 373 510 393 q 616 330 591 354 q 652 274 641 305 q 663 203 663 243 z "},"ș":{"ha":764,"x_min":106,"x_max":663,"o":"m 663 203 q 636 102 663 144 q 567 34 610 60 q 470 -4 524 8 q 358 -16 415 -16 q 221 -8 282 -16 q 106 12 160 -1 l 106 161 q 233 123 170 135 q 353 111 296 111 q 450 132 418 111 q 482 186 482 153 q 475 214 482 201 q 450 239 469 227 q 397 263 431 251 q 309 292 363 276 q 219 324 258 306 q 156 366 181 342 q 118 423 131 391 q 106 498 106 455 q 125 578 106 541 q 181 643 144 615 q 275 688 219 671 q 407 704 332 704 q 522 697 472 704 q 611 682 572 690 l 611 547 q 500 574 552 566 q 397 582 448 582 q 316 564 347 582 q 285 513 285 545 q 291 485 285 497 q 315 461 297 473 q 365 437 333 450 q 450 410 397 425 q 551 373 510 393 q 616 330 591 354 q 652 274 641 305 q 663 203 663 243 m 463 -78 l 400 -278 l 269 -278 l 309 -78 l 463 -78 z "},"ß":{"ha":764,"x_min":94,"x_max":728,"o":"m 728 200 q 709 112 728 151 q 656 46 690 73 q 574 4 622 18 q 468 -11 526 -11 q 399 -8 433 -11 q 342 0 366 -5 l 342 135 q 398 123 367 127 q 458 118 429 118 q 505 123 486 118 q 534 137 524 128 q 550 158 545 146 q 554 183 554 170 q 538 232 554 211 q 499 273 523 254 q 448 313 475 293 q 397 360 420 334 q 357 419 373 386 q 342 500 342 453 q 353 560 342 534 q 381 607 364 586 q 417 644 397 627 q 453 679 436 661 q 480 716 469 696 q 492 762 492 736 q 483 798 492 783 q 460 824 475 813 q 425 839 445 834 q 380 844 404 844 q 291 808 321 844 q 260 697 260 772 l 260 0 l 94 0 l 94 692 q 117 816 94 764 q 179 903 139 869 q 272 955 218 938 q 389 971 326 971 q 497 958 448 971 q 583 919 547 944 q 638 857 618 893 q 659 774 659 820 q 648 704 659 733 q 621 654 637 675 q 585 616 604 633 q 549 585 566 600 q 522 552 533 570 q 511 511 511 535 q 527 466 511 486 q 567 428 543 446 q 620 390 591 410 q 672 344 648 370 q 712 283 696 318 q 728 200 728 248 z "},"ſ":{"ha":764,"x_min":178,"x_max":710,"o":"m 178 648 q 197 772 178 713 q 258 876 216 831 q 366 947 300 921 q 525 974 432 974 q 623 968 574 974 q 710 953 671 962 l 710 814 q 671 825 692 820 q 626 833 649 829 q 580 838 603 836 q 538 840 557 840 q 448 827 484 840 q 390 791 412 814 q 358 736 368 768 q 349 667 349 704 l 349 0 l 178 0 l 178 648 z "},"ť":{"ha":764,"x_min":-106,"x_max":751,"o":"m 663 7 q 572 -9 618 -3 q 486 -16 527 -16 q 369 -1 418 -16 q 288 42 320 13 q 240 116 256 71 q 225 224 225 161 l 225 560 l 40 560 l 40 689 l 225 689 l 225 865 l 395 909 l 395 689 l 663 689 l 663 560 l 395 560 l 395 236 q 422 147 395 177 q 513 117 449 117 q 592 123 553 117 q 663 139 631 130 l 663 7 m 671 781 l 540 781 l 593 1010 l 751 1010 l 671 781 m -106 689 z "},"ț":{"ha":764,"x_min":40,"x_max":663,"o":"m 663 7 q 572 -9 618 -3 q 486 -16 527 -16 q 369 -1 418 -16 q 288 42 320 13 q 240 116 256 71 q 225 224 225 161 l 225 560 l 40 560 l 40 689 l 225 689 l 225 865 l 395 909 l 395 689 l 663 689 l 663 560 l 395 560 l 395 236 q 422 147 395 177 q 513 117 449 117 q 592 123 553 117 q 663 139 631 130 l 663 7 m 463 -78 l 400 -278 l 269 -278 l 309 -78 l 463 -78 z "},"ŧ":{"ha":764,"x_min":0,"x_max":663,"o":"m 395 236 q 422 147 395 177 q 513 117 449 117 q 592 123 553 117 q 663 139 631 130 l 663 7 q 572 -9 618 -3 q 486 -16 527 -16 q 369 -1 418 -16 q 288 42 320 13 q 240 116 256 71 q 225 224 225 161 l 225 292 l 68 292 l 68 421 l 225 421 l 225 560 l 40 560 l 40 689 l 225 689 l 225 865 l 395 909 l 395 689 l 663 689 l 663 560 l 395 560 l 395 421 l 621 421 l 621 292 l 395 292 l 395 236 m 0 689 z "},"ù":{"ha":764,"x_min":0,"x_max":669,"o":"m 258 689 l 258 240 q 279 155 258 184 q 343 126 300 126 q 423 160 385 126 q 504 253 461 195 l 504 689 l 669 689 l 669 0 l 526 0 l 522 102 q 478 54 500 75 q 430 17 456 32 q 373 -7 404 1 q 304 -16 342 -16 q 212 2 252 -16 q 146 51 172 19 q 106 127 119 83 q 93 227 93 172 l 93 689 l 258 689 m 286 958 l 464 781 l 298 781 l 62 958 l 286 958 m 0 689 z "},"ú":{"ha":764,"x_min":0,"x_max":700,"o":"m 258 689 l 258 240 q 279 155 258 184 q 343 126 300 126 q 423 160 385 126 q 504 253 461 195 l 504 689 l 669 689 l 669 0 l 526 0 l 522 102 q 478 54 500 75 q 430 17 456 32 q 373 -7 404 1 q 304 -16 342 -16 q 212 2 252 -16 q 146 51 172 19 q 106 127 119 83 q 93 227 93 172 l 93 689 l 258 689 m 464 781 l 298 781 l 476 958 l 700 958 l 464 781 m 0 689 z "},"û":{"ha":764,"x_min":0,"x_max":669,"o":"m 258 689 l 258 240 q 279 155 258 184 q 343 126 300 126 q 423 160 385 126 q 504 253 461 195 l 504 689 l 669 689 l 669 0 l 526 0 l 522 102 q 478 54 500 75 q 430 17 456 32 q 373 -7 404 1 q 304 -16 342 -16 q 212 2 252 -16 q 146 51 172 19 q 106 127 119 83 q 93 227 93 172 l 93 689 l 258 689 m 446 958 l 612 781 l 465 781 l 382 864 l 298 781 l 154 781 l 321 958 l 446 958 m 0 689 z "},"ũ":{"ha":764,"x_min":0,"x_max":669,"o":"m 258 689 l 258 240 q 279 155 258 184 q 343 126 300 126 q 423 160 385 126 q 504 253 461 195 l 504 689 l 669 689 l 669 0 l 526 0 l 522 102 q 478 54 500 75 q 430 17 456 32 q 373 -7 404 1 q 304 -16 342 -16 q 212 2 252 -16 q 146 51 172 19 q 106 127 119 83 q 93 227 93 172 l 93 689 l 258 689 m 637 885 q 571 804 609 830 q 478 778 533 778 q 411 789 438 778 q 362 815 383 801 q 322 841 340 829 q 282 852 304 852 q 238 837 257 852 q 200 791 219 821 l 126 865 q 193 946 155 920 q 286 972 231 972 q 354 960 326 972 q 402 935 381 948 q 442 909 424 921 q 482 897 460 897 q 526 913 507 897 q 564 958 545 929 l 637 885 m 0 689 z "},"ü":{"ha":764,"x_min":0,"x_max":669,"o":"m 258 689 l 258 240 q 279 155 258 184 q 343 126 300 126 q 423 160 385 126 q 504 253 461 195 l 504 689 l 669 689 l 669 0 l 526 0 l 522 102 q 478 54 500 75 q 430 17 456 32 q 373 -7 404 1 q 304 -16 342 -16 q 212 2 252 -16 q 146 51 172 19 q 106 127 119 83 q 93 227 93 172 l 93 689 l 258 689 m 333 876 q 326 840 333 857 q 306 811 318 823 q 276 791 294 798 q 240 783 259 783 q 204 791 221 783 q 175 811 187 798 q 155 840 162 823 q 147 876 147 857 q 155 912 147 895 q 175 942 162 930 q 204 962 187 955 q 240 970 221 970 q 276 962 259 970 q 306 942 294 955 q 326 912 318 930 q 333 876 333 895 m 616 876 q 609 840 616 857 q 589 811 602 823 q 559 791 576 798 q 524 783 543 783 q 487 791 504 783 q 458 811 471 798 q 438 840 445 823 q 431 876 431 857 q 438 912 431 895 q 458 942 445 930 q 487 962 471 955 q 524 970 504 970 q 559 962 543 970 q 589 942 576 955 q 609 912 602 930 q 616 876 616 895 m 0 689 z "},"ū":{"ha":764,"x_min":0,"x_max":669,"o":"m 258 689 l 258 240 q 279 155 258 184 q 343 126 300 126 q 423 160 385 126 q 504 253 461 195 l 504 689 l 669 689 l 669 0 l 526 0 l 522 102 q 478 54 500 75 q 430 17 456 32 q 373 -7 404 1 q 304 -16 342 -16 q 212 2 252 -16 q 146 51 172 19 q 106 127 119 83 q 93 227 93 172 l 93 689 l 258 689 m 193 817 l 193 935 l 571 935 l 571 817 l 193 817 m 0 689 z "},"ŭ":{"ha":764,"x_min":0,"x_max":669,"o":"m 258 689 l 258 240 q 279 155 258 184 q 343 126 300 126 q 423 160 385 126 q 504 253 461 195 l 504 689 l 669 689 l 669 0 l 526 0 l 522 102 q 478 54 500 75 q 430 17 456 32 q 373 -7 404 1 q 304 -16 342 -16 q 212 2 252 -16 q 146 51 172 19 q 106 127 119 83 q 93 227 93 172 l 93 689 l 258 689 m 577 958 q 564 885 577 920 q 525 826 550 851 q 463 786 499 800 q 380 771 426 771 q 298 786 334 771 q 237 827 262 801 q 199 886 212 852 q 186 958 186 920 l 309 958 q 314 930 309 943 q 329 907 319 917 q 352 891 338 897 q 381 885 365 885 q 433 904 412 885 q 454 958 454 922 l 577 958 m 0 689 z "},"ů":{"ha":764,"x_min":0,"x_max":669,"o":"m 258 689 l 258 240 q 279 155 258 184 q 343 126 300 126 q 423 160 385 126 q 504 253 461 195 l 504 689 l 669 689 l 669 0 l 526 0 l 522 102 q 478 54 500 75 q 430 17 456 32 q 373 -7 404 1 q 304 -16 342 -16 q 212 2 252 -16 q 146 51 172 19 q 106 127 119 83 q 93 227 93 172 l 93 689 l 258 689 m 545 899 q 532 838 545 866 q 496 788 519 809 q 445 755 474 767 q 382 743 415 743 q 319 755 349 743 q 267 787 290 766 q 232 836 245 808 q 219 898 219 864 q 232 960 219 932 q 267 1009 245 989 q 319 1041 290 1029 q 382 1053 349 1053 q 445 1041 416 1053 q 497 1009 475 1029 q 532 961 519 989 q 545 899 545 932 m 446 898 q 427 943 446 925 q 382 962 409 962 q 336 943 355 962 q 318 898 318 925 q 336 852 318 871 q 382 834 355 834 q 427 852 409 834 q 446 898 446 871 m 0 689 z "},"ű":{"ha":764,"x_min":0,"x_max":802,"o":"m 258 689 l 258 240 q 279 155 258 184 q 343 126 300 126 q 423 160 385 126 q 504 253 461 195 l 504 689 l 669 689 l 669 0 l 526 0 l 522 102 q 478 54 500 75 q 430 17 456 32 q 373 -7 404 1 q 304 -16 342 -16 q 212 2 252 -16 q 146 51 172 19 q 106 127 119 83 q 93 227 93 172 l 93 689 l 258 689 m 315 781 l 168 781 l 304 958 l 493 958 l 315 781 m 586 781 l 436 781 l 596 958 l 802 958 l 586 781 m 0 689 z "},"ų":{"ha":764,"x_min":93,"x_max":696,"o":"m 696 -261 q 647 -271 674 -267 q 599 -275 620 -275 q 526 -266 555 -275 q 477 -240 496 -256 q 451 -202 459 -224 q 443 -154 443 -180 q 447 -118 443 -136 q 460 -81 450 -100 q 485 -42 469 -62 q 526 0 501 -22 l 522 102 q 478 54 500 75 q 430 17 456 32 q 373 -7 404 1 q 304 -16 342 -16 q 212 2 252 -16 q 146 51 172 19 q 106 127 119 83 q 93 227 93 172 l 93 689 l 258 689 l 258 240 q 279 155 258 184 q 343 126 300 126 q 423 160 385 126 q 504 253 461 195 l 504 689 l 669 689 l 669 0 q 629 -44 644 -26 q 606 -77 614 -63 q 595 -103 597 -92 q 593 -125 593 -115 q 604 -156 593 -146 q 646 -167 615 -167 q 671 -165 656 -167 q 696 -161 685 -163 l 696 -261 z "},"ẁ":{"ha":764,"x_min":0,"x_max":757,"o":"m 660 0 l 476 0 l 403 218 l 380 294 l 358 216 l 288 0 l 103 0 l 5 689 l 163 689 l 212 300 l 224 193 l 252 289 l 321 498 l 447 498 l 521 290 l 553 192 l 566 301 l 607 689 l 757 689 l 660 0 m 286 958 l 464 781 l 298 781 l 62 958 l 286 958 m 0 689 z "},"ẃ":{"ha":764,"x_min":0,"x_max":757,"o":"m 660 0 l 476 0 l 403 218 l 380 294 l 358 216 l 288 0 l 103 0 l 5 689 l 163 689 l 212 300 l 224 193 l 252 289 l 321 498 l 447 498 l 521 290 l 553 192 l 566 301 l 607 689 l 757 689 l 660 0 m 464 781 l 298 781 l 476 958 l 700 958 l 464 781 m 0 689 z "},"ŵ":{"ha":764,"x_min":0,"x_max":757,"o":"m 660 0 l 476 0 l 403 218 l 380 294 l 358 216 l 288 0 l 103 0 l 5 689 l 163 689 l 212 300 l 224 193 l 252 289 l 321 498 l 447 498 l 521 290 l 553 192 l 566 301 l 607 689 l 757 689 l 660 0 m 446 958 l 612 781 l 465 781 l 382 864 l 298 781 l 154 781 l 321 958 l 446 958 m 0 689 z "},"ẅ":{"ha":764,"x_min":0,"x_max":757,"o":"m 660 0 l 476 0 l 403 218 l 380 294 l 358 216 l 288 0 l 103 0 l 5 689 l 163 689 l 212 300 l 224 193 l 252 289 l 321 498 l 447 498 l 521 290 l 553 192 l 566 301 l 607 689 l 757 689 l 660 0 m 333 876 q 326 840 333 857 q 306 811 318 823 q 276 791 294 798 q 240 783 259 783 q 204 791 221 783 q 175 811 187 798 q 155 840 162 823 q 147 876 147 857 q 155 912 147 895 q 175 942 162 930 q 204 962 187 955 q 240 970 221 970 q 276 962 259 970 q 306 942 294 955 q 326 912 318 930 q 333 876 333 895 m 616 876 q 609 840 616 857 q 589 811 602 823 q 559 791 576 798 q 524 783 543 783 q 487 791 504 783 q 458 811 471 798 q 438 840 445 823 q 431 876 431 857 q 438 912 431 895 q 458 942 445 930 q 487 962 471 955 q 524 970 504 970 q 559 962 543 970 q 589 942 576 955 q 609 912 602 930 q 616 876 616 895 m 0 689 z "},"ỳ":{"ha":764,"x_min":0,"x_max":750,"o":"m 509 75 q 434 -82 473 -14 q 348 -194 395 -149 q 244 -262 301 -239 q 115 -285 186 -285 q 78 -283 98 -285 q 37 -278 58 -281 l 37 -138 q 56 -141 45 -139 q 78 -143 66 -142 q 101 -145 90 -144 q 123 -146 113 -146 q 176 -135 152 -146 q 221 -105 201 -124 q 259 -59 242 -85 q 289 0 276 -32 l 16 689 l 200 689 l 343 298 l 386 172 l 428 293 l 572 689 l 750 689 l 509 75 m 286 958 l 464 781 l 298 781 l 62 958 l 286 958 m 0 689 z "},"ý":{"ha":764,"x_min":0,"x_max":750,"o":"m 509 75 q 434 -82 473 -14 q 348 -194 395 -149 q 244 -262 301 -239 q 115 -285 186 -285 q 78 -283 98 -285 q 37 -278 58 -281 l 37 -138 q 56 -141 45 -139 q 78 -143 66 -142 q 101 -145 90 -144 q 123 -146 113 -146 q 176 -135 152 -146 q 221 -105 201 -124 q 259 -59 242 -85 q 289 0 276 -32 l 16 689 l 200 689 l 343 298 l 386 172 l 428 293 l 572 689 l 750 689 l 509 75 m 464 781 l 298 781 l 476 958 l 700 958 l 464 781 m 0 689 z "},"ŷ":{"ha":764,"x_min":0,"x_max":750,"o":"m 509 75 q 434 -82 473 -14 q 348 -194 395 -149 q 244 -262 301 -239 q 115 -285 186 -285 q 78 -283 98 -285 q 37 -278 58 -281 l 37 -138 q 56 -141 45 -139 q 78 -143 66 -142 q 101 -145 90 -144 q 123 -146 113 -146 q 176 -135 152 -146 q 221 -105 201 -124 q 259 -59 242 -85 q 289 0 276 -32 l 16 689 l 200 689 l 343 298 l 386 172 l 428 293 l 572 689 l 750 689 l 509 75 m 446 958 l 612 781 l 465 781 l 382 864 l 298 781 l 154 781 l 321 958 l 446 958 m 0 689 z "},"ÿ":{"ha":764,"x_min":0,"x_max":750,"o":"m 509 75 q 434 -82 473 -14 q 348 -194 395 -149 q 244 -262 301 -239 q 115 -285 186 -285 q 78 -283 98 -285 q 37 -278 58 -281 l 37 -138 q 56 -141 45 -139 q 78 -143 66 -142 q 101 -145 90 -144 q 123 -146 113 -146 q 176 -135 152 -146 q 221 -105 201 -124 q 259 -59 242 -85 q 289 0 276 -32 l 16 689 l 200 689 l 343 298 l 386 172 l 428 293 l 572 689 l 750 689 l 509 75 m 333 876 q 326 840 333 857 q 306 811 318 823 q 276 791 294 798 q 240 783 259 783 q 204 791 221 783 q 175 811 187 798 q 155 840 162 823 q 147 876 147 857 q 155 912 147 895 q 175 942 162 930 q 204 962 187 955 q 240 970 221 970 q 276 962 259 970 q 306 942 294 955 q 326 912 318 930 q 333 876 333 895 m 616 876 q 609 840 616 857 q 589 811 602 823 q 559 791 576 798 q 524 783 543 783 q 487 791 504 783 q 458 811 471 798 q 438 840 445 823 q 431 876 431 857 q 438 912 431 895 q 458 942 445 930 q 487 962 471 955 q 524 970 504 970 q 559 962 543 970 q 589 942 576 955 q 609 912 602 930 q 616 876 616 895 m 0 689 z "},"ź":{"ha":764,"x_min":0,"x_max":700,"o":"m 102 0 l 102 115 l 439 547 l 110 547 l 110 689 l 657 689 l 657 572 l 328 146 l 663 146 l 663 0 l 102 0 m 464 781 l 298 781 l 476 958 l 700 958 l 464 781 m 0 689 z "},"ž":{"ha":764,"x_min":0,"x_max":663,"o":"m 102 0 l 102 115 l 439 547 l 110 547 l 110 689 l 657 689 l 657 572 l 328 146 l 663 146 l 663 0 l 102 0 m 319 781 l 153 958 l 300 958 l 383 875 l 467 958 l 611 958 l 444 781 l 319 781 m 0 689 z "},"ż":{"ha":764,"x_min":0,"x_max":663,"o":"m 102 0 l 102 115 l 439 547 l 110 547 l 110 689 l 657 689 l 657 572 l 328 146 l 663 146 l 663 0 l 102 0 m 489 878 q 481 837 489 856 q 458 804 473 819 q 425 782 444 790 q 382 774 405 774 q 341 782 360 774 q 307 804 321 790 q 285 837 293 819 q 277 878 277 856 q 285 918 277 899 q 307 951 293 937 q 341 974 321 966 q 382 982 360 982 q 423 974 404 982 q 457 951 443 966 q 480 918 472 937 q 489 878 489 899 m 0 689 z "},"&":{"ha":764,"x_min":21,"x_max":783,"o":"m 708 463 q 690 304 708 376 q 639 175 673 233 l 783 0 l 587 0 l 539 58 q 437 3 493 22 q 317 -16 380 -16 q 191 2 246 -16 q 98 54 136 20 q 41 134 60 87 q 21 239 21 181 q 34 327 21 288 q 68 398 47 366 q 119 454 90 429 q 179 500 147 479 l 165 518 q 107 614 127 565 q 86 710 86 663 q 103 801 86 758 q 153 879 120 845 q 234 932 186 912 q 345 953 282 953 q 450 936 404 953 q 528 891 496 920 q 576 825 559 863 q 593 745 593 787 q 575 652 593 692 q 529 582 557 612 q 463 529 500 552 q 387 484 426 505 l 536 300 q 551 375 546 334 q 554 463 555 416 l 708 463 m 184 253 q 195 198 184 223 q 223 156 205 174 q 269 128 242 138 q 328 118 295 118 q 396 129 363 118 q 454 163 428 140 l 260 401 q 205 338 226 373 q 184 253 184 303 m 436 730 q 430 765 436 748 q 411 796 423 783 q 381 817 399 809 q 340 825 363 825 q 299 817 317 825 q 268 794 281 808 q 249 761 256 780 q 243 721 243 742 q 260 651 243 684 q 309 581 278 618 l 310 578 q 359 609 336 593 q 399 644 382 625 q 426 683 416 662 q 436 730 436 705 z "},"`":{"ha":764,"x_min":0,"x_max":464,"o":"m 286 958 l 464 781 l 298 781 l 62 958 l 286 958 m 0 689 z "},"´":{"ha":764,"x_min":0,"x_max":700,"o":"m 464 781 l 298 781 l 476 958 l 700 958 l 464 781 m 0 689 z "},"ˆ":{"ha":764,"x_min":0,"x_max":612,"o":"m 446 958 l 612 781 l 465 781 l 382 864 l 298 781 l 154 781 l 321 958 l 446 958 m 0 689 z "},"ˇ":{"ha":764,"x_min":0,"x_max":611,"o":"m 319 781 l 153 958 l 300 958 l 383 875 l 467 958 l 611 958 l 444 781 l 319 781 m 0 689 z "},"̕":{"ha":764,"x_min":0,"x_max":857,"o":"m 777 781 l 646 781 l 699 1010 l 857 1010 l 777 781 m 0 689 z "},"˜":{"ha":764,"x_min":0,"x_max":637,"o":"m 637 885 q 571 804 609 830 q 478 778 533 778 q 411 789 438 778 q 362 815 383 801 q 322 841 340 829 q 282 852 304 852 q 238 837 257 852 q 200 791 219 821 l 126 865 q 193 946 155 920 q 286 972 231 972 q 354 960 326 972 q 402 935 381 948 q 442 909 424 921 q 482 897 460 897 q 526 913 507 897 q 564 958 545 929 l 637 885 m 0 689 z "},"¨":{"ha":764,"x_min":0,"x_max":616,"o":"m 333 876 q 326 840 333 857 q 306 811 318 823 q 276 791 294 798 q 240 783 259 783 q 204 791 221 783 q 175 811 187 798 q 155 840 162 823 q 147 876 147 857 q 155 912 147 895 q 175 942 162 930 q 204 962 187 955 q 240 970 221 970 q 276 962 259 970 q 306 942 294 955 q 326 912 318 930 q 333 876 333 895 m 616 876 q 609 840 616 857 q 589 811 602 823 q 559 791 576 798 q 524 783 543 783 q 487 791 504 783 q 458 811 471 798 q 438 840 445 823 q 431 876 431 857 q 438 912 431 895 q 458 942 445 930 q 487 962 471 955 q 524 970 504 970 q 559 962 543 970 q 589 942 576 955 q 609 912 602 930 q 616 876 616 895 m 0 689 z "},"¯":{"ha":764,"x_min":0,"x_max":571,"o":"m 193 817 l 193 935 l 571 935 l 571 817 l 193 817 m 0 689 z "},"˘":{"ha":764,"x_min":0,"x_max":577,"o":"m 577 958 q 564 885 577 920 q 525 826 550 851 q 463 786 499 800 q 380 771 426 771 q 298 786 334 771 q 237 827 262 801 q 199 886 212 852 q 186 958 186 920 l 309 958 q 314 930 309 943 q 329 907 319 917 q 352 891 338 897 q 381 885 365 885 q 433 904 412 885 q 454 958 454 922 l 577 958 m 0 689 z "},"˚":{"ha":764,"x_min":0,"x_max":545,"o":"m 545 899 q 532 838 545 866 q 496 788 519 809 q 445 755 474 767 q 382 743 415 743 q 319 755 349 743 q 267 787 290 766 q 232 836 245 808 q 219 898 219 864 q 232 960 219 932 q 267 1009 245 989 q 319 1041 290 1029 q 382 1053 349 1053 q 445 1041 416 1053 q 497 1009 475 1029 q 532 961 519 989 q 545 899 545 932 m 446 898 q 427 943 446 925 q 382 962 409 962 q 336 943 355 962 q 318 898 318 925 q 336 852 318 871 q 382 834 355 834 q 427 852 409 834 q 446 898 446 871 m 0 689 z "},"˝":{"ha":764,"x_min":0,"x_max":802,"o":"m 315 781 l 168 781 l 304 958 l 493 958 l 315 781 m 586 781 l 436 781 l 596 958 l 802 958 l 586 781 m 0 689 z "},"˙":{"ha":764,"x_min":0,"x_max":489,"o":"m 489 878 q 481 837 489 856 q 458 804 473 819 q 425 782 444 790 q 382 774 405 774 q 341 782 360 774 q 307 804 321 790 q 285 837 293 819 q 277 878 277 856 q 285 918 277 899 q 307 951 293 937 q 341 974 321 966 q 382 982 360 982 q 423 974 404 982 q 457 951 443 966 q 480 918 472 937 q 489 878 489 899 m 0 689 z "},"¸":{"ha":764,"x_min":285,"x_max":481,"o":"m 406 -200 l 285 -200 l 326 0 l 481 0 l 406 -200 z "},"˛":{"ha":764,"x_min":439,"x_max":692,"o":"m 692 -261 q 643 -271 670 -267 q 595 -275 616 -275 q 522 -266 551 -275 q 473 -240 492 -256 q 447 -202 455 -224 q 439 -154 439 -180 q 443 -118 439 -136 q 456 -81 446 -100 q 481 -42 465 -62 q 522 0 497 -22 l 665 0 q 625 -44 640 -26 q 602 -77 610 -63 q 591 -103 593 -92 q 589 -125 589 -115 q 600 -156 589 -146 q 642 -167 611 -167 q 667 -165 652 -167 q 692 -161 681 -163 l 692 -261 z "},"̦":{"ha":764,"x_min":269,"x_max":463,"o":"m 463 -78 l 400 -278 l 269 -278 l 309 -78 l 463 -78 z "},"̒":{"ha":764,"x_min":0,"x_max":507,"o":"m 304 794 l 376 994 l 507 994 l 458 794 l 304 794 m 0 689 z "},",":{"ha":764,"x_min":143,"x_max":511,"o":"m 143 -131 q 219 -126 184 -132 q 280 -107 254 -120 q 321 -73 307 -94 q 336 -25 336 -53 q 331 8 336 -5 q 316 34 325 22 q 297 55 307 45 q 279 78 288 66 q 264 105 270 90 q 258 142 258 120 q 266 183 258 163 q 288 218 273 203 q 322 243 302 234 q 370 253 343 253 q 429 238 403 253 q 474 196 456 222 q 502 137 492 170 q 511 66 511 103 q 488 -52 511 3 q 419 -149 465 -108 q 304 -215 373 -191 q 143 -239 235 -239 l 143 -131 z "},";":{"ha":764,"x_min":151,"x_max":519,"o":"m 151 -131 q 227 -126 192 -132 q 289 -107 262 -120 q 330 -73 315 -94 q 345 -25 345 -53 q 339 8 345 -5 q 324 34 333 22 q 306 55 315 45 q 287 78 296 66 q 272 105 278 90 q 267 142 267 120 q 274 183 267 163 q 296 218 281 203 q 331 243 310 234 q 378 253 351 253 q 437 238 411 253 q 482 196 464 222 q 510 137 500 170 q 519 66 519 103 q 496 -52 519 3 q 428 -149 473 -108 q 313 -215 382 -191 q 151 -239 243 -239 l 151 -131 m 382 696 q 430 686 408 696 q 469 660 452 677 q 494 621 485 644 q 504 574 504 599 q 494 526 504 548 q 469 487 485 503 q 430 461 452 471 q 382 452 408 452 q 334 461 356 452 q 295 487 312 471 q 269 526 279 503 q 260 574 260 548 q 269 621 260 599 q 295 660 279 644 q 334 686 312 677 q 382 696 356 696 z "},":":{"ha":764,"x_min":260,"x_max":504,"o":"m 382 696 q 430 686 408 696 q 469 660 452 677 q 494 621 485 644 q 504 574 504 599 q 494 526 504 548 q 469 487 485 503 q 430 461 452 471 q 382 452 408 452 q 334 461 356 452 q 295 487 312 471 q 269 526 279 503 q 260 574 260 548 q 269 621 260 599 q 295 660 279 644 q 334 686 312 677 q 382 696 356 696 m 382 229 q 430 219 408 229 q 469 193 452 210 q 494 155 485 177 q 504 107 504 132 q 494 59 504 81 q 469 20 485 37 q 430 -6 452 3 q 382 -16 408 -16 q 334 -6 356 -16 q 295 20 312 3 q 269 59 279 37 q 260 107 260 81 q 269 155 260 132 q 295 193 279 177 q 334 219 312 210 q 382 229 356 229 z "},".":{"ha":764,"x_min":248,"x_max":511,"o":"m 378 250 q 431 240 406 250 q 473 211 455 229 q 501 169 491 193 q 511 117 511 144 q 501 65 511 90 q 473 23 491 41 q 431 -5 455 5 q 378 -16 406 -16 q 327 -5 351 -16 q 286 23 303 5 q 258 65 268 41 q 248 117 248 90 q 258 169 248 144 q 286 211 268 193 q 327 240 303 229 q 378 250 351 250 z "},"…":{"ha":764,"x_min":24,"x_max":745,"o":"m 222 87 q 214 47 222 66 q 192 15 206 28 q 160 -7 178 1 q 121 -16 142 -16 q 83 -7 101 -16 q 53 15 66 1 q 32 47 39 28 q 24 87 24 66 q 32 126 24 108 q 53 158 39 144 q 83 179 66 172 q 121 187 101 187 q 160 179 142 187 q 192 158 178 172 q 214 126 206 144 q 222 87 222 108 m 484 87 q 475 47 484 66 q 453 15 467 28 q 421 -7 439 1 q 382 -16 403 -16 q 345 -7 362 -16 q 314 15 327 1 q 293 47 300 28 q 285 87 285 66 q 293 126 285 108 q 314 158 300 144 q 345 179 327 172 q 382 187 362 187 q 421 179 403 187 q 453 158 439 172 q 475 126 467 144 q 484 87 484 108 m 745 87 q 736 47 745 66 q 714 15 728 28 q 682 -7 701 1 q 643 -16 664 -16 q 606 -7 623 -16 q 575 15 588 1 q 554 47 562 28 q 546 87 546 66 q 554 126 546 108 q 575 158 562 144 q 606 179 588 172 q 643 187 623 187 q 682 179 664 187 q 714 158 701 172 q 736 126 728 144 q 745 87 745 108 z "},"-":{"ha":764,"x_min":171,"x_max":593,"o":"m 171 296 l 171 443 l 593 443 l 593 296 l 171 296 z "},"!":{"ha":764,"x_min":277,"x_max":488,"o":"m 453 275 l 311 275 l 286 958 l 478 958 l 453 275 m 382 196 q 423 188 404 196 q 456 165 442 180 q 479 132 471 151 q 488 90 488 113 q 479 48 488 68 q 456 15 471 29 q 423 -7 442 1 q 382 -16 404 -16 q 341 -7 360 -16 q 307 15 321 1 q 285 48 293 29 q 277 90 277 68 q 285 132 277 113 q 307 165 293 151 q 341 188 321 180 q 382 196 360 196 z "},"¡":{"ha":764,"x_min":277,"x_max":488,"o":"m 311 414 l 453 414 l 478 -269 l 286 -269 l 311 414 m 382 493 q 341 501 360 493 q 307 524 321 509 q 285 557 293 538 q 277 599 277 576 q 285 641 277 621 q 307 674 293 660 q 341 696 321 688 q 382 704 360 704 q 423 696 404 704 q 456 674 442 688 q 479 641 471 660 q 488 599 488 621 q 479 557 488 576 q 456 524 471 538 q 423 501 442 509 q 382 493 404 493 z "},"?":{"ha":764,"x_min":191,"x_max":654,"o":"m 654 664 q 637 562 654 607 q 588 484 620 517 q 510 431 555 451 q 408 403 465 410 l 401 275 l 260 275 l 248 530 l 346 530 q 403 540 379 530 q 443 566 427 549 q 465 603 458 582 q 472 648 472 625 q 458 709 472 681 q 415 759 444 737 q 340 792 385 780 q 231 804 294 804 l 191 804 l 191 958 l 237 958 q 420 933 342 958 q 550 868 498 909 q 628 774 602 827 q 654 664 654 721 m 443 93 q 434 51 443 71 q 410 16 425 31 q 375 -7 395 1 q 332 -16 355 -16 q 289 -7 309 -16 q 254 16 269 1 q 230 51 239 31 q 221 93 221 71 q 230 135 221 115 q 254 170 239 155 q 289 193 269 184 q 332 201 309 201 q 375 193 355 201 q 410 170 395 184 q 434 135 425 155 q 443 93 443 115 z "},"¿":{"ha":764,"x_min":110,"x_max":574,"o":"m 110 25 q 127 127 110 82 q 176 205 144 172 q 254 258 208 238 q 355 286 299 279 l 363 414 l 504 414 l 517 158 l 418 158 q 360 149 385 158 q 321 123 336 139 q 299 86 306 107 q 292 40 292 64 q 306 -21 292 7 q 349 -70 319 -49 q 424 -103 378 -91 q 533 -115 470 -115 l 574 -115 l 574 -269 l 526 -269 q 344 -244 422 -269 q 214 -179 266 -220 q 136 -85 162 -138 q 110 25 110 -32 m 321 596 q 330 638 321 618 q 354 672 338 658 q 389 695 369 687 q 432 704 409 704 q 475 695 455 704 q 510 672 495 687 q 534 638 526 658 q 543 596 543 618 q 534 554 543 574 q 510 519 526 534 q 475 496 495 505 q 432 488 455 488 q 389 496 409 488 q 354 519 369 505 q 330 554 338 534 q 321 596 321 574 z "},"‽":{"ha":764,"x_min":124,"x_max":656,"o":"m 366 275 l 224 275 l 208 804 q 164 804 187 804 l 124 804 l 124 953 l 171 953 q 204 952 187 953 l 199 1087 l 391 1087 l 387 940 q 475 916 429 935 q 563 864 522 897 q 630 777 604 830 q 656 665 656 724 q 638 562 656 607 q 589 482 621 516 q 503 425 556 448 q 371 397 450 401 l 366 275 m 405 93 q 396 51 405 71 q 372 16 387 31 q 337 -7 357 1 q 294 -16 317 -16 q 251 -7 271 -16 q 216 16 231 1 q 192 51 201 31 q 183 93 183 71 q 192 135 183 115 q 216 170 201 155 q 251 193 231 184 q 294 201 271 201 q 337 193 317 201 q 372 170 357 184 q 396 135 387 155 q 405 93 405 115 m 483 648 q 467 714 483 684 q 427 763 451 745 q 382 786 404 780 l 374 521 q 411 532 391 523 q 449 558 431 541 q 475 598 467 575 q 483 648 483 622 z "},"‘":{"ha":764,"x_min":253,"x_max":621,"o":"m 621 863 q 545 858 580 863 q 484 839 510 852 q 443 806 458 826 q 428 757 428 785 q 434 723 428 737 q 448 698 439 709 q 467 676 456 687 q 485 654 477 666 q 499 627 494 642 q 505 590 505 612 q 498 549 505 569 q 476 514 490 530 q 442 489 463 498 q 395 479 421 479 q 335 495 361 479 q 290 536 309 510 q 262 595 272 562 q 253 665 253 629 q 276 784 253 728 q 345 881 299 840 q 459 947 391 923 q 621 971 528 971 l 621 863 z "},"’":{"ha":764,"x_min":143,"x_max":511,"o":"m 143 587 q 219 592 184 586 q 280 611 254 598 q 321 644 307 624 q 336 693 336 665 q 331 727 336 713 q 316 752 325 741 q 297 773 307 763 q 279 796 288 784 q 264 823 270 808 q 258 860 258 838 q 266 901 258 881 q 288 937 273 921 q 322 962 302 952 q 370 971 343 971 q 429 956 403 971 q 474 914 456 940 q 502 855 492 888 q 511 785 511 821 q 488 666 511 722 q 419 569 465 610 q 304 504 373 528 q 143 479 235 479 l 143 587 z "},"“":{"ha":764,"x_min":56,"x_max":726,"o":"m 371 867 q 262 851 300 869 q 224 790 224 833 q 233 752 224 766 q 254 725 243 738 q 275 695 266 711 q 285 652 285 679 q 278 614 285 632 q 257 581 271 595 q 225 558 244 567 q 182 550 205 550 q 129 563 152 550 q 89 598 105 576 q 64 649 73 620 q 56 711 56 679 q 75 815 56 768 q 134 897 95 863 q 233 951 174 932 q 371 971 292 971 l 371 867 m 726 867 q 617 851 655 869 q 579 790 579 833 q 589 752 579 766 q 610 725 598 738 q 631 695 621 711 q 640 652 640 679 q 633 614 640 632 q 613 581 626 595 q 581 558 600 567 q 538 550 562 550 q 484 563 507 550 q 444 598 460 576 q 419 649 428 620 q 411 711 411 679 q 431 815 411 768 q 490 897 450 863 q 588 951 529 932 q 726 971 647 971 l 726 867 z "},"”":{"ha":764,"x_min":37,"x_max":708,"o":"m 393 654 q 503 670 465 652 q 541 730 541 688 q 531 769 541 754 q 510 797 522 783 q 489 826 498 810 q 479 869 479 842 q 487 907 479 889 q 507 940 494 926 q 539 963 520 954 q 582 971 558 971 q 636 958 612 971 q 675 923 659 945 q 700 872 691 901 q 708 810 708 842 q 688 706 708 753 q 630 624 669 659 q 532 570 591 589 q 393 550 473 550 l 393 654 m 37 654 q 147 670 109 652 q 184 730 184 688 q 175 769 184 754 q 154 797 165 783 q 133 826 142 810 q 123 869 123 842 q 131 907 123 889 q 151 940 138 926 q 183 963 164 954 q 227 971 203 971 q 280 958 257 971 q 320 923 304 945 q 344 872 336 901 q 353 810 353 842 q 333 706 353 753 q 274 624 313 659 q 176 570 235 589 q 37 550 117 550 l 37 654 z "},"‚":{"ha":764,"x_min":143,"x_max":511,"o":"m 143 -131 q 219 -126 184 -132 q 280 -107 254 -120 q 321 -73 307 -94 q 336 -25 336 -53 q 331 8 336 -5 q 316 34 325 22 q 297 55 307 45 q 279 78 288 66 q 264 105 270 90 q 258 142 258 120 q 266 183 258 163 q 288 218 273 203 q 322 243 302 234 q 370 253 343 253 q 429 238 403 253 q 474 196 456 222 q 502 137 492 170 q 511 66 511 103 q 488 -52 511 3 q 419 -149 465 -108 q 304 -215 373 -191 q 143 -239 235 -239 l 143 -131 z "},"„":{"ha":764,"x_min":37,"x_max":708,"o":"m 393 -104 q 503 -89 465 -106 q 541 -28 541 -71 q 531 10 541 -4 q 510 38 522 24 q 489 67 498 51 q 479 111 479 83 q 487 149 479 131 q 507 181 494 168 q 539 204 520 195 q 582 212 558 212 q 636 199 612 212 q 675 165 659 186 q 700 114 691 143 q 708 52 708 84 q 688 -52 708 -5 q 630 -134 669 -100 q 532 -189 591 -169 q 393 -208 473 -208 l 393 -104 m 37 -104 q 147 -89 109 -106 q 184 -28 184 -71 q 175 10 184 -4 q 154 38 165 24 q 133 67 142 51 q 123 111 123 83 q 131 149 123 131 q 151 181 138 168 q 183 204 164 195 q 227 212 203 212 q 280 199 257 212 q 320 165 304 186 q 344 114 336 143 q 353 52 353 84 q 333 -52 353 -5 q 274 -134 313 -100 q 176 -189 235 -169 q 37 -208 117 -208 l 37 -104 z "},"‹":{"ha":764,"x_min":176,"x_max":551,"o":"m 348 370 l 551 130 l 437 51 l 176 370 l 439 688 l 551 610 l 348 370 z "},"›":{"ha":764,"x_min":213,"x_max":587,"o":"m 416 370 l 213 610 l 326 688 l 587 370 l 325 51 l 213 130 l 416 370 z "},"«":{"ha":764,"x_min":78,"x_max":676,"o":"m 237 368 l 385 150 l 257 87 l 78 368 l 261 648 l 385 586 l 237 368 m 528 368 l 676 157 l 553 94 l 368 368 l 557 642 l 676 579 l 528 368 z "},"»":{"ha":764,"x_min":87,"x_max":686,"o":"m 526 371 l 379 589 l 507 652 l 686 371 l 503 90 l 379 153 l 526 371 m 236 371 l 87 582 l 211 644 l 396 371 l 207 97 l 87 160 l 236 371 z "},"/":{"ha":764,"x_min":49,"x_max":684,"o":"m 210 -146 l 49 -146 l 522 958 l 684 958 l 210 -146 z "},"|":{"ha":764,"x_min":306,"x_max":458,"o":"m 306 -278 l 306 1111 l 458 1111 l 458 -278 l 306 -278 z "},"–":{"ha":764,"x_min":90,"x_max":673,"o":"m 90 297 l 90 441 l 673 441 l 673 297 l 90 297 z "},"—":{"ha":764,"x_min":-3,"x_max":766,"o":"m -3 297 l -3 441 l 766 441 l 766 297 l -3 297 z "},"―":{"ha":764,"x_min":-3,"x_max":766,"o":"m -3 297 l -3 441 l 766 441 l 766 297 l -3 297 z "},"•":{"ha":764,"x_min":136,"x_max":628,"o":"m 382 623 q 478 603 433 623 q 556 551 523 584 q 609 472 589 517 q 628 376 628 427 q 609 281 628 326 q 556 203 589 236 q 478 150 523 170 q 382 131 433 131 q 286 150 331 131 q 208 203 241 170 q 156 281 175 236 q 136 376 136 326 q 156 472 136 427 q 208 551 175 517 q 286 603 241 584 q 382 623 331 623 z "},"·":{"ha":764,"x_min":252,"x_max":515,"o":"m 382 514 q 435 504 410 514 q 477 475 459 493 q 505 433 495 457 q 515 380 515 408 q 505 330 515 353 q 477 288 495 306 q 435 259 459 270 q 382 249 410 249 q 331 259 355 249 q 290 288 307 270 q 262 330 272 306 q 252 380 252 353 q 262 433 252 408 q 290 475 272 457 q 331 504 307 493 q 382 514 355 514 z "},"(":{"ha":764,"x_min":184,"x_max":612,"o":"m 514 -285 q 267 15 349 -145 q 184 359 184 175 q 209 554 184 463 q 278 727 233 646 q 384 879 322 808 q 518 1011 445 949 l 612 917 q 414 661 480 798 q 347 371 347 523 q 414 75 347 217 q 612 -184 480 -67 l 514 -285 z "},")":{"ha":764,"x_min":155,"x_max":582,"o":"m 253 1011 q 500 712 419 873 q 582 367 582 552 q 557 172 582 264 q 489 -1 533 81 q 385 -153 446 -82 q 250 -285 323 -224 l 155 -191 q 355 66 288 -72 q 421 357 421 205 q 355 652 421 510 q 155 913 288 795 l 253 1011 z "},"[":{"ha":764,"x_min":207,"x_max":564,"o":"m 207 -269 l 207 989 l 564 989 l 564 860 l 359 860 l 359 -140 l 564 -140 l 564 -269 l 207 -269 z "},"]":{"ha":764,"x_min":179,"x_max":534,"o":"m 179 -269 l 179 -140 l 382 -140 l 382 860 l 179 860 l 179 989 l 534 989 l 534 -269 l 179 -269 z "},"{":{"ha":764,"x_min":103,"x_max":616,"o":"m 559 -269 q 350 -202 419 -269 q 281 12 281 -134 l 281 184 q 250 290 281 254 q 146 325 218 325 l 103 325 l 103 453 l 146 453 q 208 461 182 453 q 250 485 234 469 q 274 527 267 501 q 281 587 281 552 l 281 707 q 297 829 281 777 q 347 918 313 882 q 433 971 380 953 q 559 989 486 989 l 616 989 l 616 861 l 574 861 q 515 853 541 861 q 470 828 489 846 q 441 782 451 810 q 431 710 431 753 l 431 591 q 422 505 431 541 q 396 445 414 469 q 351 407 378 420 q 288 389 324 394 q 395 332 360 380 q 431 183 431 283 l 431 11 q 441 -62 431 -33 q 470 -109 451 -92 q 515 -134 489 -127 q 574 -142 541 -142 l 616 -142 l 616 -269 l 559 -269 z "},"}":{"ha":764,"x_min":147,"x_max":661,"o":"m 204 989 q 414 921 345 989 q 484 707 484 854 l 484 593 q 514 488 484 523 q 618 453 545 453 l 661 453 l 661 325 l 618 325 q 555 317 581 325 q 514 293 530 309 q 491 251 498 277 q 484 191 484 226 l 484 12 q 468 -110 484 -58 q 418 -198 452 -163 q 331 -251 384 -233 q 204 -269 278 -269 l 147 -269 l 147 -142 l 191 -142 q 249 -134 223 -142 q 294 -109 275 -127 q 323 -62 313 -91 q 334 9 334 -33 l 334 186 q 342 273 334 237 q 368 333 351 309 q 412 370 385 357 q 476 389 439 383 q 369 446 404 397 q 334 595 334 494 l 334 708 q 323 782 334 752 q 294 829 313 811 q 249 854 275 846 q 191 861 223 861 l 147 861 l 147 989 l 204 989 z "},"*":{"ha":764,"x_min":92,"x_max":672,"o":"m 453 372 l 311 372 l 330 582 l 160 460 l 92 578 l 282 665 l 92 753 l 160 871 l 330 749 l 311 958 l 453 958 l 433 749 l 604 871 l 672 753 l 482 665 l 672 578 l 604 460 l 433 582 l 453 372 z "},"†":{"ha":764,"x_min":109,"x_max":655,"o":"m 463 652 l 463 172 l 298 172 l 298 652 l 109 652 l 109 778 l 298 778 l 298 958 l 463 958 l 463 778 l 655 778 l 655 652 l 463 652 z "},"‡":{"ha":764,"x_min":109,"x_max":655,"o":"m 463 315 l 655 315 l 655 189 l 463 189 l 463 0 l 298 0 l 298 189 l 109 189 l 109 315 l 298 315 l 298 652 l 109 652 l 109 778 l 298 778 l 298 958 l 463 958 l 463 778 l 655 778 l 655 652 l 463 652 l 463 315 z "},"§":{"ha":764,"x_min":61,"x_max":711,"o":"m 591 154 q 613 114 605 138 q 621 60 621 90 q 595 -42 621 0 q 527 -110 569 -83 q 431 -148 485 -136 q 322 -160 378 -160 q 188 -153 248 -160 q 75 -132 128 -146 l 75 12 q 200 -23 138 -13 q 317 -33 262 -33 q 412 -12 380 -33 q 444 41 444 9 q 428 84 444 64 q 384 122 411 103 q 323 159 357 140 q 253 199 288 178 q 182 245 217 220 q 121 301 148 270 q 78 370 94 332 q 61 456 61 408 q 69 511 61 483 q 92 566 77 539 q 130 616 107 593 q 183 659 153 640 q 160 707 169 682 q 151 764 151 732 q 170 845 151 807 q 226 910 189 882 q 318 955 263 939 q 447 971 374 971 q 559 964 510 971 q 647 949 608 957 l 647 812 q 538 838 589 830 q 437 846 488 846 q 357 828 389 846 q 326 778 326 811 q 343 737 326 756 q 387 699 359 718 q 448 662 414 681 q 519 621 483 643 q 589 574 555 600 q 651 518 624 549 q 695 449 678 487 q 711 364 711 411 q 703 300 711 330 q 678 243 694 269 q 640 194 662 216 q 591 154 618 172 m 490 254 q 523 298 512 273 q 534 347 534 323 q 511 409 534 381 q 453 462 488 437 q 373 511 417 487 q 288 564 329 536 q 267 544 276 555 q 251 521 258 533 q 241 496 244 509 q 237 471 237 483 q 261 409 237 436 q 322 357 285 382 q 404 307 359 332 q 490 254 448 283 z "},"¶":{"ha":764,"x_min":50,"x_max":708,"o":"m 708 144 q 686 10 708 67 q 622 -85 663 -47 q 521 -141 581 -123 q 389 -160 462 -160 q 264 -139 325 -160 q 151 -75 203 -117 l 229 39 q 301 -8 260 12 q 393 -28 341 -28 q 507 16 469 -28 q 546 143 546 59 l 546 829 l 457 829 l 457 345 q 275 366 352 345 q 149 426 199 387 q 75 522 99 466 q 50 648 50 578 q 75 775 50 718 q 149 873 100 833 q 271 936 198 914 q 441 958 345 958 l 708 958 l 708 144 z "},"Α":{"ha":764,"x_min":3,"x_max":761,"o":"m 576 0 l 528 175 l 218 175 l 168 0 l 3 0 l 265 886 l 498 886 l 761 0 l 576 0 m 375 724 l 258 311 l 490 311 l 375 724 z "},"Β":{"ha":764,"x_min":87,"x_max":711,"o":"m 87 0 l 87 886 l 374 886 q 601 833 525 886 q 676 673 676 781 q 668 609 676 640 q 644 551 661 577 q 604 504 628 524 q 546 472 579 484 q 609 451 579 467 q 662 409 640 435 q 698 349 685 384 q 711 272 711 315 q 621 68 711 136 q 358 0 530 0 l 87 0 m 503 644 q 494 690 503 669 q 468 724 486 710 q 422 746 450 739 q 354 754 394 754 l 253 754 l 253 519 l 354 519 q 423 529 395 519 q 469 556 451 539 q 495 596 487 574 q 503 644 503 618 m 370 136 q 440 146 410 136 q 490 175 470 157 q 521 217 511 193 q 532 269 532 241 q 489 359 532 327 q 357 392 446 392 l 253 392 l 253 136 l 370 136 z "},"Γ":{"ha":764,"x_min":134,"x_max":677,"o":"m 677 745 l 300 745 l 300 0 l 134 0 l 134 886 l 677 886 l 677 745 z "},"Δ":{"ha":764,"x_min":39,"x_max":725,"o":"m 39 0 l 39 143 l 272 886 l 493 886 l 725 143 l 725 0 l 39 0 m 425 538 l 376 713 l 326 528 l 214 147 l 539 147 l 425 538 z "},"Ε":{"ha":764,"x_min":125,"x_max":659,"o":"m 125 0 l 125 886 l 659 886 l 659 745 l 294 745 l 294 525 l 642 525 l 642 387 l 294 387 l 294 141 l 659 141 l 659 0 l 125 0 z "},"Ζ":{"ha":764,"x_min":71,"x_max":693,"o":"m 71 0 l 71 126 l 476 735 l 83 735 l 83 886 l 688 886 l 688 751 l 279 151 l 693 151 l 693 0 l 71 0 z "},"Η":{"ha":764,"x_min":64,"x_max":699,"o":"m 532 0 l 532 386 l 231 386 l 231 0 l 64 0 l 64 886 l 231 886 l 231 530 l 532 530 l 532 886 l 699 886 l 699 0 l 532 0 z "},"Θ":{"ha":764,"x_min":22,"x_max":742,"o":"m 742 453 q 713 244 742 333 q 635 98 684 156 q 518 13 585 41 q 376 -16 452 -16 q 112 100 201 -16 q 22 435 22 216 q 51 642 22 554 q 130 787 80 730 q 245 873 179 845 q 387 901 312 901 q 541 872 475 901 q 652 785 608 842 q 719 645 696 728 q 742 453 742 562 m 567 439 q 524 674 567 596 q 385 752 480 752 q 301 732 336 752 q 243 672 267 711 q 209 576 220 633 q 197 447 197 519 q 241 211 197 289 q 382 134 286 134 q 465 154 430 134 q 523 213 500 174 q 556 309 545 252 q 567 439 567 366 m 253 525 l 511 525 l 511 387 l 253 387 l 253 525 z "},"Ι":{"ha":764,"x_min":102,"x_max":662,"o":"m 102 750 l 102 886 l 662 886 l 662 750 l 467 750 l 467 138 l 662 138 l 662 0 l 102 0 l 102 138 l 297 138 l 297 750 l 102 750 z "},"Κ":{"ha":764,"x_min":87,"x_max":739,"o":"m 524 0 l 257 429 l 257 0 l 87 0 l 87 886 l 257 886 l 257 483 l 522 886 l 724 886 l 422 464 l 739 0 l 524 0 z "},"Λ":{"ha":764,"x_min":3,"x_max":761,"o":"m 272 886 l 493 886 l 761 0 l 572 0 l 425 533 l 376 708 l 326 524 l 180 0 l 3 0 l 272 886 z "},"Μ":{"ha":764,"x_min":31,"x_max":733,"o":"m 586 0 l 570 501 l 564 701 l 521 566 l 422 264 l 318 264 l 229 566 l 192 701 l 187 505 l 172 0 l 31 0 l 74 886 l 262 886 l 340 635 l 378 493 l 415 627 l 497 886 l 689 886 l 733 0 l 586 0 z "},"Ν":{"ha":764,"x_min":64,"x_max":705,"o":"m 502 0 l 264 529 l 216 643 l 216 275 l 216 0 l 64 0 l 64 886 l 269 886 l 511 354 l 553 250 l 553 642 l 553 886 l 705 886 l 705 0 l 502 0 z "},"Ξ":{"ha":764,"x_min":98,"x_max":665,"o":"m 106 740 l 106 886 l 659 886 l 659 740 l 106 740 m 143 385 l 143 528 l 621 528 l 621 385 l 143 385 m 98 0 l 98 146 l 665 146 l 665 0 l 98 0 z "},"Ο":{"ha":764,"x_min":25,"x_max":739,"o":"m 739 447 q 710 239 739 326 q 633 95 682 151 q 518 12 584 39 q 376 -16 452 -16 q 113 101 201 -16 q 25 439 25 217 q 53 647 25 559 q 131 791 81 734 q 246 874 180 847 q 387 901 312 901 q 650 785 562 901 q 739 447 739 669 m 562 439 q 520 673 562 596 q 382 751 478 751 q 300 731 334 751 q 244 672 266 711 q 212 577 222 633 q 201 447 201 520 q 244 212 201 290 q 382 135 286 135 q 464 155 430 135 q 520 214 498 175 q 552 309 542 252 q 562 439 562 366 z "},"Π":{"ha":764,"x_min":64,"x_max":699,"o":"m 532 0 l 532 742 l 231 742 l 231 0 l 64 0 l 64 886 l 699 886 l 699 0 l 532 0 z "},"Ρ":{"ha":764,"x_min":92,"x_max":707,"o":"m 707 604 q 684 476 707 535 q 615 375 661 418 q 502 309 570 332 q 345 285 434 285 l 260 285 l 260 0 l 92 0 l 92 886 l 351 886 q 504 868 437 886 q 615 813 570 849 q 683 725 660 777 q 707 604 707 672 m 532 593 q 520 657 532 628 q 487 706 509 686 q 429 737 464 726 q 347 748 395 748 l 260 748 l 260 423 l 353 423 q 429 435 396 423 q 485 469 463 447 q 520 523 508 492 q 532 593 532 554 z "},"Σ":{"ha":764,"x_min":69,"x_max":693,"o":"m 283 153 l 693 153 l 693 0 l 69 0 l 69 140 l 340 459 l 83 750 l 83 886 l 688 886 l 688 737 l 311 737 l 552 469 l 283 153 z "},"Τ":{"ha":764,"x_min":54,"x_max":710,"o":"m 467 747 l 467 0 l 296 0 l 296 747 l 54 747 l 54 886 l 710 886 l 710 747 l 467 747 z "},"Υ":{"ha":764,"x_min":7,"x_max":755,"o":"m 465 314 l 465 0 l 295 0 l 295 313 l 7 886 l 192 886 l 322 612 l 382 478 l 441 616 l 578 886 l 755 886 l 465 314 z "},"Φ":{"ha":764,"x_min":0,"x_max":741,"o":"m 461 943 l 461 867 q 672 740 602 845 q 741 453 741 634 q 721 280 741 355 q 663 150 700 204 q 574 63 626 96 q 461 18 523 31 l 461 -57 l 302 -57 l 302 18 q 91 146 160 40 q 22 435 22 252 q 43 606 22 531 q 101 734 64 680 q 189 821 138 788 q 302 867 241 854 l 302 943 l 461 943 m 578 440 q 550 629 578 558 q 461 725 522 699 l 461 160 q 550 259 522 187 q 578 440 578 331 m 186 449 q 214 259 186 330 q 302 160 242 187 l 302 725 q 214 625 243 696 q 186 449 186 554 m 0 886 z "},"Χ":{"ha":764,"x_min":5,"x_max":758,"o":"m 546 0 l 375 326 l 207 0 l 5 0 l 261 454 l 22 886 l 218 886 l 379 578 l 534 886 l 730 886 l 493 454 l 758 0 l 546 0 z "},"Ψ":{"ha":764,"x_min":26,"x_max":737,"o":"m 460 0 l 304 0 l 304 254 q 183 282 235 260 q 96 343 131 305 q 44 432 61 380 q 26 546 26 483 l 26 886 l 184 886 l 184 555 q 217 439 184 480 q 304 387 249 398 l 304 886 l 460 886 l 460 387 q 508 406 486 393 q 546 440 530 418 q 570 492 562 462 q 579 562 579 522 l 579 886 l 737 886 l 737 579 q 717 449 737 506 q 661 351 697 392 q 573 287 624 311 q 460 254 522 262 l 460 0 z "},"Ω":{"ha":764,"x_min":24,"x_max":740,"o":"m 433 0 l 433 115 q 494 175 470 140 q 534 254 519 210 q 556 349 549 298 q 562 460 562 401 q 553 575 562 522 q 524 667 545 629 q 469 728 503 706 q 385 750 435 750 q 301 730 336 750 q 244 672 267 709 q 212 581 222 634 q 201 464 201 528 q 207 354 201 404 q 226 260 212 303 q 267 182 241 218 q 334 117 292 146 l 334 0 l 24 0 l 24 122 l 167 122 q 106 181 133 145 q 62 262 80 217 q 35 358 44 307 q 25 463 25 409 q 53 651 25 569 q 130 788 81 732 q 245 872 179 844 q 387 901 311 901 q 535 874 469 901 q 646 794 600 847 q 715 661 691 741 q 740 475 740 581 q 729 366 740 420 q 697 265 718 312 q 650 180 677 218 q 591 122 623 143 l 740 122 l 740 0 l 433 0 z "},"Ά":{"ha":764,"x_min":-40,"x_max":841,"o":"m 576 0 l 528 175 l 218 175 l 168 0 l 3 0 l 265 886 l 498 886 l 761 0 l 576 0 m 375 724 l 258 311 l 490 311 l 375 724 m 104 743 l -40 743 l 0 972 l 172 972 l 104 743 m 841 886 z "},"Έ":{"ha":764,"x_min":-110,"x_max":771,"o":"m 125 0 l 125 886 l 659 886 l 659 745 l 294 745 l 294 525 l 642 525 l 642 387 l 294 387 l 294 141 l 659 141 l 659 0 l 125 0 m 35 743 l -110 743 l -70 972 l 102 972 l 35 743 m 771 886 z "},"Ή":{"ha":764,"x_min":-151,"x_max":730,"o":"m 532 0 l 532 386 l 231 386 l 231 0 l 64 0 l 64 886 l 231 886 l 231 530 l 532 530 l 532 886 l 699 886 l 699 0 l 532 0 m -7 743 l -151 743 l -111 972 l 61 972 l -7 743 m 730 886 z "},"Ί":{"ha":764,"x_min":-138,"x_max":743,"o":"m 102 750 l 102 886 l 662 886 l 662 750 l 467 750 l 467 138 l 662 138 l 662 0 l 102 0 l 102 138 l 297 138 l 297 750 l 102 750 m 7 743 l -138 743 l -98 972 l 75 972 l 7 743 m 743 886 z "},"Ϊ":{"ha":764,"x_min":0,"x_max":662,"o":"m 102 750 l 102 886 l 662 886 l 662 750 l 467 750 l 467 138 l 662 138 l 662 0 l 102 0 l 102 138 l 297 138 l 297 750 l 102 750 m 325 1053 q 318 1017 325 1034 q 298 987 311 1000 q 268 967 285 975 q 232 960 251 960 q 196 967 212 960 q 166 987 179 975 q 146 1017 153 1000 q 139 1053 139 1034 q 146 1089 139 1072 q 166 1119 153 1106 q 196 1139 179 1131 q 232 1146 212 1146 q 268 1139 251 1146 q 298 1119 285 1131 q 318 1089 311 1106 q 325 1053 325 1072 m 625 1053 q 617 1017 625 1034 q 597 987 610 1000 q 568 967 585 975 q 532 960 551 960 q 496 967 513 960 q 466 987 479 975 q 446 1017 454 1000 q 439 1053 439 1034 q 446 1089 439 1072 q 466 1119 454 1106 q 496 1139 479 1131 q 532 1146 513 1146 q 568 1139 551 1146 q 597 1119 585 1131 q 617 1089 610 1106 q 625 1053 625 1072 m 0 886 z "},"Ό":{"ha":764,"x_min":-131,"x_max":750,"o":"m 739 447 q 710 239 739 326 q 633 95 682 151 q 518 12 584 39 q 376 -16 452 -16 q 113 101 201 -16 q 25 439 25 217 q 53 647 25 559 q 131 791 81 734 q 246 874 180 847 q 387 901 312 901 q 650 785 562 901 q 739 447 739 669 m 562 439 q 520 673 562 596 q 382 751 478 751 q 300 731 334 751 q 244 672 266 711 q 212 577 222 633 q 201 447 201 520 q 244 212 201 290 q 382 135 286 135 q 464 155 430 135 q 520 214 498 175 q 552 309 542 252 q 562 439 562 366 m 14 743 l -131 743 l -91 972 l 81 972 l 14 743 m 750 886 z "},"Ύ":{"ha":764,"x_min":-184,"x_max":755,"o":"m 465 314 l 465 0 l 295 0 l 295 313 l 7 886 l 192 886 l 322 612 l 382 478 l 441 616 l 578 886 l 755 886 l 465 314 m -40 743 l -184 743 l -144 972 l 28 972 l -40 743 m 696 886 z "},"Ϋ":{"ha":764,"x_min":0,"x_max":755,"o":"m 465 314 l 465 0 l 295 0 l 295 313 l 7 886 l 192 886 l 322 612 l 382 478 l 441 616 l 578 886 l 755 886 l 465 314 m 325 1053 q 318 1017 325 1034 q 298 987 311 1000 q 268 967 285 975 q 232 960 251 960 q 196 967 212 960 q 166 987 179 975 q 146 1017 153 1000 q 139 1053 139 1034 q 146 1089 139 1072 q 166 1119 153 1106 q 196 1139 179 1131 q 232 1146 212 1146 q 268 1139 251 1146 q 298 1119 285 1131 q 318 1089 311 1106 q 325 1053 325 1072 m 625 1053 q 617 1017 625 1034 q 597 987 610 1000 q 568 967 585 975 q 532 960 551 960 q 496 967 513 960 q 466 987 479 975 q 446 1017 454 1000 q 439 1053 439 1034 q 446 1089 439 1072 q 466 1119 454 1106 q 496 1139 479 1131 q 532 1146 513 1146 q 568 1139 551 1146 q 597 1119 585 1131 q 617 1089 610 1106 q 625 1053 625 1072 m 0 886 z "},"Ώ":{"ha":764,"x_min":-123,"x_max":758,"o":"m 433 0 l 433 115 q 494 175 470 140 q 534 254 519 210 q 556 349 549 298 q 562 460 562 401 q 553 575 562 522 q 524 667 545 629 q 469 728 503 706 q 385 750 435 750 q 301 730 336 750 q 244 672 267 709 q 212 581 222 634 q 201 464 201 528 q 207 354 201 404 q 226 260 212 303 q 267 182 241 218 q 334 117 292 146 l 334 0 l 24 0 l 24 122 l 167 122 q 106 181 133 145 q 62 262 80 217 q 35 358 44 307 q 25 463 25 409 q 53 651 25 569 q 130 788 81 732 q 245 872 179 844 q 387 901 311 901 q 535 874 469 901 q 646 794 600 847 q 715 661 691 741 q 740 475 740 581 q 729 366 740 420 q 697 265 718 312 q 650 180 677 218 q 591 122 623 143 l 740 122 l 740 0 l 433 0 m 21 743 l -123 743 l -83 972 l 89 972 l 21 743 m 758 886 z "},"α":{"ha":764,"x_min":31,"x_max":757,"o":"m 545 96 q 451 15 507 45 q 325 -16 396 -16 q 200 7 255 -16 q 108 74 146 29 q 51 185 71 118 q 31 340 31 252 q 52 484 31 418 q 113 600 73 551 q 213 676 153 648 q 349 704 272 704 q 481 672 427 704 q 561 586 535 641 l 581 689 l 739 689 l 664 326 l 664 318 q 687 178 664 223 q 757 140 711 133 l 757 -3 q 615 2 669 -24 q 545 96 562 28 m 496 346 q 457 508 496 453 q 351 562 419 562 q 282 545 311 562 q 235 498 254 528 q 209 429 217 469 q 200 345 200 389 q 237 181 200 237 q 345 126 275 126 q 408 142 380 126 q 455 186 436 158 q 485 252 475 214 q 496 335 496 290 l 496 346 z "},"β":{"ha":764,"x_min":94,"x_max":728,"o":"m 401 -14 q 328 -7 361 -14 q 260 15 295 -1 l 260 -269 l 94 -269 l 94 689 q 118 815 94 762 q 182 904 142 869 q 275 957 222 940 q 389 974 329 974 q 507 957 455 974 q 596 908 559 940 q 651 832 632 876 q 671 733 671 788 q 661 663 671 696 q 634 604 652 630 q 593 559 617 577 q 541 533 570 541 q 615 509 581 530 q 674 455 649 488 q 713 381 699 422 q 728 297 728 340 q 706 170 728 227 q 643 72 685 113 q 541 9 602 31 q 401 -14 480 -14 m 326 450 l 326 579 l 366 579 q 428 591 401 579 q 471 623 454 603 q 496 668 488 643 q 504 721 504 694 q 472 812 504 780 q 383 845 440 845 q 291 805 322 845 q 260 694 260 764 l 260 150 q 290 136 273 142 q 325 125 307 130 q 360 118 342 121 q 392 115 377 115 q 460 127 431 115 q 511 161 490 140 q 543 214 532 183 q 554 281 554 244 q 544 349 554 317 q 511 402 533 380 q 452 438 488 425 q 366 450 416 450 l 326 450 z "},"γ":{"ha":764,"x_min":28,"x_max":704,"o":"m 395 140 q 508 416 476 277 q 533 689 541 554 l 704 689 q 688 496 704 587 q 640 316 673 404 q 557 140 607 228 q 437 -42 507 52 q 442 -125 440 -81 q 444 -218 444 -169 l 444 -269 l 279 -269 l 279 -224 q 277 -121 279 -174 q 266 -7 274 -67 q 242 121 257 53 q 201 271 227 190 q 165 386 181 338 q 136 466 149 434 q 112 516 123 498 q 90 544 100 534 q 70 556 80 553 q 49 558 60 558 q 38 557 44 558 q 28 555 32 557 l 28 690 q 66 699 47 696 q 97 702 85 702 q 152 697 127 702 q 197 678 176 692 q 237 637 218 663 q 276 569 256 611 q 315 465 295 526 q 359 319 336 404 q 371 276 365 300 q 381 229 376 253 q 390 182 386 205 q 395 140 393 159 z "},"δ":{"ha":764,"x_min":49,"x_max":707,"o":"m 262 665 q 218 724 235 691 q 200 797 200 756 q 217 868 200 836 q 266 923 233 900 q 347 960 298 947 q 460 972 395 972 q 546 968 496 972 q 640 953 595 963 l 640 814 q 534 835 585 828 q 449 842 482 842 q 389 831 406 842 q 372 800 372 821 q 386 767 372 783 q 423 734 399 752 l 528 654 q 613 573 578 614 q 668 492 648 533 q 698 412 689 452 q 707 334 707 372 q 684 191 707 255 q 617 81 661 127 q 512 9 574 35 q 372 -16 450 -16 q 235 6 295 -16 q 134 70 176 28 q 71 175 92 113 q 49 318 49 237 q 63 432 49 379 q 105 530 78 486 q 172 608 133 574 q 262 665 212 642 m 372 568 q 306 535 334 555 q 260 486 278 514 q 232 418 242 457 q 221 329 221 380 q 263 182 221 237 q 379 127 304 127 q 446 143 417 127 q 495 185 475 159 q 525 248 515 212 q 534 323 534 283 q 508 432 534 381 q 429 523 481 482 l 372 568 z "},"ε":{"ha":764,"x_min":68,"x_max":685,"o":"m 667 554 q 619 563 646 558 q 563 571 592 568 q 500 578 533 575 q 433 581 467 581 q 356 575 387 581 q 307 560 326 570 q 281 535 289 549 q 273 504 273 521 q 283 468 273 486 q 312 438 292 451 q 362 419 331 426 q 437 413 393 413 l 594 413 l 594 295 l 426 295 q 336 290 370 294 q 282 274 302 285 q 253 246 261 262 q 244 210 244 230 q 290 138 244 166 q 437 110 336 110 q 557 119 495 110 q 685 145 620 127 l 685 14 q 558 -8 623 0 q 424 -16 493 -16 q 154 39 240 -16 q 68 195 68 93 q 78 255 68 227 q 110 304 89 283 q 162 340 131 326 q 233 361 193 355 q 179 377 203 365 q 138 409 155 390 q 112 451 121 427 q 103 503 103 475 q 121 587 103 550 q 180 651 140 625 q 284 690 220 677 q 440 704 349 704 q 561 699 505 704 q 667 684 616 693 l 667 554 z "},"ζ":{"ha":764,"x_min":83,"x_max":684,"o":"m 513 -106 q 508 -73 513 -87 q 490 -50 503 -60 q 453 -31 477 -39 q 392 -16 430 -23 q 255 26 313 1 q 158 89 197 51 q 102 180 120 127 q 83 306 83 233 q 101 420 83 366 q 145 523 118 474 q 207 615 173 572 q 279 696 241 659 q 355 767 317 734 q 429 825 393 799 l 119 825 l 119 958 l 678 958 l 678 843 q 493 691 571 763 q 363 554 414 620 q 286 429 311 489 q 261 314 261 370 q 272 241 261 270 q 307 193 283 212 q 367 162 330 174 q 453 139 403 150 q 563 104 519 125 q 634 56 608 83 q 672 -7 661 28 q 684 -85 684 -42 q 667 -169 684 -127 q 623 -249 651 -211 l 460 -249 q 500 -169 487 -202 q 513 -106 513 -136 z "},"η":{"ha":764,"x_min":82,"x_max":674,"o":"m 509 -269 l 509 449 q 426 562 509 562 q 388 555 407 562 q 350 533 370 548 q 308 493 330 517 q 263 436 287 469 l 263 0 l 98 0 l 98 357 q 97 419 98 384 q 94 498 96 455 q 89 589 92 541 q 82 689 85 637 l 224 689 l 237 578 q 291 637 267 615 q 342 674 315 660 q 398 696 368 689 q 465 704 429 704 q 556 687 517 704 q 622 638 595 669 q 661 562 648 606 q 674 463 674 517 l 674 -269 l 509 -269 z "},"θ":{"ha":764,"x_min":56,"x_max":708,"o":"m 708 486 q 686 279 708 372 q 622 121 665 186 q 518 20 580 56 q 375 -16 456 -16 q 239 12 298 -16 q 139 97 180 39 q 77 249 98 156 q 56 472 56 341 q 78 680 56 587 q 142 837 100 772 q 247 936 185 901 q 389 971 309 971 q 526 943 466 971 q 626 857 585 916 q 687 706 666 798 q 708 486 708 614 m 536 550 q 522 681 533 627 q 492 767 511 734 q 446 814 473 800 q 383 829 418 829 q 274 758 311 829 q 228 550 236 686 l 536 550 m 228 421 q 242 283 231 339 q 273 192 254 227 q 321 141 293 157 q 383 126 349 126 q 492 201 455 126 q 536 421 530 275 l 228 421 z "},"ι":{"ha":764,"x_min":83,"x_max":681,"o":"m 681 3 q 614 -10 650 -5 q 543 -16 578 -16 q 356 44 416 -16 q 296 215 296 104 l 296 567 l 83 567 l 83 689 l 465 689 l 465 231 q 471 177 465 199 q 489 141 476 155 q 521 120 501 127 q 570 114 541 114 q 624 119 595 114 q 681 134 653 124 l 681 3 z "},"κ":{"ha":764,"x_min":102,"x_max":736,"o":"m 524 0 l 264 345 l 264 0 l 102 0 l 102 689 l 264 689 l 264 397 l 509 689 l 713 689 l 433 375 l 736 0 l 524 0 z "},"λ":{"ha":764,"x_min":9,"x_max":746,"o":"m 304 724 q 279 778 292 758 q 252 810 267 799 q 222 826 238 822 q 186 829 206 829 q 139 825 166 829 q 90 816 111 821 l 90 954 q 152 967 119 962 q 207 971 184 971 q 293 962 255 971 q 362 928 331 954 q 420 859 393 903 q 471 743 446 814 l 658 199 q 685 142 672 157 q 719 127 697 127 q 732 128 724 127 q 746 130 741 129 l 746 1 q 699 -9 718 -7 q 659 -12 680 -12 q 605 -5 627 -12 q 565 19 582 2 q 533 64 547 36 q 505 135 519 93 l 415 400 l 383 503 l 346 400 l 191 0 l 9 0 l 309 710 l 304 724 z "},"μ":{"ha":764,"x_min":92,"x_max":734,"o":"m 257 689 l 257 241 q 277 156 257 186 q 340 126 296 126 q 413 160 375 126 q 496 260 451 195 l 496 689 l 661 689 l 661 225 q 663 182 661 201 q 670 152 665 164 q 686 134 676 140 q 714 127 696 127 l 734 127 l 734 0 q 687 -11 707 -7 q 644 -14 667 -14 q 590 -6 612 -14 q 551 15 567 1 q 527 51 536 29 q 513 100 517 72 q 332 -16 431 -16 q 281 -7 304 -16 q 246 15 258 1 l 257 -119 l 257 -269 l 92 -269 l 92 689 l 257 689 z "},"ν":{"ha":764,"x_min":18,"x_max":722,"o":"m 722 689 q 682 509 708 598 q 620 333 656 420 q 541 163 585 247 q 446 0 496 79 l 283 0 l 18 689 l 203 689 l 342 296 l 383 170 q 486 416 444 285 q 545 689 528 548 l 722 689 z "},"ξ":{"ha":764,"x_min":86,"x_max":696,"o":"m 554 825 q 431 811 479 825 q 354 775 382 797 q 315 727 326 753 q 304 675 304 700 q 341 596 304 626 q 457 566 378 566 l 624 566 l 624 436 l 440 436 q 360 424 394 436 q 305 393 327 412 q 272 347 283 373 q 261 292 261 320 q 269 241 261 263 q 299 201 277 219 q 361 168 321 183 q 465 139 401 153 q 575 104 531 125 q 647 56 620 83 q 685 -7 673 28 q 696 -85 696 -42 q 680 -169 696 -127 q 635 -249 663 -211 l 472 -249 q 512 -169 500 -202 q 525 -106 525 -136 q 520 -73 525 -87 q 502 -50 515 -60 q 466 -31 489 -39 q 404 -16 442 -23 q 252 29 313 3 q 154 90 191 54 q 101 173 117 125 q 86 282 86 220 q 99 359 86 323 q 133 423 111 395 q 182 472 154 452 q 241 504 210 492 q 190 528 211 511 q 156 567 169 545 q 138 614 144 589 q 132 664 132 640 q 157 756 132 714 q 224 825 181 799 l 117 825 l 117 958 l 656 958 l 656 825 l 554 825 z "},"ο":{"ha":764,"x_min":49,"x_max":715,"o":"m 715 350 q 692 201 715 269 q 625 85 669 134 q 519 11 582 37 q 375 -16 456 -16 q 238 7 298 -16 q 136 74 178 29 q 71 185 94 118 q 49 340 49 252 q 72 490 49 422 q 139 604 96 557 q 246 678 183 652 q 389 704 309 704 q 526 681 466 704 q 629 614 587 659 q 693 503 671 569 q 715 350 715 437 m 543 346 q 502 507 543 453 q 383 561 462 561 q 309 544 340 561 q 259 497 279 527 q 230 429 239 468 q 221 345 221 389 q 264 182 221 237 q 383 127 308 127 q 455 144 425 127 q 505 190 486 161 q 533 260 524 220 q 543 346 543 300 z "},"π":{"ha":764,"x_min":21,"x_max":740,"o":"m 740 -4 q 701 -11 724 -8 q 655 -14 678 -14 q 590 -9 622 -14 q 531 13 559 -4 q 485 63 503 30 q 456 149 466 96 q 446 269 447 202 q 444 555 444 336 l 275 555 q 262 263 275 397 q 198 0 249 129 l 26 0 q 98 262 79 128 q 117 555 117 396 l 21 555 l 21 689 l 730 689 l 730 555 l 608 555 q 608 348 608 393 q 611 255 608 302 q 620 176 614 208 q 637 133 627 145 q 661 117 648 121 q 687 114 673 114 q 713 115 699 114 q 740 118 726 116 l 740 -4 z "},"ρ":{"ha":764,"x_min":93,"x_max":713,"o":"m 713 358 q 687 192 713 262 q 619 76 662 121 q 518 7 576 30 q 396 -15 460 -15 q 322 -6 365 -15 q 258 16 280 3 l 258 -269 l 93 -269 l 93 351 q 111 495 93 430 q 168 606 130 559 q 266 678 206 652 q 410 704 326 704 q 546 680 488 704 q 640 610 603 655 q 695 501 677 565 q 713 358 713 437 m 541 351 q 532 439 541 400 q 505 506 523 478 q 460 549 487 534 q 399 564 434 564 q 295 516 331 564 q 258 366 258 469 l 258 159 q 320 134 286 144 q 393 125 354 125 q 448 137 421 125 q 495 176 475 149 q 528 247 516 203 q 541 351 541 290 z "},"σ":{"ha":764,"x_min":45,"x_max":753,"o":"m 612 555 q 643 514 629 539 q 669 460 658 490 q 687 398 680 431 q 694 335 694 366 q 672 193 694 258 q 609 82 651 129 q 507 10 568 36 q 366 -16 446 -16 q 233 6 292 -16 q 132 73 174 28 q 67 184 90 117 q 45 339 45 250 q 68 488 45 420 q 135 603 92 555 q 242 677 179 651 q 385 704 305 704 q 448 702 417 704 q 518 696 478 699 q 614 691 558 694 q 753 689 669 689 l 753 551 q 720 552 738 551 q 682 553 701 552 q 645 554 663 553 q 612 555 627 555 m 440 558 q 411 560 427 559 q 379 561 395 561 q 305 544 336 561 q 255 497 275 526 q 226 428 235 467 q 217 345 217 389 q 257 185 217 243 q 372 127 298 127 q 438 142 410 127 q 485 183 466 157 q 513 248 504 210 q 523 331 523 286 q 516 400 523 367 q 498 461 509 433 q 472 514 487 490 q 440 558 457 538 z "},"ς":{"ha":764,"x_min":90,"x_max":672,"o":"m 501 -106 q 497 -72 501 -87 q 482 -46 493 -57 q 453 -27 471 -35 q 375 -9 435 -20 q 258 27 315 1 q 163 96 201 53 q 108 198 125 139 q 90 334 90 258 q 114 482 90 415 q 184 598 138 549 q 298 673 231 646 q 453 700 366 700 q 566 693 520 700 q 648 675 612 686 l 648 517 q 553 545 604 535 q 452 555 501 555 q 370 539 405 555 q 313 497 336 524 q 279 431 290 469 q 268 347 268 393 q 277 268 268 302 q 307 207 286 233 q 362 165 328 181 q 454 137 397 149 q 554 107 511 126 q 624 61 597 89 q 661 -2 650 34 q 672 -79 672 -39 q 656 -166 672 -121 q 611 -249 640 -211 l 449 -249 q 489 -169 476 -202 q 501 -106 501 -136 z "},"τ":{"ha":764,"x_min":35,"x_max":676,"o":"m 646 3 q 564 -10 608 -5 q 478 -16 519 -16 q 363 -1 410 -16 q 287 42 316 13 q 245 116 258 71 q 232 224 232 161 l 232 560 l 35 560 l 35 689 l 676 689 l 676 560 l 395 560 l 395 236 q 400 189 395 210 q 417 153 405 168 q 451 131 430 139 q 504 123 472 123 q 578 130 540 123 q 646 142 616 136 l 646 3 z "},"υ":{"ha":764,"x_min":83,"x_max":681,"o":"m 681 386 q 659 221 681 295 q 595 95 637 147 q 492 13 553 42 q 352 -16 431 -16 q 158 47 220 -16 q 97 246 97 110 q 99 329 97 288 q 100 412 100 370 q 97 550 100 480 q 83 689 93 621 l 246 689 q 259 556 255 623 q 263 423 263 489 q 261 340 263 380 q 260 262 260 300 q 266 199 260 225 q 284 156 271 172 q 318 131 298 139 q 370 123 339 123 q 429 138 401 123 q 476 183 456 153 q 507 261 496 214 q 518 374 518 309 q 513 532 518 454 q 500 689 509 610 l 663 689 q 676 537 671 612 q 681 386 681 463 z "},"φ":{"ha":764,"x_min":17,"x_max":747,"o":"m 304 958 l 463 958 l 463 704 q 583 668 530 695 q 672 597 636 642 q 728 490 709 552 q 747 350 747 429 q 729 222 747 283 q 676 114 711 162 q 588 33 642 66 q 463 -14 534 -1 l 463 -269 l 304 -269 l 304 -16 q 184 20 237 -7 q 93 91 130 47 q 37 198 56 136 q 17 340 17 260 q 35 468 17 408 q 89 575 53 528 q 179 656 125 623 q 304 703 233 690 l 304 958 m 463 131 q 515 160 492 140 q 554 208 538 180 q 578 271 570 236 q 586 346 586 306 q 554 492 586 440 q 463 559 522 544 l 463 131 m 304 558 q 250 528 274 548 q 210 480 227 508 q 186 417 194 452 q 178 345 178 383 q 212 197 178 250 q 304 129 246 144 l 304 558 z "},"χ":{"ha":764,"x_min":12,"x_max":726,"o":"m 163 497 q 127 549 146 536 q 86 562 108 562 q 33 554 64 562 l 33 690 q 79 699 54 696 q 126 703 104 703 q 193 696 165 703 q 242 672 221 689 q 282 625 264 654 q 319 549 300 595 l 348 481 l 389 367 l 436 479 l 536 689 l 724 689 l 472 207 l 602 -86 q 634 -132 616 -119 q 673 -144 652 -144 q 700 -143 686 -144 q 726 -138 713 -141 l 726 -272 q 673 -282 698 -279 q 632 -285 649 -285 q 566 -278 593 -285 q 518 -254 538 -271 q 480 -209 497 -237 q 444 -139 463 -181 l 399 -34 l 361 68 l 317 -34 l 200 -269 l 12 -269 l 281 229 l 163 497 z "},"ψ":{"ha":764,"x_min":35,"x_max":736,"o":"m 453 114 q 516 142 490 123 q 559 193 543 161 q 583 271 575 224 q 590 382 590 317 q 583 533 590 458 q 568 689 576 608 l 714 689 q 729 535 722 609 q 736 387 736 461 q 718 236 736 304 q 663 117 699 168 q 574 34 627 66 q 453 -9 522 1 l 453 -269 l 311 -269 l 311 -9 q 198 13 249 -6 q 111 68 147 33 q 55 156 75 104 q 35 279 35 209 l 35 689 l 178 689 l 178 301 q 185 224 178 256 q 209 169 193 191 q 250 133 224 146 q 311 114 275 120 l 311 958 l 453 958 l 453 114 z "},"ω":{"ha":764,"x_min":17,"x_max":747,"o":"m 463 300 q 472 175 463 222 q 520 127 482 127 q 545 135 534 127 q 565 163 556 142 q 578 223 573 184 q 583 328 583 262 q 577 428 583 378 q 562 526 572 479 q 539 615 553 573 q 512 689 526 656 l 687 689 q 730 530 713 620 q 747 330 747 440 q 731 182 747 247 q 685 74 715 118 q 613 7 655 30 q 518 -16 570 -16 q 419 13 455 -16 q 378 102 384 42 q 328 16 365 47 q 233 -16 290 -16 q 143 3 182 -16 q 76 60 104 22 q 32 161 47 99 q 17 318 17 224 q 33 527 17 435 q 78 689 50 619 l 250 689 q 220 610 233 653 q 199 520 208 567 q 185 426 190 474 q 180 331 180 378 q 194 181 180 234 q 244 127 208 127 q 289 166 277 127 q 301 282 301 205 l 301 496 l 463 496 l 463 300 z "},"ά":{"ha":764,"x_min":0,"x_max":757,"o":"m 545 96 q 451 15 507 45 q 325 -16 396 -16 q 200 7 255 -16 q 108 74 146 29 q 51 185 71 118 q 31 340 31 252 q 52 484 31 418 q 113 600 73 551 q 213 676 153 648 q 349 704 272 704 q 481 672 427 704 q 561 586 535 641 l 581 689 l 739 689 l 664 326 l 664 318 q 687 178 664 223 q 757 140 711 133 l 757 -3 q 615 2 669 -24 q 545 96 562 28 m 496 346 q 457 508 496 453 q 351 562 419 562 q 282 545 311 562 q 235 498 254 528 q 209 429 217 469 q 200 345 200 389 q 237 181 200 237 q 345 126 275 126 q 408 142 380 126 q 455 186 436 158 q 485 252 475 214 q 496 335 496 290 l 496 346 m 460 771 l 301 771 l 397 972 l 597 972 l 460 771 m 0 689 z "},"έ":{"ha":764,"x_min":0,"x_max":685,"o":"m 667 554 q 619 563 646 558 q 563 571 592 568 q 500 578 533 575 q 433 581 467 581 q 356 575 387 581 q 307 560 326 570 q 281 535 289 549 q 273 504 273 521 q 283 468 273 486 q 312 438 292 451 q 362 419 331 426 q 437 413 393 413 l 594 413 l 594 295 l 426 295 q 336 290 370 294 q 282 274 302 285 q 253 246 261 262 q 244 210 244 230 q 290 138 244 166 q 437 110 336 110 q 557 119 495 110 q 685 145 620 127 l 685 14 q 558 -8 623 0 q 424 -16 493 -16 q 154 39 240 -16 q 68 195 68 93 q 78 255 68 227 q 110 304 89 283 q 162 340 131 326 q 233 361 193 355 q 179 377 203 365 q 138 409 155 390 q 112 451 121 427 q 103 503 103 475 q 121 587 103 550 q 180 651 140 625 q 284 690 220 677 q 440 704 349 704 q 561 699 505 704 q 667 684 616 693 l 667 554 m 460 771 l 301 771 l 397 972 l 597 972 l 460 771 m 0 689 z "},"ή":{"ha":764,"x_min":0,"x_max":674,"o":"m 509 -269 l 509 449 q 426 562 509 562 q 388 555 407 562 q 350 533 370 548 q 308 493 330 517 q 263 436 287 469 l 263 0 l 98 0 l 98 357 q 97 419 98 384 q 94 498 96 455 q 89 589 92 541 q 82 689 85 637 l 224 689 l 237 578 q 291 637 267 615 q 342 674 315 660 q 398 696 368 689 q 465 704 429 704 q 556 687 517 704 q 622 638 595 669 q 661 562 648 606 q 674 463 674 517 l 674 -269 l 509 -269 m 460 771 l 301 771 l 397 972 l 597 972 l 460 771 m 0 689 z "},"ί":{"ha":764,"x_min":0,"x_max":681,"o":"m 681 3 q 614 -10 650 -5 q 543 -16 578 -16 q 356 44 416 -16 q 296 215 296 104 l 296 567 l 83 567 l 83 689 l 465 689 l 465 231 q 471 177 465 199 q 489 141 476 155 q 521 120 501 127 q 570 114 541 114 q 624 119 595 114 q 681 134 653 124 l 681 3 m 460 771 l 301 771 l 397 972 l 597 972 l 460 771 m 0 689 z "},"ϊ":{"ha":764,"x_min":0,"x_max":681,"o":"m 681 3 q 614 -10 650 -5 q 543 -16 578 -16 q 356 44 416 -16 q 296 215 296 104 l 296 567 l 83 567 l 83 689 l 465 689 l 465 231 q 471 177 465 199 q 489 141 476 155 q 521 120 501 127 q 570 114 541 114 q 624 119 595 114 q 681 134 653 124 l 681 3 m 333 876 q 326 840 333 857 q 306 811 318 823 q 276 791 294 798 q 240 783 259 783 q 204 791 221 783 q 175 811 187 798 q 155 840 162 823 q 147 876 147 857 q 155 912 147 895 q 175 942 162 930 q 204 962 187 955 q 240 970 221 970 q 276 962 259 970 q 306 942 294 955 q 326 912 318 930 q 333 876 333 895 m 616 876 q 609 840 616 857 q 589 811 602 823 q 559 791 576 798 q 524 783 543 783 q 487 791 504 783 q 458 811 471 798 q 438 840 445 823 q 431 876 431 857 q 438 912 431 895 q 458 942 445 930 q 487 962 471 955 q 524 970 504 970 q 559 962 543 970 q 589 942 576 955 q 609 912 602 930 q 616 876 616 895 m 0 689 z "},"ΐ":{"ha":764,"x_min":0,"x_max":717,"o":"m 681 3 q 614 -10 650 -5 q 543 -16 578 -16 q 356 44 416 -16 q 296 215 296 104 l 296 567 l 83 567 l 83 689 l 465 689 l 465 231 q 471 177 465 199 q 489 141 476 155 q 521 120 501 127 q 570 114 541 114 q 624 119 595 114 q 681 134 653 124 l 681 3 m 275 865 q 268 829 275 846 q 248 800 260 812 q 218 780 235 787 q 182 772 201 772 q 146 780 163 772 q 116 800 129 787 q 96 829 104 812 q 89 865 89 846 q 96 901 89 884 q 116 931 104 918 q 146 951 129 944 q 182 958 163 958 q 218 951 201 958 q 248 931 235 944 q 268 901 260 918 q 275 865 275 884 m 717 865 q 709 829 717 846 q 689 800 702 812 q 660 780 677 787 q 624 772 643 772 q 587 780 604 772 q 558 800 570 787 q 538 829 545 812 q 530 865 530 846 q 538 901 530 884 q 558 931 545 918 q 587 951 570 944 q 624 958 604 958 q 660 951 643 958 q 689 931 677 944 q 709 901 702 918 q 717 865 717 884 m 437 771 l 298 771 l 345 972 l 525 972 l 437 771 m 0 689 z "},"ό":{"ha":764,"x_min":0,"x_max":715,"o":"m 715 350 q 692 201 715 269 q 625 85 669 134 q 519 11 582 37 q 375 -16 456 -16 q 238 7 298 -16 q 136 74 178 29 q 71 185 94 118 q 49 340 49 252 q 72 490 49 422 q 139 604 96 557 q 246 678 183 652 q 389 704 309 704 q 526 681 466 704 q 629 614 587 659 q 693 503 671 569 q 715 350 715 437 m 543 346 q 502 507 543 453 q 383 561 462 561 q 309 544 340 561 q 259 497 279 527 q 230 429 239 468 q 221 345 221 389 q 264 182 221 237 q 383 127 308 127 q 455 144 425 127 q 505 190 486 161 q 533 260 524 220 q 543 346 543 300 m 460 771 l 301 771 l 397 972 l 597 972 l 460 771 m 0 689 z "},"ύ":{"ha":764,"x_min":0,"x_max":681,"o":"m 681 386 q 659 221 681 295 q 595 95 637 147 q 492 13 553 42 q 352 -16 431 -16 q 158 47 220 -16 q 97 246 97 110 q 99 329 97 288 q 100 412 100 370 q 97 550 100 480 q 83 689 93 621 l 246 689 q 259 556 255 623 q 263 423 263 489 q 261 340 263 380 q 260 262 260 300 q 266 199 260 225 q 284 156 271 172 q 318 131 298 139 q 370 123 339 123 q 429 138 401 123 q 476 183 456 153 q 507 261 496 214 q 518 374 518 309 q 513 532 518 454 q 500 689 509 610 l 663 689 q 676 537 671 612 q 681 386 681 463 m 460 771 l 301 771 l 397 972 l 597 972 l 460 771 m 0 689 z "},"ΰ":{"ha":764,"x_min":0,"x_max":717,"o":"m 681 386 q 659 221 681 295 q 595 95 637 147 q 492 13 553 42 q 352 -16 431 -16 q 158 47 220 -16 q 97 246 97 110 q 99 329 97 288 q 100 412 100 370 q 97 550 100 480 q 83 689 93 621 l 246 689 q 259 556 255 623 q 263 423 263 489 q 261 340 263 380 q 260 262 260 300 q 266 199 260 225 q 284 156 271 172 q 318 131 298 139 q 370 123 339 123 q 429 138 401 123 q 476 183 456 153 q 507 261 496 214 q 518 374 518 309 q 513 532 518 454 q 500 689 509 610 l 663 689 q 676 537 671 612 q 681 386 681 463 m 275 865 q 268 829 275 846 q 248 800 260 812 q 218 780 235 787 q 182 772 201 772 q 146 780 163 772 q 116 800 129 787 q 96 829 104 812 q 89 865 89 846 q 96 901 89 884 q 116 931 104 918 q 146 951 129 944 q 182 958 163 958 q 218 951 201 958 q 248 931 235 944 q 268 901 260 918 q 275 865 275 884 m 717 865 q 709 829 717 846 q 689 800 702 812 q 660 780 677 787 q 624 772 643 772 q 587 780 604 772 q 558 800 570 787 q 538 829 545 812 q 530 865 530 846 q 538 901 530 884 q 558 931 545 918 q 587 951 570 944 q 624 958 604 958 q 660 951 643 958 q 689 931 677 944 q 709 901 702 918 q 717 865 717 884 m 437 771 l 298 771 l 345 972 l 525 972 l 437 771 m 0 689 z "}}}
